<?xml version="1.0" standalone="no"?>
<!DOCTYPE svg PUBLIC "-//W3C//DTD SVG 1.1//EN" "http://www.w3.org/Graphics/SVG/1.1/DTD/svg11.dtd" >
<svg>
<metadata>
Created by FontForge 20090622 at Mon May 27 21:40:25 2019
 By deploy user
Copyright (c) 1990-2005 ParaType, Inc. All Rights Reserved. Franklin Gothic is a registered trade mark of International Typeface Corporation.
</metadata>
<defs>
<font id="FranklinGothicDemiCondITC-Reg" horiz-adv-x="527" >
  <font-face 
    font-family="FranklinGothicDemiCondITC"
    font-weight="400"
    font-stretch="normal"
    units-per-em="1000"
    panose-1="2 11 7 6 3 5 2 2 2 4"
    ascent="800"
    descent="-200"
    x-height="510"
    cap-height="686"
    bbox="-276 -258 1025 930"
    underline-thickness="50"
    underline-position="-50"
    unicode-range="U+0020-U+FB04"
  />
<missing-glyph horiz-adv-x="233" 
 />
    <glyph glyph-name="IJ" unicode="IJ" horiz-adv-x="613" 
d="M66 686h151v-686h-151v686zM399 686h151v-456q0 -130 -37.5 -185.5t-140.5 -55.5q-35 0 -99 11v125q37 -5 56 -5q21 0 34.5 5t20.5 11.5t10.5 23.5t4 29.5t0.5 40.5v456z" />
    <glyph glyph-name="ij" unicode="ij" horiz-adv-x="495" 
d="M53 510h142v-510h-142v510zM197 552h-145v140h145v-140zM304 510h143v-493q0 -43 -1.5 -67t-8.5 -52.5t-22 -45.5q-33 -38 -99 -38q-46 0 -78 7v116q9 0 16.5 -0.5t9.5 -0.5q23 0 33 17q7 13 7 68v489zM448 552h-145v140h145v-140z" />
    <glyph glyph-name="fi" unicode="fi" horiz-adv-x="547" 
d="M213 510h90v-112h-90v-398h-136v398h-58v112h58q0 44 2 67t14.5 55.5t38.5 52.5q40 32 105 32q39 0 63 -5v-111q-14 2 -30 2q-32 0 -46 -19q-11 -16 -11 -74zM352 510h141v-510h-141v510zM495 553h-144v140h144v-140z" />
    <glyph glyph-name="fl" unicode="fl" horiz-adv-x="546" 
d="M213 510h90v-112h-90v-398h-136v398h-58v112h58q0 44 2 67t14.5 55.5t38.5 52.5q40 32 105 32q39 0 63 -5v-111q-1 0 -13 1t-17 1q-32 0 -46 -19q-11 -15 -11 -74zM352 690h141v-690h-141v690z" />
    <glyph glyph-name="afii10017.var.accented" unicode="&#x410;`" horiz-adv-x="524" 
d="M184 686h152l196 -686h-154l-34 142h-193l-33 -142h-139zM316 260l-69 279l-66 -279h135zM199 792l212 112l33 -99l-215 -67z" />
    <glyph glyph-name="afii10022.var.accented" unicode="&#x415;`" horiz-adv-x="493" 
d="M66 686h418v-118h-268v-159h208v-118h-208v-173h268v-118h-418v686zM184 792l212 112l33 -99l-215 -67z" />
    <glyph glyph-name="afii10026.var.accented" unicode="&#x418;`" horiz-adv-x="619" 
d="M66 686h150v-353q0 -60 -4 -85q10 37 22 62l169 327v49h150v-686h-150v355q0 62 4 89q-15 -50 -22 -62l-169 -327v-55h-150v686zM247 792l212 112l33 -99l-215 -67z" />
    <glyph glyph-name="afii10032.var.accented" unicode="&#x41e;`" horiz-adv-x="582" 
d="M291 697q102 0 167 -67q83 -87 83 -287q0 -175 -64.5 -264.5t-185.5 -89.5q-102 0 -167 67q-83 85 -83 287t83 287q65 67 167 67zM291 573q-41 0 -64 -38q-26 -44 -26 -192q0 -151 26 -193q23 -37 64 -37q42 0 65 37q25 42 25 193t-25 192q-22 38 -65 38zM228 792
l212 112l33 -99l-215 -67z" />
    <glyph glyph-name="afii10037.var.accented" unicode="&#x423;`" horiz-adv-x="499" 
d="M-10 686h168l115 -329h4l98 329h139l-168 -494q-42 -123 -81 -160q-45 -43 -134 -43q-37 0 -75 11v124q27 -6 57 -6q37 0 56 16q23 18 29 50zM187 792l212 112l33 -99l-215 -67z" />
    <glyph glyph-name="afii10045.var.accented" unicode="&#x42b;`" horiz-adv-x="798" 
d="M590 686h142v-686h-142v686zM208 436h64q119 0 175 -41q76 -56 76 -182q0 -122 -78 -177q-24 -17 -55.5 -25.5t-51.5 -9.5t-55 -1h-217v686h142v-250zM208 118h62q43 0 71 17q34 22 34 81q0 60 -31 84q-23 18 -74 18h-62v-200zM336 792l212 112l33 -99l-215 -67z" />
    <glyph glyph-name="afii10047.var.accented" unicode="&#x42d;`" horiz-adv-x="559" 
d="M26 201l136 16q4 -53 26 -78q24 -26 66 -26q54 0 80 38q30 44 30 143h-155v118h153q-5 77 -25 113q-27 48 -81 48q-46 0 -71 -35q-23 -31 -25 -86l-135 18q12 114 73 171q61 56 160 56q100 0 163 -59q51 -47 74 -128t23 -170q0 -87 -22.5 -163.5t-68.5 -122.5
q-65 -65 -175 -65q-97 0 -150 44q-59 50 -76 168zM217 792l212 112l33 -99l-215 -67z" />
    <glyph glyph-name="afii10048.var.accented" unicode="&#x42e;`" horiz-adv-x="837" 
d="M210 417h103q3 55 22 115.5t53 97.5q61 67 164 67t164 -67q80 -86 80 -287t-80 -287q-61 -67 -164 -67t-164 67q-35 38 -55.5 104t-21.5 127h-101v-287h-144v686h144v-269zM552 573q-41 0 -65 -38q-26 -43 -26 -192q0 -153 26 -193q25 -37 65 -37t64 37q24 40 24 193
q0 149 -24 192q-22 38 -64 38zM356 792l212 112l33 -99l-215 -67z" />
    <glyph glyph-name="afii10049.var.accented" unicode="&#x42f;`" horiz-adv-x="574" 
d="M508 686v-686h-150v270h-68l-98 -270h-164l127 295q-38 14 -64 46q-43 53 -43 135q0 108 74 165q60 45 150 45h236zM358 574h-68q-41 0 -63 -20q-25 -23 -25 -74q0 -50 24 -74t67 -24h65v192zM224 792l212 112l33 -99l-215 -67z" />
    <glyph glyph-name="afii10065.var.accented" unicode="&#x430;`" horiz-adv-x="495" 
d="M189 348l-135 13q9 63 48 102q55 57 160 57q73 0 119 -31q21 -14 34 -31t18.5 -41.5t6.5 -44t1 -56.5v-203q0 -84 9 -113h-132q-11 41 -7 78q-14 -30 -38 -52q-40 -37 -101 -37q-59 0 -95 35q-40 38 -40 108q0 61 32 103q34 44 103 62q41 12 127 19v41q0 35 -13 52
q-14 17 -40 17q-30 0 -45 -26q-7 -13 -12 -52zM299 218v26l-19 -3q-65 -11 -84 -43q-13 -22 -13 -54q0 -24 12 -41q15 -20 37 -20q38 0 54 44q13 35 13 91zM199 608l172 158l56 -84l-186 -117z" />
    <glyph glyph-name="afii10070.var.accented" unicode="&#x435;`" horiz-adv-x="476" 
d="M445 231h-268q-2 -91 15 -119t55 -28q33 0 52 24q16 20 19 67l127 -8q-14 -75 -54 -118q-54 -59 -150 -59q-90 0 -144 55q-66 67 -66 205q0 140 64 210q56 60 146 60q111 0 166 -93q45 -76 38 -196zM178 313h133q1 61 -18 88q-20 25 -49 25q-32 0 -50 -29
q-13 -21 -16 -84zM189 608l172 158l56 -84l-186 -117z" />
    <glyph glyph-name="afii10074.var.accented" unicode="&#x438;`" horiz-adv-x="504" 
d="M53 510h132v-237q0 -18 -3 -64q6 12 12.5 29t10.5 24l114 217v31h132v-510h-132v246q0 10 3 63q-16 -41 -24 -56l-113 -214v-39h-132v510zM203 608l172 158l56 -84l-186 -117z" />
    <glyph glyph-name="afii10080.var.accented" unicode="&#x43e;`" horiz-adv-x="474" 
d="M237 520q92 0 143 -54q63 -67 63 -211t-63 -211q-51 -54 -143 -54t-143 54q-63 67 -63 211t63 211q51 54 143 54zM237 420q-25 0 -40 -22q-20 -29 -20 -143t20 -143q15 -22 40 -22t40 22q20 29 20 143t-20 143q-15 22 -40 22zM188 608l172 158l56 -84l-186 -117z" />
    <glyph glyph-name="afii10085.var.accented" unicode="&#x443;`" horiz-adv-x="383" 
d="M-14 510h150l69 -312l66 312h129l-154 -518q-29 -96 -56 -130q-39 -48 -106 -48q-39 0 -69 10v116q17 -4 43 -4q43 0 62 24q12 14 17 38zM143 608l172 158l56 -84l-186 -117z" />
    <glyph glyph-name="afii10093.var.accented" unicode="&#x44b;`" horiz-adv-x="667" 
d="M191 510v-187h66q92 0 138 -47q41 -42 41 -113q0 -80 -46 -122q-44 -41 -114 -41h-223v510h138zM191 238v-138h35q34 0 52 17q20 18 20 52q0 37 -21 55q-17 14 -49 14h-37zM476 510h138v-510h-138v510zM285 608l172 158l56 -84l-186 -117z" />
    <glyph glyph-name="afii10095.var.accented" unicode="&#x44d;`" horiz-adv-x="470" 
d="M161 303h136q0 50 -15 80q-18 37 -63 37q-37 0 -55 -25q-14 -21 -18 -53l-120 13q6 70 54 116q51 49 139 49q101 0 159 -64q61 -68 61 -200q0 -145 -62 -209q-55 -57 -156 -57q-92 0 -138 39q-53 45 -58 126l124 13q0 -28 12 -49q17 -29 55 -29q47 0 66 41q15 31 15 90
h-136v82zM186 608l172 158l56 -84l-186 -117z" />
    <glyph glyph-name="afii10096.var.accented" unicode="&#x44e;`" horiz-adv-x="689" 
d="M189 319h73q9 93 57 147t139 54q89 0 139 -54q61 -66 61 -211t-61 -211q-50 -54 -139 -54q-91 0 -139 54q-26 29 -41.5 76.5t-17.5 93.5h-71v-214h-136v510h136v-191zM458 420q-29 0 -46 -22q-20 -27 -20 -143t20 -143q17 -22 46 -22t44 22q20 27 20 143t-20 143
q-15 22 -44 22zM296 608l172 158l56 -84l-186 -117z" />
    <glyph glyph-name="afii10097.var.accented" unicode="&#x44f;`" horiz-adv-x="483" 
d="M430 510v-510h-138v178h-57l-64 -178h-151l92 209q-29 11 -49 38q-30 41 -30 100q0 65 30 106q41 57 129 57h238zM292 416h-48q-37 0 -54 -17t-17 -58q0 -37 17 -53q16 -16 58 -16h44v144zM193 608l172 158l56 -84l-186 -117z" />
    <glyph glyph-name="ff" unicode="ff" horiz-adv-x="580" 
d="M213 510h145q0 68 13.5 111.5t39 62.5t49.5 25t59 6q45 0 71 -5v-110q-18 2 -39 2q-31 0 -44.5 -17.5t-11.5 -74.5h89v-113h-89v-397h-137v403h-145v-403h-136v397h-58v113h58q0 55 9.5 94t23.5 60.5t37 33t42.5 14.5t47.5 3q45 0 72 -5v-110q-16 2 -39 2
q-33 0 -44.5 -16.5t-12.5 -75.5z" />
    <glyph glyph-name="ffi" unicode="ffi" horiz-adv-x="547" 
d="M213 510h90v-113h-90v-397h-136v397h-58v113h58q1 118 40 161.5t120 43.5q37 0 63 -4v-111q-14 2 -30 2q-33 0 -44.5 -16.5t-12.5 -75.5zM351 510h142v-510h-142v510zM495 552h-145v140h145v-140z" />
    <glyph glyph-name="ffl" unicode="ffl" horiz-adv-x="546" 
d="M213 510h90v-113h-90v-397h-136v397h-58v113h58q1 118 40 161.5t120 43.5q37 0 63 -4v-111q-14 2 -30 2q-33 0 -44.5 -16.5t-12.5 -75.5zM351 688h142v-688h-142v688z" />
    <glyph glyph-name=".notdef" horiz-adv-x="233" 
 />
    <glyph glyph-name=".notdef" horiz-adv-x="233" 
 />
    <glyph glyph-name=".null" horiz-adv-x="0" 
 />
    <glyph glyph-name="nonmarkingreturn" horiz-adv-x="333" 
 />
    <glyph glyph-name="space" unicode=" " horiz-adv-x="233" 
 />
    <glyph glyph-name="space" unicode="&#xa0;" horiz-adv-x="233" 
 />
    <glyph glyph-name="exclam" unicode="!" horiz-adv-x="354" 
d="M87 686h180l-44 -481h-92zM106 152h141v-152h-141v152z" />
    <glyph glyph-name="quotedbl" unicode="&#x22;" horiz-adv-x="530" 
d="M102 686h134l-20 -302h-94zM295 686h133l-19 -302h-94z" />
    <glyph glyph-name="numbersign" unicode="#" 
d="M175 686h88l-29 -199h101l30 199h89l-30 -199h92l-12 -82h-93l-17 -110h93l-12 -84h-93l-32 -211h-89l32 211h-102l-32 -211h-88l31 211h-92l13 84h92l17 110h-92l12 82h92zM221 405l-17 -110h102l17 110h-102z" />
    <glyph glyph-name="dollar" unicode="$" 
d="M225 744l77 -1v-72q58 -4 105 -43q48 -41 64 -103l-107 -44q-15 39 -27 55q-24 35 -70 35q-34 0 -56 -24q-16 -18 -16 -49q0 -29 34 -50q11 -7 24 -13t21.5 -9t25 -8t24.5 -8q84 -29 127 -79q39 -45 39 -113q0 -92 -60 -147q-49 -43 -128 -52v-93h-77v93q-64 5 -109 41
q-63 49 -79 135l120 31q3 -34 23 -61q29 -40 80 -40q50 0 72 22q20 20 20 51q0 39 -39 62q-11 7 -23 11t-35 11t-47 17q-96 38 -127 95q-21 39 -21 85q0 98 63 151q42 36 102 41v73z" />
    <glyph glyph-name="percent" unicode="%" horiz-adv-x="686" 
d="M165 690q56 0 95.5 -41.5t39.5 -134.5q0 -80 -33.5 -128.5t-101.5 -48.5q-69 0 -102.5 49t-33.5 128q0 93 40 134.5t96 41.5zM165 613q-12 0 -20.5 -6.5t-12 -19.5t-5 -24t-1.5 -28v-21v-23q0 -17 1.5 -28t5 -24t12 -19.5t20.5 -6.5q23 0 30.5 25t7.5 76q0 49 -7.5 74
t-30.5 25zM466 686h79l-324 -686h-78zM521 350q16 0 31.5 -3t35.5 -14.5t34.5 -29.5t24.5 -52t10 -78q0 -32 -6 -60t-20 -55.5t-42 -44t-68 -16.5q-49 0 -81 27.5t-43.5 64.5t-11.5 84q0 51 13 88t34.5 55t43.5 26t45 8zM521 273q-23 0 -30 -20.5t-8 -57.5v-22v-22
q0 -18 1.5 -29t5 -23.5t11.5 -19t20 -6.5q22 0 29 19t9 59v22v22q-1 26 -3.5 40.5t-11 26t-23.5 11.5z" />
    <glyph glyph-name="ampersand" unicode="&#x26;" horiz-adv-x="667" 
d="M526 392l112 -20q-11 -54 -34 -110q-28 -68 -59 -109q12 -13 31.5 -25t35.5 -12q2 0 7 0.5t7 0.5h12v-117q-27 -7 -56 -7q-71 0 -129 65q-82 -69 -182 -69q-103 0 -162 54q-61 54 -61 145q0 136 156 202q-63 84 -63 143q0 83 62 128q50 36 120 36q75 0 124 -44
q50 -45 50 -127q0 -62 -53 -113q-30 -29 -66 -45l95 -127q18 31 33 75q14 41 20 76zM320 447q26 13 40 31q21 26 21 65q0 26 -14 41q-15 15 -40 15q-21 0 -36 -13q-16 -14 -16 -37q0 -42 45 -102zM385 143l-124 168q-28 -16 -46 -41q-23 -32 -23 -67q0 -56 32 -80
q25 -20 71 -20q48 0 90 40z" />
    <glyph glyph-name="quotesingle" unicode="'" horiz-adv-x="356" 
d="M111 686h134l-20 -302h-94z" />
    <glyph glyph-name="parenleft" unicode="(" horiz-adv-x="354" 
d="M178 686h111q-47 -83 -76 -201t-29 -228t29 -228t76 -201h-111q-125 182 -125 429q0 108 31 224.5t94 204.5z" />
    <glyph glyph-name="parenright" unicode=")" horiz-adv-x="354" 
d="M176 -172h-111q48 85 76 200.5t28 228.5t-28 228.5t-76 200.5h111q62 -87 93.5 -204.5t31.5 -224.5q0 -98 -28 -213.5t-97 -215.5z" />
    <glyph glyph-name="asterisk" unicode="*" horiz-adv-x="528" 
d="M221 686h86l-13 -126l105 70l41 -76l-111 -50l111 -50l-41 -77l-105 71l13 -127h-86l13 127l-104 -71l-42 77l112 50l-112 50l42 76l104 -70z" />
    <glyph glyph-name="plus" unicode="+" horiz-adv-x="529" 
d="M321 398l154 -1v-108h-154v-157h-114v157h-153v108h153v157h114v-156z" />
    <glyph glyph-name="comma" unicode="," horiz-adv-x="267" 
d="M63 152h141v-138l-86 -177h-55l66 163h-66v152z" />
    <glyph glyph-name="hyphen" unicode="-" horiz-adv-x="283" 
d="M39 316h205v-111h-205v111z" />
    <glyph glyph-name="hyphen" unicode="&#x2010;" horiz-adv-x="283" 
d="M39 316h205v-111h-205v111z" />
    <glyph glyph-name="hyphen" unicode="&#xad;" horiz-adv-x="283" 
d="M39 316h205v-111h-205v111z" />
    <glyph glyph-name="period" unicode="." horiz-adv-x="267" 
d="M63 152h141v-152h-141v152z" />
    <glyph glyph-name="slash" unicode="/" horiz-adv-x="545" 
d="M398 686h96l-419 -858h-95z" />
    <glyph glyph-name="zero" unicode="0" 
d="M263 697q98 0 154 -60q75 -81 75 -294t-75 -294q-56 -60 -154 -60q-97 0 -153 60q-75 81 -75 294t75 294q56 60 153 60zM263 587q-32 0 -48 -27q-22 -36 -22 -217q0 -183 22 -217q17 -26 48 -26q32 0 48 26q23 35 23 217q0 180 -22 217q-17 27 -49 27z" />
    <glyph glyph-name="one" unicode="1" 
d="M255 692h114v-580h114v-112h-380v112h116v404q-57 -56 -116 -85v134q90 48 152 127z" />
    <glyph glyph-name="two" unicode="2" 
d="M167 444l-137 28q8 91 60 152q61 73 167 73q93 0 149 -48q65 -57 65 -156t-86 -196q-62 -70 -202 -163h296l-10 -134h-439v134q116 98 195 182q26 28 42 48t30.5 53t14.5 66q0 42 -13 63q-17 28 -50 28q-38 0 -58 -33q-16 -26 -24 -97z" />
    <glyph glyph-name="three" unicode="3" 
d="M164 496l-132 24q16 65 59 110q63 67 168 67q77 0 129 -35q73 -50 73 -147q0 -63 -33 -105q-26 -33 -69 -50q49 -12 82 -54t33 -107q0 -101 -61 -156q-60 -54 -159 -54q-112 0 -178 66q-47 50 -59 137l133 23q2 -39 19 -66q23 -36 70 -36q39 0 60 25q20 23 20 63
q0 49 -21 72q-25 27 -84 27h-42v111h50q51 0 73 28q16 21 16 67q0 29 -16 50q-18 24 -54 24q-37 0 -57 -29q-10 -12 -20 -55z" />
    <glyph glyph-name="four" unicode="4" 
d="M259 697h165v-419h76v-116h-76v-162h-151v162h-247v116zM285 270v283l-152 -283h152z" />
    <glyph glyph-name="five" unicode="5" 
d="M90 686h366l-15 -134h-242l-9 -155q40 59 119 59q72 0 122 -48q61 -59 61 -177t-65 -182q-62 -60 -165 -60q-109 0 -172 69q-48 53 -55 125l137 23q0 -3 1.5 -13t8 -27.5t16.5 -28.5q22 -24 63 -24q43 0 65 30q20 28 20 78q0 51 -20 79q-24 33 -70 33q-32 0 -53 -20
q-14 -14 -19 -34l-119 24z" />
    <glyph glyph-name="six" unicode="6" 
d="M494 514l-123 -37q-3 47 -24 76q-25 34 -66 34q-38 0 -61 -41q-19 -34 -24 -108q-3 -37 -3 -83q14 29 37 48q37 29 89 29q54 0 97 -30q81 -57 81 -189q0 -112 -68 -172q-61 -52 -144 -52q-101 0 -159 65q-72 80 -72 284q0 54 3 93.5t19.5 93.5t46.5 92q64 80 167 80
q89 0 145 -59q45 -48 59 -124zM280 322q-41 0 -62 -29q-18 -25 -18 -82q0 -64 22 -88q20 -23 57 -23q36 0 55 30q17 26 17 87q0 59 -21 83q-19 22 -50 22z" />
    <glyph glyph-name="seven" unicode="7" 
d="M71 686h408v-116q-78 -101 -118 -228q-44 -138 -49 -342h-164q3 205 92 384q49 99 109 168h-290z" />
    <glyph glyph-name="eight" unicode="8" 
d="M389 374q35 -15 63 -50q44 -55 44 -120q0 -93 -58 -151q-63 -64 -182 -64q-110 0 -169 53q-56 50 -56 131q0 70 42 116q24 27 69 49q-29 19 -53 47q-39 47 -39 116q0 38 15.5 76t39.5 62q57 58 164 58q95 0 146 -40q29 -22 46 -58t17 -73q0 -60 -30 -101q-21 -29 -59 -51
zM299 419q26 26 37 47t11 51q0 39 -21 60q-22 22 -56 22q-35 0 -58 -23q-20 -20 -20 -56q0 -22 9 -34.5t27 -25.5q32 -25 71 -41zM230 289q-27 -15 -45 -37q-21 -26 -21 -65q0 -44 27 -69q27 -24 67 -24q46 0 72 24q24 22 24 56q0 69 -124 115z" />
    <glyph glyph-name="nine" unicode="9" 
d="M44 157l132 25q2 -33 19 -56q19 -26 53 -26q31 0 52 23q21 24 28.5 82.5t3.5 110.5q-15 -27 -40 -43q-31 -19 -76 -19q-68 0 -116 41q-32 28 -51 73.5t-19 98.5q0 122 73 184q54 46 143 46q87 0 141 -48q39 -35 59.5 -96t23.5 -102.5t3 -102.5q0 -211 -76 -294
q-61 -65 -157 -65q-85 0 -135 48q-43 40 -61 120zM249 587q-36 0 -57 -32q-17 -26 -17 -84q0 -47 21 -72q19 -23 53 -23q45 0 64 34q14 23 14 73q0 54 -24 81q-20 23 -54 23z" />
    <glyph glyph-name="colon" unicode=":" horiz-adv-x="267" 
d="M63 152h141v-152h-141v152zM63 508h141v-153l-141 1v152z" />
    <glyph glyph-name="semicolon" unicode=";" horiz-adv-x="267" 
d="M63 152h141v-138l-86 -177h-55l66 163h-66v152zM63 508h141v-153l-141 1v152z" />
    <glyph glyph-name="semicolon" unicode="&#x37e;" horiz-adv-x="267" 
d="M63 152h141v-138l-86 -177h-55l66 163h-66v152zM63 508h141v-153l-141 1v152z" />
    <glyph glyph-name="less" unicode="&#x3c;" 
d="M486 641v-152l-283 -146l282 -147v-151l-444 234v129z" />
    <glyph glyph-name="equal" unicode="=" horiz-adv-x="529" 
d="M475 373l-421 -1v109h421v-108zM475 205h-421v109h421v-109z" />
    <glyph glyph-name="greater" unicode="&#x3e;" 
d="M41 45v152l283 146l-282 147l-1 151l445 -234v-129z" />
    <glyph glyph-name="question" unicode="?" horiz-adv-x="494" 
d="M160 450l-130 18q6 125 78 186q52 43 133 43q89 0 139 -44q27 -23 45.5 -63t18.5 -82q0 -81 -49 -142q-13 -16 -36 -35.5t-45 -42.5q-17 -19 -23 -36t-4 -56h-121q0 79 4 100q8 36 40 70q6 6 15.5 14.5t15 14t12.5 14t13 17.5q25 37 25 79q0 35 -16 52q-16 16 -43 16
q-31 0 -51 -25q-5 -7 -8.5 -15t-5.5 -14.5t-3.5 -17.5t-1.5 -16t-1 -18.5t-1 -16.5zM160 146h134v-146h-134v146z" />
    <glyph glyph-name="at" unicode="@" horiz-adv-x="650" 
d="M408 522h70l-29 -209q-5 -35 -5 -50v-13q0 -33 19 -33q23 0 45 28q38 53 38 137q0 147 -73 208q-50 43 -138 43q-96 0 -160 -76q-67 -78 -67 -220t83 -222q63 -59 161 -59q96 0 179 55l27 -67q-94 -64 -213 -64q-55 0 -111 18.5t-96 51.5q-52 43 -85.5 116t-33.5 164
q0 82 24.5 158t74.5 128q89 93 213 93q122 0 196 -60q46 -37 75 -103t29 -145q0 -132 -71 -209q-49 -53 -114 -53q-27 0 -46 18q-17 17 -23 40q-31 -59 -88 -59q-43 0 -73 40q-34 46 -34 131q0 54 17.5 107t50.5 81q38 32 75 32q24 0 46 -13t31 -39zM334 436q-22 0 -38 -27
q-20 -33 -20 -104q0 -35 10 -55q10 -19 30 -19q22 0 35 26q17 36 17 109q0 38 -11 56q-9 14 -23 14z" />
    <glyph glyph-name="A" unicode="A" horiz-adv-x="524" 
d="M184 686h152l196 -686h-154l-34 142h-193l-33 -142h-139zM316 260l-69 279l-66 -279h135z" />
    <glyph glyph-name="B" unicode="B" horiz-adv-x="586" 
d="M66 686h256q93 0 141 -32q66 -46 66 -145q0 -67 -33 -108q-29 -32 -65 -43q42 -11 73 -46q43 -49 43 -123q0 -37 -15 -75.5t-39 -62.5q-52 -51 -163 -51h-264v686zM216 410h49q57 0 82 18q28 20 28 65q0 43 -27 64q-23 17 -72 17h-60v-164zM216 112h74q59 0 80 21
q23 23 23 73q0 55 -31 76q-22 16 -72 16h-74v-186z" />
    <glyph glyph-name="C" unicode="C" horiz-adv-x="563" 
d="M399 250l140 -9q-8 -110 -70 -180q-64 -72 -168 -72t-169 65q-91 91 -91 287q0 88 23 169t74 128q63 59 165 59q94 0 154 -56q76 -70 79 -210l-137 -11q-4 91 -35 125q-27 28 -64 28q-35 0 -59 -29q-40 -48 -40 -210q0 -136 31 -183q25 -38 71 -38q41 0 65 35
q26 36 31 102z" />
    <glyph glyph-name="D" unicode="D" horiz-adv-x="581" 
d="M66 686h163q175 0 247 -85q35 -41 52.5 -114t17.5 -141q0 -63 -17.5 -136t-52.5 -119q-24 -31 -53.5 -51t-63.5 -28t-56.5 -10t-56.5 -2h-180v686zM216 568v-450h26q26 0 42.5 2.5t39.5 18.5t37 47q25 52 25 161q0 104 -24 154q-11 23 -25 37.5t-32 20.5t-31 7.5t-32 1.5
h-26z" />
    <glyph glyph-name="E" unicode="E" horiz-adv-x="493" 
d="M66 686h418v-118h-268v-159h208v-118h-208v-173h268v-118h-418v686z" />
    <glyph glyph-name="F" unicode="F" horiz-adv-x="457" 
d="M66 686h407v-118h-257v-179h198v-118h-198v-271h-150v686z" />
    <glyph glyph-name="G" unicode="G" horiz-adv-x="599" 
d="M308 366h238v-366h-64l-19 78q-18 -30 -51 -54q-50 -35 -107 -35q-102 0 -166 59q-49 44 -73.5 121.5t-24.5 164.5q0 107 29 186.5t80 122.5q63 54 158 54q94 0 150 -43q72 -55 88 -192l-136 -23q-5 74 -36 107q-24 27 -60 27q-34 0 -60 -21q-53 -45 -53 -216
q0 -149 45 -194q29 -29 73 -29q42 0 66 31q23 29 25 104h-102v118z" />
    <glyph glyph-name="H" unicode="H" horiz-adv-x="597" 
d="M66 686h150v-276h165v276h150v-686h-150v282h-165v-282h-150v686z" />
    <glyph glyph-name="I" unicode="I" horiz-adv-x="282" 
d="M66 686h150v-686h-150v686z" />
    <glyph glyph-name="J" unicode="J" horiz-adv-x="334" 
d="M121 686h150v-478q0 -72 -13.5 -118t-52.5 -72q-42 -29 -119 -29q-27 0 -91 11v125q45 -5 56 -5q31 0 43 7q28 16 28 84z" />
    <glyph glyph-name="K" unicode="K" horiz-adv-x="543" 
d="M66 686h150v-286l166 286h153l-172 -252l186 -434h-156l-120 316l-57 -83v-233h-150v686z" />
    <glyph glyph-name="L" unicode="L" horiz-adv-x="439" 
d="M66 686h150v-558h221v-128h-371v686z" />
    <glyph glyph-name="M" unicode="M" horiz-adv-x="772" 
d="M66 686h220l98 -424l110 424h212v-686h-140v574l-140 -574h-110l-128 574v-574h-122v686z" />
    <glyph glyph-name="N" unicode="N" horiz-adv-x="580" 
d="M60 686h166l178 -426v426h116v-686h-134l-210 496v-496h-116v686z" />
    <glyph glyph-name="O" unicode="O" horiz-adv-x="582" 
d="M291 697q102 0 167 -67q83 -87 83 -287q0 -175 -64.5 -264.5t-185.5 -89.5q-102 0 -167 67q-83 85 -83 287t83 287q65 67 167 67zM291 573q-41 0 -64 -38q-26 -44 -26 -192q0 -151 26 -193q23 -37 64 -37q42 0 65 37q25 42 25 193t-25 192q-22 38 -65 38z" />
    <glyph glyph-name="P" unicode="P" horiz-adv-x="525" 
d="M66 686h226q117 0 171 -53q54 -54 54 -161q0 -95 -36 -144q-53 -74 -192 -74h-73v-254h-150v686zM216 575v-203h48q39 0 59 12q38 23 38 87q0 72 -39 93q-16 11 -58 11h-48z" />
    <glyph glyph-name="Q" unicode="Q" horiz-adv-x="582" 
d="M515 -24v-109q-28 -8 -59 -8q-37 0 -65 10t-41.5 23.5t-22 31t-10 27t-1.5 17.5q0 16 -1 22q-118 -10 -192 66q-82 85 -82 287t82 287q63 67 168 67t168 -67q82 -86 82 -287q0 -197 -83 -287q-19 -21 -44 -36q-3 -51 49 -51q27 0 52 7zM291 573q-41 0 -64 -38
q-26 -44 -26 -192q0 -151 26 -193q23 -37 64 -37q42 0 65 37q25 42 25 193t-25 192q-22 38 -65 38z" />
    <glyph glyph-name="R" unicode="R" horiz-adv-x="562" 
d="M66 686h241q108 0 162 -59q51 -56 51 -148q0 -69 -32 -120q-25 -40 -66 -59l126 -300h-165l-91 270h-75v-270h-151v686zM217 574v-192h66q53 0 75 36q14 23 14 60q0 43 -19 68q-22 28 -74 28h-62z" />
    <glyph glyph-name="S" unicode="S" 
d="M484 537l-124 -48q-11 36 -30 56q-26 28 -68 28q-25 0 -45 -13q-26 -17 -26 -51q0 -29 31 -50q23 -16 87 -40q86 -32 121 -62q68 -58 68 -149q0 -101 -73 -163q-66 -56 -170 -56q-113 0 -179 73q-42 45 -59 115l131 39q8 -40 28 -64q30 -39 85 -39q38 0 58 16
q27 21 27 55q0 33 -24 54q-16 14 -71 34q-99 35 -142 71q-64 54 -64 142q0 97 62 157q58 55 155 55q99 0 155 -47q52 -43 67 -113z" />
    <glyph glyph-name="T" unicode="T" horiz-adv-x="403" 
d="M-13 686h429v-128h-141v-558h-150v558h-138v128z" />
    <glyph glyph-name="U" unicode="U" horiz-adv-x="597" 
d="M66 686h150v-392v-26v-26t0.5 -22.5t1.5 -22.5t3.5 -18.5t6 -18t8.5 -14.5q25 -33 79 -33q40 0 62 22q28 28 28 100v451h126v-453q0 -147 -83 -205q-55 -39 -146 -39q-95 0 -147 33q-53 34 -71 95t-18 159v410z" />
    <glyph glyph-name="V" unicode="V" horiz-adv-x="473" 
d="M-15 686h160l104 -522l109 522h130l-168 -686h-170z" />
    <glyph glyph-name="W" unicode="W" horiz-adv-x="735" 
d="M-6 686h154l72 -475l90 475h138l85 -476l84 476h126l-147 -690h-136l-90 477l-93 -477h-134z" />
    <glyph glyph-name="X" unicode="X" horiz-adv-x="493" 
d="M5 686h168l82 -178l86 178h144l-162 -310l186 -376h-168l-100 224l-113 -224h-144l189 352z" />
    <glyph glyph-name="Y" unicode="Y" horiz-adv-x="456" 
d="M-29 686h166l97 -251l103 251h148l-192 -396v-290h-150v290z" />
    <glyph glyph-name="Z" unicode="Z" horiz-adv-x="473" 
d="M22 686h440v-107l-285 -455h295v-124h-471v105l288 457h-267v124z" />
    <glyph glyph-name="bracketleft" unicode="[" horiz-adv-x="354" 
d="M77 686h212v-65h-86v-729h86v-64h-212v858z" />
    <glyph glyph-name="backslash" unicode="\" horiz-adv-x="545" 
d="M146 686l419 -858h-95l-419 858h95z" />
    <glyph glyph-name="bracketright" unicode="]" horiz-adv-x="354" 
d="M277 -172h-212v64h86v729h-86v65h212v-858z" />
    <glyph glyph-name="asciicircum" unicode="^" horiz-adv-x="515" 
d="M152 361h-136l157 329h170l156 -329h-136l-105 225z" />
    <glyph glyph-name="underscore" unicode="_" horiz-adv-x="515" 
d="M0 -59h515v-91h-515v91z" />
    <glyph glyph-name="grave" unicode="`" horiz-adv-x="479" 
d="M330 608l-42 -43l-186 117l56 84z" />
    <glyph glyph-name="a" unicode="a" horiz-adv-x="495" 
d="M189 348l-135 13q9 63 48 102q55 57 160 57q73 0 119 -31q21 -14 34 -31t18.5 -41.5t6.5 -44t1 -56.5v-203q0 -84 9 -113h-132q-11 41 -7 78q-14 -30 -38 -52q-40 -37 -101 -37q-59 0 -95 35q-40 38 -40 105q0 62 32 106q34 44 103 62q41 12 127 19v41q0 35 -13 52
q-14 17 -40 17q-30 0 -45 -26q-7 -13 -12 -52zM299 218v26l-19 -3q-65 -11 -84 -43q-13 -22 -13 -54q0 -24 12 -41q15 -20 37 -20q38 0 54 44q13 35 13 91z" />
    <glyph glyph-name="b" unicode="b" horiz-adv-x="495" 
d="M53 689h142v-228q15 24 33 36q33 23 78 23q50 0 91 -39q67 -64 67 -216q0 -150 -58 -220q-47 -55 -124 -55q-46 0 -77 24q-27 21 -39 53q-18 -34 -27 -67h-86v689zM195 345v-165q0 -52 16 -75q15 -21 42 -21q34 0 49 32q16 34 16 145q0 114 -20 142q-15 23 -43 23
q-26 0 -43 -21q-17 -22 -17 -60z" />
    <glyph glyph-name="c" unicode="c" horiz-adv-x="460" 
d="M435 322l-133 -5q-3 50 -15 68q-15 23 -42 23q-32 0 -49 -30q-19 -33 -19 -124q0 -84 21 -123q17 -29 46 -29q27 0 41 21t17 76l133 -8q-6 -91 -52 -142q-53 -59 -145 -59q-90 0 -145 57q-62 65 -62 206t64 208q56 59 151 59q85 0 134 -53q53 -56 55 -145z" />
    <glyph glyph-name="d" unicode="d" horiz-adv-x="496" 
d="M301 689h142v-689h-134v85q-12 -43 -43 -68q-29 -24 -70 -24q-67 0 -107 45q-58 66 -58 214q0 164 72 229q41 36 96 36q35 0 61 -14q25 -13 41 -41v227zM301 206v126q0 37 -17 65q-16 26 -44 26q-32 0 -47 -29q-16 -30 -16 -132v-21q0 -94 18 -128q16 -26 44 -26
q27 0 43 22q19 26 19 97z" />
    <glyph glyph-name="e" unicode="e" horiz-adv-x="476" 
d="M445 231h-268q-2 -91 15 -119t55 -28q33 0 52 24q16 20 19 67l127 -8q-14 -75 -54 -118q-54 -59 -150 -59q-90 0 -144 55q-66 67 -66 205q0 140 64 210q56 60 146 60q111 0 166 -93q45 -76 38 -196zM178 313h133q1 61 -18 88q-20 25 -49 25q-32 0 -50 -29
q-13 -21 -16 -84z" />
    <glyph glyph-name="f" unicode="f" horiz-adv-x="306" 
d="M219 510h91v-112h-91v-398h-142v398h-58v112h58v22q0 34 2.5 55.5t15.5 49t38 47.5q41 32 118 32q33 0 65 -6v-108q-1 0 -14 1t-22 1q-35 0 -49 -19q-12 -17 -12 -63v-12z" />
    <glyph glyph-name="g" unicode="g" horiz-adv-x="475" 
d="M486 593v-92q-12 4 -32 4q-28 0 -41 -18q-9 -12 -12 -28q37 -37 37 -98q0 -70 -45 -112q-48 -44 -138 -44q-29 0 -67 9q-12 -6 -19 -13q-14 -12 -14 -27q0 -11 5 -18t16.5 -10.5t19.5 -4.5t23 -2q67 -2 115 -8q82 -10 114 -46q31 -35 31 -93q0 -72 -46 -115
q-61 -56 -203 -56q-117 0 -165 36q-43 32 -43 82q0 40 26 66q21 21 56 31q-65 29 -65 83q0 49 36 83q15 15 51 35q-75 30 -75 128q0 66 43 107q50 48 148 48q62 0 108 -23q3 55 32 82q21 19 60 19q22 0 44 -5zM249 444q-26 0 -39 -19q-13 -18 -13 -66q0 -49 17 -66
q13 -13 33 -13q26 0 37 23q8 18 8 58q0 46 -12 66q-11 17 -31 17zM183 23q-19 -11 -28 -21q-16 -17 -16 -41q0 -26 26 -39t84 -13q56 0 79 10q28 13 28 45q0 26 -19 39q-15 10 -92 14q-35 1 -62 6z" />
    <glyph glyph-name="h" unicode="h" horiz-adv-x="495" 
d="M53 689h142v-233q20 26 36 38q35 26 90 26q59 0 91 -33q18 -19 27 -51t9.5 -48.5t0.5 -60.5v-327h-142v327q0 50 -8 62q-13 19 -43 19t-45 -17q-16 -17 -16 -59v-332h-142v689z" />
    <glyph glyph-name="i" unicode="i" horiz-adv-x="249" 
d="M53 510h142v-510h-142v510zM197 552h-145v141h145v-141z" />
    <glyph glyph-name="j" unicode="j" horiz-adv-x="246" 
d="M57 510h142v-513q0 -107 -32 -145q-33 -38 -100 -38q-38 0 -76 7v116q8 -1 17 -1q33 0 42 17q7 12 7 45v512zM198 552h-142v141h142v-141z" />
    <glyph glyph-name="k" unicode="k" horiz-adv-x="477" 
d="M53 689h142v-376l144 197h129l-128 -172l141 -338h-153l-81 237l-52 -73v-164h-142v689z" />
    <glyph glyph-name="l" unicode="l" horiz-adv-x="248" 
d="M53 689h142v-689h-142v689z" />
    <glyph glyph-name="m" unicode="m" horiz-adv-x="725" 
d="M53 510h135v-70q16 32 36 50q34 30 83 30q56 0 85 -27q21 -19 29 -53q9 27 35 49q36 31 91 31q60 0 91 -27q41 -36 41 -122v-371h-142v347q0 31 -7 43q-10 18 -39 18t-43 -22q-11 -17 -11 -58v-328h-142v358q0 26 -9 36q-10 14 -35 14q-29 0 -42 -18q-14 -18 -14 -67
v-323h-142v510z" />
    <glyph glyph-name="n" unicode="n" horiz-adv-x="495" 
d="M53 510h135v-70q14 35 42 55q33 25 86 25q58 0 92 -31q19 -18 28.5 -43t11 -42.5t1.5 -50.5v-353h-142v348q0 34 -13 47t-37 13q-32 0 -48 -20q-14 -20 -14 -61v-327h-142v510z" />
    <glyph glyph-name="o" unicode="o" horiz-adv-x="474" 
d="M237 520q92 0 143 -54q63 -67 63 -211t-63 -211q-51 -54 -143 -54t-143 54q-63 67 -63 211t63 211q51 54 143 54zM237 420q-24 0 -40 -21q-20 -27 -20 -144t20 -144q16 -21 40 -21t40 21q20 27 20 144t-20 144q-16 21 -40 21z" />
    <glyph glyph-name="p" unicode="p" horiz-adv-x="497" 
d="M53 510h134v-77q14 40 44 61q31 23 75 23q54 0 92 -35q68 -61 68 -216q0 -161 -60 -225q-44 -48 -114 -48q-32 0 -61 15q-20 10 -36 29v-209h-142v682zM195 324v-152q0 -49 17 -69q14 -16 43 -16q30 0 45 23q20 31 20 153q0 108 -20 137q-16 23 -40 23q-36 0 -53 -33
q-12 -23 -12 -66z" />
    <glyph glyph-name="q" unicode="q" horiz-adv-x="496" 
d="M362 510h81q-5 -54 -5 -130v-552h-142v225q-14 -23 -36 -39q-31 -21 -65 -21q-54 0 -95 38q-69 66 -69 225q0 147 62 215q43 46 105 46q51 0 84 -26q19 -15 42 -47q25 31 38 66zM296 231v76q0 74 -19 98q-16 18 -36 18q-34 0 -49 -26t-15 -152q0 -99 13 -127
q13 -31 47 -31q30 0 45 28q14 28 14 116z" />
    <glyph glyph-name="r" unicode="r" horiz-adv-x="317" 
d="M53 510h125v-123q15 60 44 93q33 37 80 37q10 0 21 -3v-139q-55 10 -90 -23q-17 -16 -26 -40.5t-10.5 -43t-1.5 -49.5v-219h-142v510z" />
    <glyph glyph-name="s" unicode="s" horiz-adv-x="423" 
d="M389 387l-101 -30q-5 24 -22 44q-21 25 -51 25q-22 0 -34 -12t-12 -31q0 -28 22 -44q13 -9 63 -27q79 -28 104 -50q46 -41 46 -104q0 -66 -40 -111q-53 -58 -153 -58q-96 0 -144 48q-37 36 -47 104l113 18q6 -30 22 -49q23 -27 60 -27q28 0 42 14q13 13 13 34
q0 25 -22 42q-17 13 -59 25q-71 21 -107 54q-46 42 -46 110q0 67 48 111q51 47 132 47q76 0 123 -44q37 -36 50 -89z" />
    <glyph glyph-name="t" unicode="t" horiz-adv-x="322" 
d="M93 660l123 11v-161h95v-112h-95v-223q0 -33 8 -46q13 -23 53 -23q25 0 41 2v-108q-56 -11 -87 -11q-76 0 -115 35q-42 38 -42 127v247h-57v112h64z" />
    <glyph glyph-name="u" unicode="u" horiz-adv-x="495" 
d="M46 510h142v-355q0 -25 9 -38q12 -17 42 -17q29 0 43 18q18 22 18 94v298h142v-510h-134v70q-17 -34 -40 -53q-33 -28 -86 -28q-59 0 -92 25q-44 34 -44 113v383z" />
    <glyph glyph-name="v" unicode="v" horiz-adv-x="369" 
d="M-11 510h137l70 -301l71 301h118l-140 -510h-112z" />
    <glyph glyph-name="w" unicode="w" horiz-adv-x="599" 
d="M-9 510h139l60 -310l57 310h138l46 -310l69 310h112l-128 -510h-119l-66 346l-64 -346h-115z" />
    <glyph glyph-name="x" unicode="x" horiz-adv-x="385" 
d="M-6 510h154l54 -118l66 118h124l-132 -226l151 -284h-154l-74 153l-85 -153h-124l151 261z" />
    <glyph glyph-name="y" unicode="y" horiz-adv-x="383" 
d="M-14 510h150l69 -312l66 312h129l-154 -518q-29 -96 -56 -130q-39 -48 -106 -48q-39 0 -69 10v116q17 -4 43 -4q43 0 62 24q12 14 17 38z" />
    <glyph glyph-name="z" unicode="z" horiz-adv-x="370" 
d="M38 510h318v-92l-189 -318h194v-100h-340v101l186 309h-169v100z" />
    <glyph glyph-name="braceleft" unicode="{" horiz-adv-x="353" 
d="M276 685v-68q-34 2 -45 -13q-11 -14 -11 -52v-135q0 -99 -13 -121q-14 -23 -48 -32q34 -9 48 -32q13 -21 13 -121v-126v-8q0 -18 0.5 -26.5t3 -21.5t8 -19t17 -10t27.5 -3v-68q-104 -5 -134 14q-22 14 -33.5 45.5t-12 48t-0.5 48.5v131q0 6 0.5 22.5t0 25.5t-2 21.5
t-6 20t-11.5 11.5q-8 4 -32 4v85q21 1 31.5 6t16.5 20q3 9 3 36v161q0 32 0.5 48.5t12 48t33.5 45.5q30 19 134 14z" />
    <glyph glyph-name="bar" unicode="|" horiz-adv-x="535" 
d="M229 744l77 -1v-817h-77v818z" />
    <glyph glyph-name="braceright" unicode="}" horiz-adv-x="353" 
d="M77 -171v68q17 -1 28 3t17 9t8.5 19.5t3 24t0.5 32.5v126v28v27t1 22.5t3.5 22l6.5 17.5t10.5 16t16.5 11t23 9q-13 3 -23 9t-16.5 11t-10.5 16t-6.5 17t-3.5 22t-1 23v27v28v112q0 24 -0.5 34t-3 24t-8.5 19t-17 8.5t-28 2.5v68q134 7 165 -41q16 -25 16 -99v-16v-116
q0 -10 -0.5 -28.5t0 -24.5l1.5 -18t4 -15.5t9 -9.5t14.5 -8t21.5 -3v-85q-11 1 -19 -1t-13.5 -4.5t-9 -9.5t-5.5 -11.5t-2.5 -15.5t-1 -18t0 -22t0.5 -23v-131q0 -78 -9 -101q-19 -50 -108 -55q-27 -2 -64 0z" />
    <glyph glyph-name="asciitilde" unicode="~" horiz-adv-x="699" 
d="M179 194l-82 43q20 49 47 83q41 50 107 50q34 0 107 -27l35 -13q34 -12 56 -12q45 0 73 54l82 -43q-23 -47 -44 -70q-47 -53 -117 -53q-23 0 -59 12l-43 15q-69 24 -86 24q-28 0 -45 -16t-31 -47z" />
    <glyph glyph-name="exclamdown" unicode="&#xa1;" horiz-adv-x="354" 
d="M267 -178h-180l44 481h92zM247 355h-141v153h141v-153z" />
    <glyph glyph-name="cent" unicode="&#xa2;" 
d="M236 690h73v-93q51 -5 89 -40q56 -53 60 -143l-118 -8q-3 42 -13 60q-17 32 -55 32q-31 0 -46 -33q-15 -30 -15 -113q0 -89 18 -119q16 -26 49 -26q30 0 48 30q10 17 14 60l118 -11q-8 -88 -57 -138q-37 -39 -92 -46v-109h-73v109q-44 6 -76 27q-36 24 -63 76.5
t-27 139.5q0 160 86 223q37 28 80 29v93z" />
    <glyph glyph-name="sterling" unicode="&#xa3;" 
d="M280 419h115v-104h-101q9 -89 -27 -145q-17 -28 -49 -53h76q69 0 101 25q35 27 47 78l111 -42q-7 -51 -34.5 -92.5t-63.5 -60.5q-45 -25 -161 -25h-284v117h51q39 0 58 13q38 27 38 132q0 39 -2 53h-79v104h61q-6 40 -6 78q0 97 49 148q50 52 138 52q80 0 125 -40
q36 -34 49 -91l-109 -51q-5 25 -17 43q-18 29 -47 29q-24 0 -36 -19q-10 -15 -10 -60q0 -20 3 -45t4 -44z" />
    <glyph glyph-name="currency" unicode="&#xa4;" 
d="M348 511l67 66l72 -72l-66 -67q21 -35 21 -84q0 -52 -20 -84l66 -66l-75 -76l-67 67q-46 -21 -82 -21q-34 0 -86 22l-66 -67l-72 73l66 67q-21 29 -21 85q0 49 20 82l-66 67l74 75l68 -66q43 20 83 20q38 0 84 -21zM263 273q29 0 54.5 22t25.5 59q0 36 -25 57.5t-54 21.5
t-54.5 -21.5t-25.5 -57.5q0 -37 25 -59t54 -22z" />
    <glyph glyph-name="yen" unicode="&#xa5;" 
d="M25 686h146l103 -279l110 279h118l-114 -268h103v-74h-135l-25 -63h160v-74h-160v-207h-137v207h-153v74h153l-25 63h-128v74h97z" />
    <glyph glyph-name="brokenbar" unicode="&#xa6;" horiz-adv-x="521" 
d="M184 686h153v-362h-153v362zM184 158h153v-330h-153v330z" />
    <glyph glyph-name="section" unicode="&#xa7;" horiz-adv-x="528" 
d="M473 567l-105 -31q-5 25 -21 43q-22 24 -61 24q-29 0 -46 -17q-16 -16 -16 -39q0 -29 20 -45q11 -10 79 -41q79 -36 104 -65q39 -42 39 -110q0 -79 -69 -134q74 -49 74 -146q0 -74 -46 -121q-55 -57 -151 -57q-118 0 -172 59q-31 34 -47 97l118 20q5 -39 30 -59
q22 -19 59 -19q44 0 63 18q19 17 19 52q0 25 -17 45q-16 19 -84 49q-4 2 -16.5 7t-17 7l-15.5 7t-16 8l-14 8t-15 9t-13 9.5l-13 10.5q-49 45 -49 114q0 92 78 139q-56 46 -56 115q0 78 48 125q48 48 141 48q87 0 139 -47q35 -32 49 -83zM237 357l-17 10q-29 -26 -29 -62
q0 -35 34 -59q16 -11 83 -43l17 -8q28 20 28 60q0 32 -30 56q-11 9 -40 22.5t-46 23.5z" />
    <glyph glyph-name="dieresis" unicode="&#xa8;" horiz-adv-x="479" 
d="M204 701v-118h-107v118h107zM380 701v-118h-107v118h107z" />
    <glyph glyph-name="copyright" unicode="&#xa9;" horiz-adv-x="804" 
d="M469 294l104 -6q0 -30 -14.5 -63t-33.5 -52q-44 -42 -114 -42t-114 39q-62 54 -62 167q0 128 66 183q42 35 111 35q65 0 105 -34q54 -46 54 -132l-103 -7q0 55 -20 76q-14 14 -38 14q-19 0 -33 -15q-25 -28 -25 -119q0 -79 19 -104q16 -20 41 -20q22 0 38 19q14 19 19 61
zM402 -12q-149 0 -254.5 104t-105.5 251t105.5 251.5t254.5 104.5q147 0 253.5 -105t106.5 -251q0 -147 -106 -251t-254 -104zM402 68q113 0 192 80t79 195t-79 195t-192 80t-192 -80t-79 -195t79 -195t192 -80z" />
    <glyph glyph-name="ordfeminine" unicode="&#xaa;" horiz-adv-x="531" 
d="M225 582l-100 9q4 41 34 69q38 37 111 37q65 0 99 -25q37 -27 37 -94v-153q0 -62 6 -75h-94q-7 23 -5 52q-12 -21 -27 -34q-28 -25 -73 -25t-71 23q-28 26 -28 72q0 41 23 70q23 30 72 42q32 8 69 11l23 2v21q0 22 -5 32q-10 18 -32 18q-37 0 -39 -52zM301 496v14l-10 -1
q-47 -5 -61 -28q-9 -15 -9 -35q0 -15 8 -25q8 -11 23 -11q28 0 40 26q9 20 9 60z" />
    <glyph glyph-name="guillemotleft" unicode="&#xab;" horiz-adv-x="457" 
d="M406 84l-74 -1l-106 181l106 179h74l-62 -179zM231 84l-75 -1l-105 181l105 179h75l-63 -179z" />
    <glyph glyph-name="logicalnot" unicode="&#xac;" horiz-adv-x="515" 
d="M331 0v165h-296v134h445v-299h-149z" />
    <glyph glyph-name="registered" unicode="&#xae;" horiz-adv-x="804" 
d="M255 549h172q22 0 49 -10t42 -25q34 -33 34 -91q0 -34 -16 -64t-45 -43l77 -179h-123l-52 159h-26v-159h-112v412zM367 473v-102h25q32 0 43 20q8 16 8 31q0 23 -11 36q-11 15 -44 15h-21zM402 -12q-149 0 -254.5 104t-105.5 251t105.5 251.5t254.5 104.5
q147 0 253.5 -105t106.5 -251q0 -147 -106 -251t-254 -104zM402 68q113 0 192 80t79 195t-79 195t-192 80t-192 -80t-79 -195t79 -195t192 -80z" />
    <glyph glyph-name="macron" unicode="&#xaf;" horiz-adv-x="479" 
d="M98 679h283v-75h-283v75z" />
    <glyph glyph-name="macron" unicode="&#x2c9;" horiz-adv-x="479" 
d="M98 679h283v-75h-283v75z" />
    <glyph glyph-name="degree" unicode="&#xb0;" horiz-adv-x="530" 
d="M265 697q68 0 116 -48t48 -116t-48 -116t-116 -48t-116 48t-48 116t48 116t116 48zM265 614q-30 0 -49 -21q-21 -23 -21 -60q0 -35 21 -58q20 -23 49 -23q30 0 50 23q21 25 21 58q0 35 -21 59q-19 22 -50 22z" />
    <glyph glyph-name="plusminus" unicode="&#xb1;" horiz-adv-x="529" 
d="M321 398l154 -1v-108h-154v-145h-114v145h-153v108h153v157h114v-156zM475 -12h-421v109h421v-109z" />
    <glyph glyph-name="twosuperior" unicode="&#xb2;" horiz-adv-x="358" 
d="M123 529l-105 18q2 17 6.5 33t15.5 37.5t26.5 36.5t43.5 26t63 11q42 0 72 -13t45 -33.5t21.5 -40.5t6.5 -41q0 -17 -4.5 -33.5t-9.5 -28.5t-19 -27l-21 -22.5t-28 -22.5t-28.5 -20t-33.5 -21t-32 -20h183l-9 -94h-296v89l34.5 26t37 29l32 27t31.5 29.5t22.5 27.5
t17.5 30.5t5 28.5q0 23 -7.5 33t-26.5 10q-17 0 -28 -14.5t-15 -60.5z" />
    <glyph glyph-name="threesuperior" unicode="&#xb3;" horiz-adv-x="358" 
d="M124 558l-101 17q35 116 151 116q70 0 106 -30t36 -75q0 -71 -67 -95q32 -7 54 -32t22 -62q0 -42 -18 -70.5t-46 -39.5t-47.5 -15t-37.5 -4q-46 0 -79 13.5t-49.5 36t-24 42t-9.5 40.5l102 15q4 -60 50 -60q20 0 31.5 12.5t11.5 33.5q0 15 -5 25t-9.5 14t-16 6.5
t-14.5 2.5h-14h-35v76h35q19 0 31 4t16.5 13t5.5 14.5t1 16.5q0 16 -9 25.5t-23 9.5q-39 0 -48 -50z" />
    <glyph glyph-name="acute" unicode="&#xb4;" horiz-adv-x="479" 
d="M191 608l172 158l56 -84l-186 -117z" />
    <glyph glyph-name="mu" unicode="&#xb5;" horiz-adv-x="495" 
d="M300 510h142v-510h-134v70q-5 -34 -18 -55q-16 -26 -46 -26t-46 26q-12 19 -18 55v-242h-134v682h142v-321q0 -51 13 -69q14 -20 43 -20t43 20q13 19 13 88v302z" />
    <glyph glyph-name="mu" unicode="&#x3bc;" horiz-adv-x="495" 
d="M300 510h142v-510h-134v70q-5 -34 -18 -55q-16 -26 -46 -26t-46 26q-12 19 -18 55v-242h-134v682h142v-321q0 -51 13 -69q14 -20 43 -20t43 20q13 19 13 88v302z" />
    <glyph glyph-name="paragraph" unicode="&#xb6;" horiz-adv-x="562" 
d="M481 686v-858h-80v777h-48v-777h-81v438h-36q-69 0 -111 13.5t-70 58.5q-33 52 -33 142q0 102 49 155q22 24 55 36t54 13.5t62 1.5h239z" />
    <glyph glyph-name="periodcentered" unicode="&#xb7;" horiz-adv-x="195" 
d="M44 390h107v-116h-107v116z" />
    <glyph glyph-name="periodcentered" unicode="&#x22c5;" horiz-adv-x="195" 
d="M44 390h107v-116h-107v116z" />
    <glyph glyph-name="periodcentered" unicode="&#x2219;" horiz-adv-x="195" 
d="M44 390h107v-116h-107v116z" />
    <glyph glyph-name="cedilla" unicode="&#xb8;" horiz-adv-x="480" 
d="M218 0h58l-20 -51q48 6 77 -19q25 -23 25 -60q0 -38 -25 -61q-27 -25 -81 -25t-109 36l16 42q44 -26 83 -26q18 0 26 8q10 7 10 22q0 21 -17 33q-16 12 -48 12q-15 0 -29 -3z" />
    <glyph glyph-name="onesuperior" unicode="&#xb9;" horiz-adv-x="357" 
d="M170 690l85 -1v-334h72v-81h-258v81h73v207q-18 -16 -73 -45v96q40 21 60 35.5t41 41.5z" />
    <glyph glyph-name="ordmasculine" unicode="&#xba;" horiz-adv-x="530" 
d="M265 697q68 0 105 -35q46 -43 46 -143q0 -95 -46 -141q-36 -35 -105 -35q-68 0 -104 35q-47 46 -47 141q0 100 47 143q37 35 104 35zM265 630q-20 0 -30 -18q-12 -21 -12 -93q0 -73 12 -93q10 -17 30 -17t30 17q12 20 12 93q0 74 -12 94q-10 17 -30 17z" />
    <glyph glyph-name="guillemotright" unicode="&#xbb;" horiz-adv-x="457" 
d="M51 444l74 -1l106 -179l-106 -181h-74l62 181zM226 444l75 -1l105 -179l-105 -181h-75l63 181z" />
    <glyph glyph-name="onequarter" unicode="&#xbc;" horiz-adv-x="824" 
d="M157 690l85 -1v-334h72v-81h-258v81h73v207q-18 -16 -73 -45v96q40 21 60 35.5t41 41.5zM530 686h89l-324 -686h-89zM625 417h118v-241h49v-83h-49v-93h-113v93h-158v78zM640 166v156l-91 -156h91z" />
    <glyph glyph-name="onehalf" unicode="&#xbd;" horiz-adv-x="827" 
d="M158 690l85 -1v-334h72v-81h-258v81h73v207q-18 -16 -73 -45v96q40 21 60 35.5t41 41.5zM531 686h89l-324 -686h-89zM575 255l-105 18q2 17 6.5 33t15.5 37.5t26.5 36.5t43.5 26t63 11q42 0 72 -13t45 -33.5t21.5 -40.5t6.5 -41q0 -17 -4.5 -33.5t-9.5 -28.5t-19 -27
l-21 -22.5t-28 -22.5t-28.5 -20t-33.5 -21t-32 -20h183l-9 -94h-296v89l34.5 26t37 29l32 27t31.5 29.5t22.5 27.5t17.5 30.5t5 28.5q0 23 -7.5 33t-26.5 10q-17 0 -28 -14.5t-15 -60.5z" />
    <glyph glyph-name="threequarters" unicode="&#xbe;" horiz-adv-x="825" 
d="M142 558l-101 17q35 116 151 116q70 0 106 -30t36 -75q0 -71 -67 -95q32 -7 54 -32t22 -62q0 -42 -18 -70.5t-46 -39.5t-47.5 -15t-37.5 -4q-46 0 -79 13.5t-49.5 36t-24 42t-9.5 40.5l102 15q4 -60 50 -60q20 0 31.5 12.5t11.5 33.5q0 15 -5 25t-9.5 14t-16 6.5
t-14.5 2.5h-14h-35v76h35q19 0 31 4t16.5 13t5.5 14.5t1 16.5q0 16 -9 25.5t-23 9.5q-39 0 -48 -50zM554 686h89l-324 -686h-89zM630 417h118v-241h49v-83h-49v-93h-113v93h-158v78zM645 166v156l-91 -156h91z" />
    <glyph glyph-name="questiondown" unicode="&#xbf;" horiz-adv-x="494" 
d="M333 60l131 -18q-5 -126 -78 -186q-52 -43 -133 -43q-89 0 -139 44q-27 23 -45.5 63t-18.5 82q0 81 49 142q13 16 36 35.5t45 42.5q17 19 23 36t4 56h121q0 -79 -4 -100q-8 -36 -40 -70q-6 -6 -15.5 -14.5t-15 -14t-12.5 -14t-13 -17.5q-25 -37 -25 -79q0 -35 16 -52
q16 -16 43 -16q31 0 51 25q22 28 20 98zM334 364h-134v146h134v-146z" />
    <glyph glyph-name="Agrave" unicode="&#xc0;" horiz-adv-x="524" 
d="M184 686h152l196 -686h-154l-34 142h-193l-33 -142h-139zM316 260l-69 279l-66 -279h135zM342 792l-30 -54l-215 67l34 99z" />
    <glyph glyph-name="Aacute" unicode="&#xc1;" horiz-adv-x="524" 
d="M184 686h152l196 -686h-154l-34 142h-193l-33 -142h-139zM316 260l-69 279l-66 -279h135zM199 792l212 112l33 -99l-215 -67z" />
    <glyph glyph-name="Acircumflex" unicode="&#xc2;" horiz-adv-x="524" 
d="M184 686h152l196 -686h-154l-34 142h-193l-33 -142h-139zM316 260l-69 279l-66 -279h135zM54 748l208 150l207 -150h-113l-94 49l-95 -49h-113z" />
    <glyph glyph-name="Atilde" unicode="&#xc3;" horiz-adv-x="524" 
d="M184 686h152l196 -686h-154l-34 142h-193l-33 -142h-139zM316 260l-69 279l-66 -279h135zM389 859l47 -34q-15 -28 -42 -49q-39 -30 -76 -30q-32 0 -78 21q-34 17 -53 17t-32 -11q-6 -5 -22 -21l-46 34q17 27 42 47q34 26 77 26q27 0 67 -17q49 -20 64 -20q26 0 52 37z
" />
    <glyph glyph-name="Adieresis" unicode="&#xc4;" horiz-adv-x="524" 
d="M184 686h152l196 -686h-154l-34 142h-193l-33 -142h-139zM316 260l-69 279l-66 -279h135zM225 865v-118h-107v118h107zM406 865v-118h-107v118h107z" />
    <glyph glyph-name="Aring" unicode="&#xc5;" horiz-adv-x="524" 
d="M184 686h152l196 -686h-154l-34 142h-193l-33 -142h-139zM316 260l-69 279l-66 -279h135zM261 730q-41 0 -71 30q-28 28 -28 70q0 46 29 73t71 27t71 -29q28 -27 28 -71q0 -42 -28 -70q-30 -30 -72 -30zM261 788q19 0 29 12q11 11 11 30q0 16 -10 28q-11 14 -29 14
t-29 -12q-11 -11 -11 -30t14 -32q11 -10 25 -10z" />
    <glyph glyph-name="AE" unicode="&#xc6;" horiz-adv-x="702" 
d="M228 686h465v-118h-254v-159h200v-118h-200v-168h254v-123h-399v159h-150l-55 -159h-131zM297 270v315l-115 -315h115z" />
    <glyph glyph-name="Ccedilla" unicode="&#xc7;" horiz-adv-x="563" 
d="M399 250l140 -9q-8 -110 -70 -180q-58 -65 -138 -70l-16 -44q56 7 84 -25q21 -24 21 -57q0 -37 -27 -61q-29 -25 -78 -25q-61 0 -117 37l18 45q18 -12 39 -18q26 -8 45 -8q16 0 24 8t8 20q0 21 -16 32q-13 9 -38 11h-38l31 85q-82 6 -139 63q-91 91 -91 287q0 88 23 169
t74 128q63 59 165 59q94 0 154 -56q76 -70 79 -210l-137 -11q-4 91 -35 125q-27 28 -64 28q-35 0 -59 -29q-40 -48 -40 -210q0 -136 31 -183q25 -38 71 -38q41 0 65 35q26 36 31 102z" />
    <glyph glyph-name="Egrave" unicode="&#xc8;" horiz-adv-x="493" 
d="M66 686h418v-118h-268v-159h208v-118h-208v-173h268v-118h-418v686zM368 790l-30 -54l-215 67l34 99z" />
    <glyph glyph-name="Eacute" unicode="&#xc9;" horiz-adv-x="493" 
d="M66 686h418v-118h-268v-159h208v-118h-208v-173h268v-118h-418v686zM174 793l212 112l33 -99l-215 -67z" />
    <glyph glyph-name="Ecircumflex" unicode="&#xca;" horiz-adv-x="493" 
d="M66 686h418v-118h-268v-159h208v-118h-208v-173h268v-118h-418v686zM74 748l208 150l207 -150h-113l-94 49l-95 -49h-113z" />
    <glyph glyph-name="Edieresis" unicode="&#xcb;" horiz-adv-x="493" 
d="M66 686h418v-118h-268v-159h208v-118h-208v-173h268v-118h-418v686zM243 865v-118h-107v118h107zM424 865v-118h-107v118h107z" />
    <glyph glyph-name="Igrave" unicode="&#xcc;" horiz-adv-x="282" 
d="M66 686h150v-686h-150v686zM222 792l-30 -54l-215 67l34 99z" />
    <glyph glyph-name="Iacute" unicode="&#xcd;" horiz-adv-x="282" 
d="M66 686h150v-686h-150v686zM79 792l212 112l33 -99l-215 -67z" />
    <glyph glyph-name="Icircumflex" unicode="&#xce;" horiz-adv-x="282" 
d="M66 686h150v-686h-150v686zM-66 748l208 150l207 -150h-113l-94 49l-95 -49h-113z" />
    <glyph glyph-name="Idieresis" unicode="&#xcf;" horiz-adv-x="282" 
d="M66 686h150v-686h-150v686zM104 865v-118h-107v118h107zM285 865v-118h-107v118h107z" />
    <glyph glyph-name="Eth" unicode="&#xd0;" horiz-adv-x="581" 
d="M65 686h163q174 0 248 -85q36 -42 53 -112.5t17 -142.5q0 -67 -17 -137.5t-53 -117.5q-24 -32 -53.5 -51.5t-63.5 -27.5t-56.5 -10t-56.5 -2h-181v296h-58v103h58v287zM215 568v-169h101v-103h-101v-178h27q51 0 77 17q67 44 67 218q0 97 -25 148q-14 30 -36.5 45.5
t-39.5 18.5t-43 3h-27z" />
    <glyph glyph-name="Ntilde" unicode="&#xd1;" horiz-adv-x="580" 
d="M60 686h166l178 -426v426h116v-686h-134l-210 496v-496h-116v686zM417 859l47 -34q-15 -28 -42 -49q-39 -30 -76 -30q-32 0 -78 21q-34 17 -53 17t-32 -11q-6 -5 -22 -21l-46 34q17 27 42 47q34 26 77 26q27 0 67 -17q49 -20 64 -20q26 0 52 37z" />
    <glyph glyph-name="Ograve" unicode="&#xd2;" horiz-adv-x="582" 
d="M291 697q102 0 167 -67q83 -87 83 -287q0 -175 -64.5 -264.5t-185.5 -89.5q-102 0 -167 67q-83 85 -83 287t83 287q65 67 167 67zM291 573q-41 0 -64 -38q-26 -44 -26 -192q0 -151 26 -193q23 -37 64 -37q42 0 65 37q25 42 25 193t-25 192q-22 38 -65 38zM371 792
l-30 -54l-215 67l34 99z" />
    <glyph glyph-name="Oacute" unicode="&#xd3;" horiz-adv-x="582" 
d="M291 697q102 0 167 -67q83 -87 83 -287q0 -175 -64.5 -264.5t-185.5 -89.5q-102 0 -167 67q-83 85 -83 287t83 287q65 67 167 67zM291 573q-41 0 -64 -38q-26 -44 -26 -192q0 -151 26 -193q23 -37 64 -37q42 0 65 37q25 42 25 193t-25 192q-22 38 -65 38zM228 792
l212 112l33 -99l-215 -67z" />
    <glyph glyph-name="Ocircumflex" unicode="&#xd4;" horiz-adv-x="582" 
d="M291 697q102 0 167 -67q83 -87 83 -287q0 -175 -64.5 -264.5t-185.5 -89.5q-102 0 -167 67q-83 85 -83 287t83 287q65 67 167 67zM291 573q-41 0 -64 -38q-26 -44 -26 -192q0 -151 26 -193q23 -37 64 -37q42 0 65 37q25 42 25 193t-25 192q-22 38 -65 38zM83 748l208 150
l207 -150h-113l-94 49l-95 -49h-113z" />
    <glyph glyph-name="Otilde" unicode="&#xd5;" horiz-adv-x="582" 
d="M291 697q102 0 167 -67q83 -87 83 -287q0 -175 -64.5 -264.5t-185.5 -89.5q-102 0 -167 67q-83 85 -83 287t83 287q65 67 167 67zM291 573q-41 0 -64 -38q-26 -44 -26 -192q0 -151 26 -193q23 -37 64 -37q42 0 65 37q25 42 25 193t-25 192q-22 38 -65 38zM418 859l47 -34
q-15 -28 -42 -49q-39 -30 -76 -30q-32 0 -78 21q-34 17 -53 17t-32 -11q-6 -5 -22 -21l-46 34q17 27 42 47q34 26 77 26q27 0 67 -17q49 -20 64 -20q26 0 52 37z" />
    <glyph glyph-name="Odieresis" unicode="&#xd6;" horiz-adv-x="582" 
d="M291 697q102 0 167 -67q83 -87 83 -287q0 -175 -64.5 -264.5t-185.5 -89.5q-102 0 -167 67q-83 85 -83 287t83 287q65 67 167 67zM291 573q-41 0 -64 -38q-26 -44 -26 -192q0 -151 26 -193q23 -37 64 -37q42 0 65 37q25 42 25 193t-25 192q-22 38 -65 38zM254 865v-118
h-107v118h107zM435 865v-118h-107v118h107z" />
    <glyph glyph-name="multiply" unicode="&#xd7;" horiz-adv-x="528" 
d="M264 423l118 117l79 -80l-117 -117l117 -117l-79 -80l-118 117l-117 -117l-80 80l117 117l-117 117l80 80z" />
    <glyph glyph-name="Oslash" unicode="&#xd8;" horiz-adv-x="580" 
d="M445 725h78l-55 -109q71 -79 71 -273q0 -201 -82 -287q-63 -67 -167 -67q-65 0 -120 29l-31 -60h-78l53 108q-73 92 -73 277q0 201 82 287q63 67 167 67q78 0 123 -32zM193 219l159 338q-30 25 -62 25q-46 0 -73 -40q-31 -47 -31 -199q0 -77 7 -124zM387 463l-157 -340
q23 -20 61 -20q48 0 73 41q19 31 24 79.5t6 147.5v19q0 20 -7 73z" />
    <glyph glyph-name="Ugrave" unicode="&#xd9;" horiz-adv-x="597" 
d="M66 686h150v-392v-26v-26t0.5 -22.5t1.5 -22.5t3.5 -18.5t6 -18t8.5 -14.5q25 -33 79 -33q40 0 62 22q28 28 28 100v451h126v-453q0 -147 -83 -205q-55 -39 -146 -39q-95 0 -147 33q-53 34 -71 95t-18 159v410zM379 792l-30 -54l-215 67l34 99z" />
    <glyph glyph-name="Uacute" unicode="&#xda;" horiz-adv-x="597" 
d="M66 686h150v-392v-26v-26t0.5 -22.5t1.5 -22.5t3.5 -18.5t6 -18t8.5 -14.5q25 -33 79 -33q40 0 62 22q28 28 28 100v451h126v-453q0 -147 -83 -205q-55 -39 -146 -39q-95 0 -147 33q-53 34 -71 95t-18 159v410zM236 792l212 112l33 -99l-215 -67z" />
    <glyph glyph-name="Ucircumflex" unicode="&#xdb;" horiz-adv-x="597" 
d="M66 686h150v-392v-26v-26t0.5 -22.5t1.5 -22.5t3.5 -18.5t6 -18t8.5 -14.5q25 -33 79 -33q40 0 62 22q28 28 28 100v451h126v-453q0 -147 -83 -205q-55 -39 -146 -39q-95 0 -147 33q-53 34 -71 95t-18 159v410zM91 748l208 150l207 -150h-113l-94 49l-95 -49h-113z" />
    <glyph glyph-name="Udieresis" unicode="&#xdc;" horiz-adv-x="597" 
d="M66 686h150v-392v-26v-26t0.5 -22.5t1.5 -22.5t3.5 -18.5t6 -18t8.5 -14.5q25 -33 79 -33q40 0 62 22q28 28 28 100v451h126v-453q0 -147 -83 -205q-55 -39 -146 -39q-95 0 -147 33q-53 34 -71 95t-18 159v410zM261 865v-118h-107v118h107zM442 865v-118h-107v118h107z
" />
    <glyph glyph-name="Yacute" unicode="&#xdd;" horiz-adv-x="456" 
d="M-29 686h166l97 -251l103 251h148l-192 -396v-290h-150v290zM166 792l212 112l33 -99l-215 -67z" />
    <glyph glyph-name="Thorn" unicode="&#xde;" horiz-adv-x="528" 
d="M66 686h150v-93h82q113 0 166 -53q56 -56 56 -164q0 -89 -38 -142q-33 -46 -82.5 -60t-131.5 -14h-52v-160h-150v686zM216 481v-203h47q35 0 55 9t31 34q11 23 11 63q0 37 -16 64q-10 16 -25.5 23.5t-25.5 8.5t-30 1h-47z" />
    <glyph glyph-name="germandbls" unicode="&#xdf;" horiz-adv-x="565" 
d="M10 352v111h56q-1 147 86 217q63 51 156 51q84 0 133 -42q48 -39 48 -107q0 -67 -54 -114q-41 -34 -101 -50q14 -18 63 -40q81 -38 107 -65q48 -49 48 -128q0 -97 -57 -148q-51 -48 -138 -48q-61 0 -111 22l34 96q38 -18 78 -18q33 0 49 16q18 18 18 50q0 33 -22 58
q-15 16 -61 43q-47 29 -73 57q-28 31 -28 76q0 34 18 84q59 6 83 40q14 20 14 47q0 35 -20 54q-18 18 -46 18q-33 0 -53 -20q-28 -28 -28 -92v-580h-143v412h-56z" />
    <glyph glyph-name="agrave" unicode="&#xe0;" horiz-adv-x="495" 
d="M189 348l-135 13q9 63 48 102q55 57 160 57q73 0 119 -31q21 -14 34 -31t18.5 -41.5t6.5 -44t1 -56.5v-203q0 -84 9 -113h-132q-11 41 -7 78q-14 -30 -38 -52q-40 -37 -101 -37q-59 0 -95 35q-40 38 -40 105q0 62 32 106q34 44 103 62q41 12 127 19v41q0 35 -13 52
q-14 17 -40 17q-30 0 -45 -26q-7 -13 -12 -52zM299 218v26l-19 -3q-65 -11 -84 -43q-13 -22 -13 -54q0 -24 12 -41q15 -20 37 -20q38 0 54 44q13 35 13 91zM365 608l-42 -43l-186 117l56 84z" />
    <glyph glyph-name="aacute" unicode="&#xe1;" horiz-adv-x="495" 
d="M189 348l-135 13q9 63 48 102q55 57 160 57q73 0 119 -31q21 -14 34 -31t18.5 -41.5t6.5 -44t1 -56.5v-203q0 -84 9 -113h-132q-11 41 -7 78q-14 -30 -38 -52q-40 -37 -101 -37q-59 0 -95 35q-40 38 -40 105q0 62 32 106q34 44 103 62q41 12 127 19v41q0 35 -13 52
q-14 17 -40 17q-30 0 -45 -26q-7 -13 -12 -52zM299 218v26l-19 -3q-65 -11 -84 -43q-13 -22 -13 -54q0 -24 12 -41q15 -20 37 -20q38 0 54 44q13 35 13 91zM183 603l172 158l56 -84l-186 -117z" />
    <glyph glyph-name="acircumflex" unicode="&#xe2;" horiz-adv-x="495" 
d="M189 348l-135 13q9 63 48 102q55 57 160 57q73 0 119 -31q21 -14 34 -31t18.5 -41.5t6.5 -44t1 -56.5v-203q0 -84 9 -113h-132q-11 41 -7 78q-14 -30 -38 -52q-40 -37 -101 -37q-59 0 -95 35q-40 38 -40 105q0 62 32 106q34 44 103 62q41 12 127 19v41q0 35 -13 52
q-14 17 -40 17q-30 0 -45 -26q-7 -13 -12 -52zM299 218v26l-19 -3q-65 -11 -84 -43q-13 -22 -13 -54q0 -24 12 -41q15 -20 37 -20q38 0 54 44q13 35 13 91zM45 571l203 159l202 -159h-110l-92 60l-93 -60h-110z" />
    <glyph glyph-name="atilde" unicode="&#xe3;" horiz-adv-x="495" 
d="M189 348l-135 13q9 63 48 102q55 57 160 57q73 0 119 -31q21 -14 34 -31t18.5 -41.5t6.5 -44t1 -56.5v-203q0 -84 9 -113h-132q-11 41 -7 78q-14 -30 -38 -52q-40 -37 -101 -37q-59 0 -95 35q-40 38 -40 105q0 62 32 106q34 44 103 62q41 12 127 19v41q0 35 -13 52
q-14 17 -40 17q-30 0 -45 -26q-7 -13 -12 -52zM299 218v26l-19 -3q-65 -11 -84 -43q-13 -22 -13 -54q0 -24 12 -41q15 -20 37 -20q38 0 54 44q13 35 13 91zM369 699l44 -33q-16 -25 -34 -42q-39 -35 -78 -35q-28 0 -66 18q-44 19 -61 19q-25 0 -49 -31l-43 33q14 21 39 43
q35 29 68 29q25 0 70 -17q49 -20 60 -20q17 0 34 17q1 1 7 8t9 11z" />
    <glyph glyph-name="adieresis" unicode="&#xe4;" horiz-adv-x="495" 
d="M189 348l-135 13q9 63 48 102q55 57 160 57q73 0 119 -31q21 -14 34 -31t18.5 -41.5t6.5 -44t1 -56.5v-203q0 -84 9 -113h-132q-11 41 -7 78q-14 -30 -38 -52q-40 -37 -101 -37q-59 0 -95 35q-40 38 -40 105q0 62 32 106q34 44 103 62q41 12 127 19v41q0 35 -13 52
q-14 17 -40 17q-30 0 -45 -26q-7 -13 -12 -52zM299 218v26l-19 -3q-65 -11 -84 -43q-13 -22 -13 -54q0 -24 12 -41q15 -20 37 -20q38 0 54 44q13 35 13 91zM232 701v-118h-107v118h107zM408 701v-118h-107v118h107z" />
    <glyph glyph-name="aring" unicode="&#xe5;" horiz-adv-x="495" 
d="M189 348l-135 13q9 63 48 102q55 57 160 57q73 0 119 -31q21 -14 34 -31t18.5 -41.5t6.5 -44t1 -56.5v-203q0 -84 9 -113h-132q-11 41 -7 78q-14 -30 -38 -52q-40 -37 -101 -37q-59 0 -95 35q-40 38 -40 105q0 62 32 106q34 44 103 62q41 12 127 19v41q0 35 -13 52
q-14 17 -40 17q-30 0 -45 -26q-7 -13 -12 -52zM299 218v26l-19 -3q-65 -11 -84 -43q-13 -22 -13 -54q0 -24 12 -41q15 -20 37 -20q38 0 54 44q13 35 13 91zM247 560q-36 0 -68 29q-29 26 -29 69q0 40 29 69q28 28 69 28t69 -28t28 -69q0 -40 -26 -68q-28 -30 -72 -30z
M247 617q18 0 28 11q11 11 11 30q0 18 -11 29q-12 12 -27 12q-19 0 -29 -12q-10 -11 -10 -29q0 -19 11 -30t27 -11z" />
    <glyph glyph-name="ae" unicode="&#xe6;" horiz-adv-x="723" 
d="M692 231h-264q-1 -87 18 -116q17 -26 49 -26t50 23q19 24 21 61l122 -9q-12 -79 -52 -122q-49 -53 -133 -53q-69 0 -110 32q-29 22 -44 55q-18 -29 -46 -51q-46 -36 -117 -36q-64 0 -102 33q-47 40 -47 106q0 75 41 120q31 34 78 47.5t112 19.5l22 2q5 71 -13 92
q-14 18 -42 18q-33 0 -49 -30q-12 -23 -12 -53l-124 14q9 74 58 118q48 44 135 44q58 0 92 -22q16 -10 32 -30q47 52 126 52q92 0 144 -63q59 -70 55 -226zM428 313h131q-1 59 -16 85q-16 29 -49 29q-26 0 -43 -22q-22 -27 -23 -92zM290 244q-43 -5 -64.5 -14t-34.5 -31
q-11 -19 -11 -54q0 -28 12 -45q12 -16 35 -16q25 0 41 20q22 27 22 93v47z" />
    <glyph glyph-name="ccedilla" unicode="&#xe7;" horiz-adv-x="460" 
d="M435 322l-133 -5q-3 50 -15 72q-14 23 -40 23q-34 0 -51 -30q-19 -36 -19 -125q0 -86 21 -124q17 -29 46 -29q27 0 41 21q16 21 17 74l133 -8q-7 -92 -52 -142q-44 -49 -115 -57l-17 -43q48 6 77 -19q25 -23 25 -60q0 -38 -25 -61q-27 -25 -81 -25t-109 36l16 42
q44 -26 83 -26q18 0 26 8q10 7 10 22q0 21 -17 33q-16 12 -48 12q-16 0 -29 -3l31 84q-71 7 -117 55q-62 65 -62 199q0 147 64 215q56 59 151 59q85 0 134 -53q53 -56 55 -145z" />
    <glyph glyph-name="egrave" unicode="&#xe8;" horiz-adv-x="476" 
d="M445 231h-268q-2 -91 15 -119t55 -28q33 0 52 24q16 20 19 67l127 -8q-14 -75 -54 -118q-54 -59 -150 -59q-90 0 -144 55q-66 67 -66 205q0 140 64 210q56 60 146 60q111 0 166 -93q45 -76 38 -196zM178 313h133q1 61 -18 88q-20 25 -49 25q-32 0 -50 -29
q-13 -21 -16 -84zM329 608l-42 -43l-186 117l56 84z" />
    <glyph glyph-name="eacute" unicode="&#xe9;" horiz-adv-x="476" 
d="M445 231h-268q-2 -91 15 -119t55 -28q33 0 52 24q16 20 19 67l127 -8q-14 -75 -54 -118q-54 -59 -150 -59q-90 0 -144 55q-66 67 -66 205q0 140 64 210q56 60 146 60q111 0 166 -93q45 -76 38 -196zM178 313h133q1 61 -18 88q-20 25 -49 25q-32 0 -50 -29
q-13 -21 -16 -84zM190 608l172 158l56 -84l-186 -117z" />
    <glyph glyph-name="ecircumflex" unicode="&#xea;" horiz-adv-x="476" 
d="M445 231h-268q-2 -91 15 -119t55 -28q33 0 52 24q16 20 19 67l127 -8q-14 -75 -54 -118q-54 -59 -150 -59q-90 0 -144 55q-66 67 -66 205q0 140 64 210q56 60 146 60q111 0 166 -93q45 -76 38 -196zM178 313h133q1 61 -18 88q-20 25 -49 25q-32 0 -50 -29
q-13 -21 -16 -84zM36 571l203 159l202 -159h-110l-92 60l-93 -60h-110z" />
    <glyph glyph-name="edieresis" unicode="&#xeb;" horiz-adv-x="476" 
d="M445 231h-268q-2 -91 15 -119t55 -28q33 0 52 24q16 20 19 67l127 -8q-14 -75 -54 -118q-54 -59 -150 -59q-90 0 -144 55q-66 67 -66 205q0 140 64 210q56 60 146 60q111 0 166 -93q45 -76 38 -196zM178 313h133q1 61 -18 88q-20 25 -49 25q-32 0 -50 -29
q-13 -21 -16 -84zM203 701v-118h-107v118h107zM379 701v-118h-107v118h107z" />
    <glyph glyph-name="igrave" unicode="&#xec;" horiz-adv-x="246" 
d="M52 510h142v-510h-142v510zM214 608l-42 -43l-186 117l56 84z" />
    <glyph glyph-name="iacute" unicode="&#xed;" horiz-adv-x="246" 
d="M52 510h142v-510h-142v510zM75 608l172 158l56 -84l-186 -117z" />
    <glyph glyph-name="icircumflex" unicode="&#xee;" horiz-adv-x="246" 
d="M52 510h142v-510h-142v510zM-79 571l203 159l202 -159h-110l-92 60l-93 -60h-110z" />
    <glyph glyph-name="idieresis" unicode="&#xef;" horiz-adv-x="246" 
d="M52 510h142v-510h-142v510zM88 701v-118h-107v118h107zM264 701v-118h-107v118h107z" />
    <glyph glyph-name="eth" unicode="&#xf0;" horiz-adv-x="477" 
d="M284 690l67 40l31 -51l-64 -40q59 -97 89 -172q39 -104 39 -212q0 -148 -64 -213q-52 -53 -143 -53q-92 0 -144 53q-64 67 -64 213t63 213q47 51 107 51q45 0 70 -23q-7 36 -40 92l-70 -42l-30 52l71 42q-20 38 -36 57l81 49q9 -13 19 -30q9 -14 18 -26zM198 110l16 -15
q9 -10 31.5 -5.5t33.5 20.5q20 30 20 145q0 116 -20 144q-16 23 -41 23t-40 -23q-20 -31 -20 -144q0 -125 20 -145z" />
    <glyph glyph-name="ntilde" unicode="&#xf1;" horiz-adv-x="495" 
d="M53 510h135v-70q14 35 42 55q33 25 86 25q58 0 92 -31q19 -18 28.5 -43t11 -42.5t1.5 -50.5v-353h-142v348q0 34 -13 47t-37 13q-32 0 -48 -20q-14 -20 -14 -61v-327h-142v510zM369 699l44 -33q-16 -25 -34 -42q-39 -35 -78 -35q-28 0 -66 18q-44 19 -61 19
q-25 0 -49 -31l-43 33q14 21 39 43q35 29 68 29q25 0 70 -17q49 -20 60 -20q17 0 34 17q1 1 7 8t9 11z" />
    <glyph glyph-name="ograve" unicode="&#xf2;" horiz-adv-x="474" 
d="M237 520q92 0 143 -54q63 -67 63 -211t-63 -211q-51 -54 -143 -54t-143 54q-63 67 -63 211t63 211q51 54 143 54zM237 420q-24 0 -40 -21q-20 -27 -20 -144t20 -144q16 -21 40 -21t40 21q20 27 20 144t-20 144q-16 21 -40 21zM328 608l-42 -43l-186 117l56 84z" />
    <glyph glyph-name="oacute" unicode="&#xf3;" horiz-adv-x="474" 
d="M237 520q92 0 143 -54q63 -67 63 -211t-63 -211q-51 -54 -143 -54t-143 54q-63 67 -63 211t63 211q51 54 143 54zM237 420q-24 0 -40 -21q-20 -27 -20 -144t20 -144q16 -21 40 -21t40 21q20 27 20 144t-20 144q-16 21 -40 21zM189 608l172 158l56 -84l-186 -117z" />
    <glyph glyph-name="ocircumflex" unicode="&#xf4;" horiz-adv-x="474" 
d="M237 520q92 0 143 -54q63 -67 63 -211t-63 -211q-51 -54 -143 -54t-143 54q-63 67 -63 211t63 211q51 54 143 54zM237 420q-24 0 -40 -21q-20 -27 -20 -144t20 -144q16 -21 40 -21t40 21q20 27 20 144t-20 144q-16 21 -40 21zM35 571l203 159l202 -159h-110l-92 60
l-93 -60h-110z" />
    <glyph glyph-name="otilde" unicode="&#xf5;" horiz-adv-x="474" 
d="M237 520q92 0 143 -54q63 -67 63 -211t-63 -211q-51 -54 -143 -54t-143 54q-63 67 -63 211t63 211q51 54 143 54zM237 420q-24 0 -40 -21q-20 -27 -20 -144t20 -144q16 -21 40 -21t40 21q20 27 20 144t-20 144q-16 21 -40 21zM359 699l44 -33q-16 -25 -34 -42
q-39 -35 -78 -35q-28 0 -66 18q-44 19 -61 19q-25 0 -49 -31l-43 33q14 21 39 43q35 29 68 29q25 0 70 -17q49 -20 60 -20q17 0 34 17q1 1 7 8t9 11z" />
    <glyph glyph-name="odieresis" unicode="&#xf6;" horiz-adv-x="474" 
d="M237 520q92 0 143 -54q63 -67 63 -211t-63 -211q-51 -54 -143 -54t-143 54q-63 67 -63 211t63 211q51 54 143 54zM237 420q-24 0 -40 -21q-20 -27 -20 -144t20 -144q16 -21 40 -21t40 21q20 27 20 144t-20 144q-16 21 -40 21zM202 701v-118h-107v118h107zM378 701v-118
h-107v118h107z" />
    <glyph glyph-name="divide" unicode="&#xf7;" horiz-adv-x="529" 
d="M475 289h-421v108h421v-108zM325 445h-122v135h122v-135zM325 106h-122v135h122v-135z" />
    <glyph glyph-name="oslash" unicode="&#xf8;" horiz-adv-x="477" 
d="M365 563h67l-48 -97q62 -73 62 -211q0 -146 -64 -213q-52 -53 -143 -53q-32 0 -92 16l-31 -64h-68l49 98q-66 74 -66 216q0 145 64 212q50 53 144 53q54 0 96 -18zM163 154l122 263q-18 11 -46 11q-35 0 -54 -22q-27 -33 -27 -151q0 -66 5 -101zM315 344l-117 -254
q16 -8 41 -8q35 0 49 16t21 44q10 43 10 113v39q0 29 -4 50z" />
    <glyph glyph-name="ugrave" unicode="&#xf9;" horiz-adv-x="495" 
d="M46 510h142v-355q0 -25 9 -38q12 -17 42 -17q29 0 43 18q18 22 18 94v298h142v-510h-134v70q-17 -34 -40 -53q-33 -28 -86 -28q-59 0 -92 25q-44 34 -44 113v383zM338 608l-42 -43l-186 117l56 84z" />
    <glyph glyph-name="uacute" unicode="&#xfa;" horiz-adv-x="495" 
d="M46 510h142v-355q0 -25 9 -38q12 -17 42 -17q29 0 43 18q18 22 18 94v298h142v-510h-134v70q-17 -34 -40 -53q-33 -28 -86 -28q-59 0 -92 25q-44 34 -44 113v383zM158 609l172 158l56 -84l-186 -117z" />
    <glyph glyph-name="ucircumflex" unicode="&#xfb;" horiz-adv-x="495" 
d="M46 510h142v-355q0 -25 9 -38q12 -17 42 -17q29 0 43 18q18 22 18 94v298h142v-510h-134v70q-17 -34 -40 -53q-33 -28 -86 -28q-59 0 -92 25q-44 34 -44 113v383zM45 571l203 159l202 -159h-110l-92 60l-93 -60h-110z" />
    <glyph glyph-name="udieresis" unicode="&#xfc;" horiz-adv-x="495" 
d="M46 510h142v-355q0 -25 9 -38q12 -17 42 -17q29 0 43 18q18 22 18 94v298h142v-510h-134v70q-17 -34 -40 -53q-33 -28 -86 -28q-59 0 -92 25q-44 34 -44 113v383zM212 701v-118h-107v118h107zM388 701v-118h-107v118h107z" />
    <glyph glyph-name="yacute" unicode="&#xfd;" horiz-adv-x="383" 
d="M-14 510h150l69 -312l66 312h129l-154 -518q-29 -96 -56 -130q-39 -48 -106 -48q-39 0 -69 10v116q17 -4 43 -4q43 0 62 24q12 14 17 38zM143 608l172 158l56 -84l-186 -117z" />
    <glyph glyph-name="thorn" unicode="&#xfe;" horiz-adv-x="496" 
d="M53 690h142v-245q16 29 44 50q32 22 64 22q56 0 97 -38q65 -61 65 -215q0 -158 -59 -223q-44 -48 -112 -48q-32 0 -57 13q-23 12 -42 31v-209h-142v862zM195 304v-95q0 -29 0.5 -39.5t3 -30t8.5 -27t18 -14t30 -6.5q28 0 44 24q20 32 20 147q0 114 -19 139q-16 21 -44 21
t-48 -37q-13 -24 -13 -82z" />
    <glyph glyph-name="ydieresis" unicode="&#xff;" horiz-adv-x="383" 
d="M-14 510h150l69 -312l66 312h129l-154 -518q-29 -96 -56 -130q-39 -48 -106 -48q-39 0 -69 10v116q17 -4 43 -4q43 0 62 24q12 14 17 38zM165 701v-118h-107v118h107zM341 701v-118h-107v118h107z" />
    <glyph glyph-name="Amacron" unicode="&#x100;" horiz-adv-x="524" 
d="M184 686h152l196 -686h-154l-34 142h-193l-33 -142h-139zM316 260l-69 279l-66 -279h135zM116 845h291v-77h-291v77z" />
    <glyph glyph-name="amacron" unicode="&#x101;" horiz-adv-x="495" 
d="M189 348l-135 13q9 63 48 102q55 57 160 57q73 0 119 -31q21 -14 34 -31t18.5 -41.5t6.5 -44t1 -56.5v-203q0 -84 9 -113h-132q-11 41 -7 78q-14 -30 -38 -52q-40 -37 -101 -37q-59 0 -95 35q-40 38 -40 105q0 62 32 106q34 44 103 62q41 12 127 19v41q0 35 -13 52
q-14 17 -40 17q-30 0 -45 -26q-7 -13 -12 -52zM299 218v26l-19 -3q-65 -11 -84 -43q-13 -22 -13 -54q0 -24 12 -41q15 -20 37 -20q38 0 54 44q13 35 13 91zM106 679h283v-75h-283v75z" />
    <glyph glyph-name="Abreve" unicode="&#x102;" horiz-adv-x="524" 
d="M184 686h152l196 -686h-154l-34 142h-193l-33 -142h-139zM316 260l-69 279l-66 -279h135zM90 867h84q19 -42 88 -42q68 0 87 42h84q-35 -117 -171 -117q-137 0 -172 117z" />
    <glyph glyph-name="abreve" unicode="&#x103;" horiz-adv-x="495" 
d="M189 348l-135 13q9 63 48 102q55 57 160 57q73 0 119 -31q21 -14 34 -31t18.5 -41.5t6.5 -44t1 -56.5v-203q0 -84 9 -113h-132q-11 41 -7 78q-14 -30 -38 -52q-40 -37 -101 -37q-59 0 -95 35q-40 38 -40 105q0 62 32 106q34 44 103 62q41 12 127 19v41q0 35 -13 52
q-14 17 -40 17q-30 0 -45 -26q-7 -13 -12 -52zM299 218v26l-19 -3q-65 -11 -84 -43q-13 -22 -13 -54q0 -24 12 -41q15 -20 37 -20q38 0 54 44q13 35 13 91zM81 707h80q24 -52 87 -52q29 0 53 13t33 39h80q-5 -21 -14.5 -40t-28 -40t-50.5 -33.5t-73 -12.5q-78 0 -117 38.5
t-50 87.5z" />
    <glyph glyph-name="Aogonek" unicode="&#x104;" horiz-adv-x="524" 
d="M184 686h152l196 -686h-53q-17 -17 -24 -26q-23 -30 -23 -56q0 -25 17 -40q18 -16 55 -16q18 0 30 3l11 -50q-36 -8 -61 -8q-65 0 -96 23q-37 27 -37 71q0 37 28 65q18 20 45 34h-46l-34 141h-193l-33 -141h-139zM316 260l-69 279l-66 -279h135z" />
    <glyph glyph-name="aogonek" unicode="&#x105;" horiz-adv-x="493" 
d="M189 348l-135 13q9 63 48 102q55 57 163 57q70 0 116 -31q21 -14 34 -31t18.5 -41.5t6.5 -44t1 -56.5v-203q0 -84 9 -113q-8 -7 -24 -25q-22 -26 -22 -57q0 -20 12 -33q18 -20 57 -20q14 0 30 5l11 -48q-26 -10 -62 -10q-67 0 -99 28q-29 26 -29 63q0 35 27 64
q18 18 44 33h-77q-11 41 -7 78q-14 -30 -38 -52q-40 -37 -95 -37q-63 0 -101 35q-40 38 -40 105q0 62 32 106q34 44 103 62q55 15 108 18l19 1v41q0 35 -13 52q-14 17 -40 17q-30 0 -45 -26q-7 -13 -12 -52zM299 218v26l-19 -3q-65 -11 -84 -43q-13 -22 -13 -54
q0 -24 12 -41q15 -19 34 -19q40 0 57 43q13 34 13 91z" />
    <glyph glyph-name="Cacute" unicode="&#x106;" horiz-adv-x="563" 
d="M399 250l140 -9q-8 -110 -70 -180q-64 -72 -168 -72t-169 65q-91 91 -91 287q0 88 23 169t74 128q63 59 165 59q94 0 154 -56q76 -70 79 -210l-137 -11q-4 91 -35 125q-27 28 -64 28q-35 0 -59 -29q-40 -48 -40 -210q0 -136 31 -183q25 -38 71 -38q41 0 65 35
q26 36 31 102zM219 792l212 112l33 -99l-215 -67z" />
    <glyph glyph-name="cacute" unicode="&#x107;" horiz-adv-x="460" 
d="M435 322l-133 -5q-3 50 -15 68q-15 23 -42 23q-32 0 -49 -30q-19 -33 -19 -124q0 -84 21 -123q17 -29 46 -29q27 0 41 21t17 76l133 -8q-6 -91 -52 -142q-53 -59 -145 -59q-90 0 -145 57q-62 65 -62 206t64 208q56 59 151 59q85 0 134 -53q53 -56 55 -145zM154 609
l172 158l56 -84l-186 -117z" />
    <glyph glyph-name="Ccircumflex" unicode="&#x108;" horiz-adv-x="563" 
d="M399 250l140 -9q-8 -110 -70 -180q-64 -72 -168 -72t-169 65q-91 91 -91 287q0 88 23 169t74 128q63 59 165 59q94 0 154 -56q76 -70 79 -210l-137 -11q-4 91 -35 125q-27 28 -64 28q-35 0 -59 -29q-40 -48 -40 -210q0 -136 31 -183q25 -38 71 -38q41 0 65 35
q26 36 31 102zM74 748l208 150l207 -150h-113l-94 49l-95 -49h-113z" />
    <glyph glyph-name="ccircumflex" unicode="&#x109;" horiz-adv-x="460" 
d="M435 322l-133 -5q-3 50 -15 68q-15 23 -42 23q-32 0 -49 -30q-19 -33 -19 -124q0 -84 21 -123q17 -29 46 -29q27 0 41 21t17 76l133 -8q-6 -91 -52 -142q-53 -59 -145 -59q-90 0 -145 57q-62 65 -62 206t64 208q56 59 151 59q85 0 134 -53q53 -56 55 -145zM28 571
l203 159l202 -159h-110l-92 60l-93 -60h-110z" />
    <glyph glyph-name="Ccaron" unicode="&#x10c;" horiz-adv-x="563" 
d="M399 250l140 -9q-8 -110 -70 -180q-64 -72 -168 -72t-169 65q-91 91 -91 287q0 88 23 169t74 128q63 59 165 59q94 0 154 -56q76 -70 79 -210l-137 -11q-4 91 -35 125q-27 28 -64 28q-35 0 -59 -29q-40 -48 -40 -210q0 -136 31 -183q25 -38 71 -38q41 0 65 35
q26 36 31 102zM74 878h113l95 -49l94 49h113l-207 -150z" />
    <glyph glyph-name="ccaron" unicode="&#x10d;" horiz-adv-x="460" 
d="M435 322l-133 -5q-3 50 -15 68q-15 23 -42 23q-32 0 -49 -30q-19 -33 -19 -124q0 -84 21 -123q17 -29 46 -29q27 0 41 21t17 76l133 -8q-6 -91 -52 -142q-53 -59 -145 -59q-90 0 -145 57q-62 65 -62 206t64 208q56 59 151 59q85 0 134 -53q53 -56 55 -145zM28 720h110
l93 -60l92 60h110l-202 -158z" />
    <glyph glyph-name="Dcaron" unicode="&#x10e;" horiz-adv-x="581" 
d="M66 686h163q175 0 247 -85q35 -41 52.5 -114t17.5 -141q0 -63 -17.5 -136t-52.5 -119q-24 -31 -53.5 -51t-63.5 -28t-56.5 -10t-56.5 -2h-180v686zM216 568v-450h26q26 0 42.5 2.5t39.5 18.5t37 47q25 52 25 161q0 104 -24 154q-11 23 -25 37.5t-32 20.5t-31 7.5t-32 1.5
h-26zM83 878h113l95 -49l94 49h113l-207 -150z" />
    <glyph glyph-name="dcaron" unicode="&#x10f;" horiz-adv-x="607" 
d="M301 689h142v-689h-134v85q-12 -43 -43 -68q-29 -24 -70 -24q-67 0 -107 45q-58 66 -58 214q0 164 72 229q41 36 96 36q35 0 61 -14q25 -13 41 -41v227zM301 206v126q0 37 -17 65q-16 26 -44 26q-32 0 -47 -29q-16 -30 -16 -132v-21q0 -94 18 -128q16 -26 44 -26
q27 0 43 22q19 26 19 97zM505 679h104l-81 -203h-52z" />
    <glyph glyph-name="Dcroat" unicode="&#x110;" horiz-adv-x="581" 
d="M65 686h163q174 0 248 -85q36 -42 53 -112.5t17 -142.5q0 -67 -17 -137.5t-53 -117.5q-24 -32 -53.5 -51.5t-63.5 -27.5t-56.5 -10t-56.5 -2h-181v296h-58v103h58v287zM215 568v-169h101v-103h-101v-178h27q51 0 77 17q67 44 67 218q0 97 -25 148q-14 30 -36.5 45.5
t-39.5 18.5t-43 3h-27z" />
    <glyph glyph-name="dcroat" unicode="&#x111;" horiz-adv-x="502" 
d="M310 0v85q-12 -43 -43 -68q-29 -24 -70 -24q-67 0 -107 45q-59 67 -59 214q0 163 73 229q40 36 96 36q35 0 61 -14q25 -13 41 -41v99h-101v69h101v60h142v-60h55v-69h-55v-561h-134zM302 206v126q0 39 -17 65q-17 25 -44 25q-32 0 -47 -28q-16 -32 -16 -132v-21
q0 -50 5 -82t15.5 -45.5t19 -17.5t22.5 -4q27 0 43 22q19 26 19 92z" />
    <glyph glyph-name="Emacron" unicode="&#x112;" horiz-adv-x="493" 
d="M66 686h418v-118h-268v-159h208v-118h-208v-173h268v-118h-418v686zM141 847h291v-77h-291v77z" />
    <glyph glyph-name="emacron" unicode="&#x113;" horiz-adv-x="476" 
d="M445 231h-268q-2 -91 15 -119t55 -28q33 0 52 24q16 20 19 67l127 -8q-14 -75 -54 -118q-54 -59 -150 -59q-90 0 -144 55q-66 67 -66 205q0 140 64 210q56 60 146 60q111 0 166 -93q45 -76 38 -196zM178 313h133q1 61 -18 88q-20 25 -49 25q-32 0 -50 -29
q-13 -21 -16 -84zM97 679h283v-75h-283v75z" />
    <glyph glyph-name="Edotaccent" unicode="&#x116;" horiz-adv-x="493" 
d="M66 686h418v-118h-268v-159h208v-118h-208v-173h268v-118h-418v686zM229 873h121v-140h-121v140z" />
    <glyph glyph-name="edotaccent" unicode="&#x117;" horiz-adv-x="476" 
d="M445 231h-268q-2 -91 15 -119t55 -28q33 0 52 24q16 20 19 67l127 -8q-14 -75 -54 -118q-54 -59 -150 -59q-90 0 -144 55q-66 67 -66 205q0 140 64 210q56 60 146 60q111 0 166 -93q45 -76 38 -196zM178 313h133q1 61 -18 88q-20 25 -49 25q-32 0 -50 -29
q-13 -21 -16 -84zM178 711h121v-140h-121v140z" />
    <glyph glyph-name="Eogonek" unicode="&#x118;" horiz-adv-x="493" 
d="M66 686h418v-118h-268v-159h208v-118h-208v-168h268v-123h-39q-17 -17 -24 -26q-23 -30 -23 -56q0 -25 17 -40q18 -16 55 -16q18 0 30 3l11 -50q-36 -8 -61 -8q-65 0 -96 23q-37 27 -37 71q0 37 28 65q18 20 45 34h-324v686z" />
    <glyph glyph-name="eogonek" unicode="&#x119;" horiz-adv-x="476" 
d="M445 231h-268q-3 -85 15 -113q17 -28 55 -28q33 0 52 24q16 21 19 61l127 -8q-14 -75 -54 -118q-23 -25 -68 -45q-22 -22 -28 -29q-22 -26 -22 -57q0 -20 12 -33q18 -20 57 -20q14 0 30 5l11 -48q-26 -10 -62 -10q-67 0 -99 28q-29 26 -29 63q0 35 27 64q14 14 28 23
q-96 -2 -151 55q-66 67 -66 205q0 140 64 210q56 60 146 60q111 0 166 -93q45 -76 38 -196zM178 313h133q1 61 -18 88q-20 25 -49 25q-32 0 -50 -29q-13 -21 -16 -84z" />
    <glyph glyph-name="Ecaron" unicode="&#x11a;" horiz-adv-x="493" 
d="M66 686h418v-118h-268v-159h208v-118h-208v-173h268v-118h-418v686zM79 879h113l95 -49l94 49h113l-207 -150z" />
    <glyph glyph-name="ecaron" unicode="&#x11b;" horiz-adv-x="476" 
d="M445 231h-268q-2 -91 15 -119t55 -28q33 0 52 24q16 20 19 67l127 -8q-14 -75 -54 -118q-54 -59 -150 -59q-90 0 -144 55q-66 67 -66 205q0 140 64 210q56 60 146 60q111 0 166 -93q45 -76 38 -196zM178 313h133q1 61 -18 88q-20 25 -49 25q-32 0 -50 -29
q-13 -21 -16 -84zM36 720h110l93 -60l92 60h110l-202 -158z" />
    <glyph glyph-name="Gcircumflex" unicode="&#x11c;" horiz-adv-x="599" 
d="M308 366h238v-366h-64l-19 78q-18 -30 -51 -54q-50 -35 -107 -35q-102 0 -166 59q-49 44 -73.5 121.5t-24.5 164.5q0 107 29 186.5t80 122.5q63 54 158 54q94 0 150 -43q72 -55 88 -192l-136 -23q-5 74 -36 107q-24 27 -60 27q-34 0 -60 -21q-53 -45 -53 -216
q0 -149 45 -194q29 -29 73 -29q42 0 66 31q23 29 25 104h-102v118zM92 748l208 150l207 -150h-113l-94 49l-95 -49h-113z" />
    <glyph glyph-name="gcircumflex" unicode="&#x11d;" horiz-adv-x="475" 
d="M486 593v-92q-12 4 -32 4q-28 0 -41 -18q-9 -12 -12 -28q37 -37 37 -98q0 -70 -45 -112q-48 -44 -138 -44q-29 0 -67 9q-12 -6 -19 -13q-14 -12 -14 -27q0 -11 5 -18t16.5 -10.5t19.5 -4.5t23 -2q67 -2 115 -8q82 -10 114 -46q31 -35 31 -93q0 -72 -46 -115
q-61 -56 -203 -56q-117 0 -165 36q-43 32 -43 82q0 40 26 66q21 21 56 31q-65 29 -65 83q0 49 36 83q15 15 51 35q-75 30 -75 128q0 66 43 107q50 48 148 48q62 0 108 -23q3 55 32 82q21 19 60 19q22 0 44 -5zM249 444q-26 0 -39 -19q-13 -18 -13 -66q0 -49 17 -66
q13 -13 33 -13q26 0 37 23q8 18 8 58q0 46 -12 66q-11 17 -31 17zM183 23q-19 -11 -28 -21q-16 -17 -16 -41q0 -26 26 -39t84 -13q56 0 79 10q28 13 28 45q0 26 -19 39q-15 10 -92 14q-35 1 -62 6zM39 623l203 159l202 -159h-110l-92 60l-93 -60h-110z" />
    <glyph glyph-name="Gbreve" unicode="&#x11e;" horiz-adv-x="599" 
d="M308 366h238v-366h-64l-19 78q-18 -30 -51 -54q-50 -35 -107 -35q-102 0 -166 59q-49 44 -73.5 121.5t-24.5 164.5q0 107 29 186.5t80 122.5q63 54 158 54q94 0 150 -43q72 -55 88 -192l-136 -23q-5 74 -36 107q-24 27 -60 27q-34 0 -60 -21q-53 -45 -53 -216
q0 -149 45 -194q29 -29 73 -29q42 0 66 31q23 29 25 104h-102v118zM128 867h84q19 -42 88 -42q68 0 87 42h84q-35 -117 -171 -117q-137 0 -172 117z" />
    <glyph glyph-name="gbreve" unicode="&#x11f;" horiz-adv-x="475" 
d="M486 593v-92q-12 4 -32 4q-28 0 -41 -18q-9 -12 -12 -28q37 -37 37 -98q0 -70 -45 -112q-48 -44 -138 -44q-29 0 -67 9q-12 -6 -19 -13q-14 -12 -14 -27q0 -11 5 -18t16.5 -10.5t19.5 -4.5t23 -2q67 -2 115 -8q82 -10 114 -46q31 -35 31 -93q0 -72 -46 -115
q-61 -56 -203 -56q-117 0 -165 36q-43 32 -43 82q0 40 26 66q21 21 56 31q-65 29 -65 83q0 49 36 83q15 15 51 35q-75 30 -75 128q0 66 43 107q50 48 148 48q62 0 108 -23q3 55 32 82q21 19 60 19q22 0 44 -5zM249 444q-26 0 -39 -19q-13 -18 -13 -66q0 -49 17 -66
q13 -13 33 -13q26 0 37 23q8 18 8 58q0 46 -12 66q-11 17 -31 17zM183 23q-19 -11 -28 -21q-16 -17 -16 -41q0 -26 26 -39t84 -13q56 0 79 10q28 13 28 45q0 26 -19 39q-15 10 -92 14q-35 1 -62 6zM71 707h80q24 -52 87 -52q29 0 53 13t33 39h80q-5 -21 -14.5 -40t-28 -40
t-50.5 -33.5t-73 -12.5q-78 0 -117 38.5t-50 87.5z" />
    <glyph glyph-name="Gcommaaccent" unicode="&#x122;" horiz-adv-x="599" 
d="M308 366h238v-366h-64l-19 78q-18 -30 -51 -54q-50 -35 -107 -35q-102 0 -166 59q-49 44 -73.5 121.5t-24.5 164.5q0 107 29 186.5t80 122.5q63 54 158 54q94 0 150 -43q72 -55 88 -192l-136 -23q-5 74 -36 107q-24 27 -60 27q-34 0 -60 -21q-53 -45 -53 -216
q0 -149 45 -194q29 -29 73 -29q42 0 66 31q23 29 25 104h-102v118zM512 -38h108l-81 -195h-56z" />
    <glyph glyph-name="gcommaaccent" unicode="&#x123;" horiz-adv-x="475" 
d="M486 593v-92q-12 4 -32 4q-28 0 -41 -18q-9 -12 -12 -28q37 -37 37 -98q0 -70 -45 -112q-48 -44 -138 -44q-29 0 -67 9q-12 -6 -19 -13q-14 -12 -14 -27q0 -11 5 -18t16.5 -10.5t19.5 -4.5t23 -2q67 -2 115 -8q82 -10 114 -46q31 -35 31 -93q0 -72 -46 -115
q-61 -56 -203 -56q-117 0 -165 36q-43 32 -43 82q0 40 26 66q21 21 56 31q-65 29 -65 83q0 49 36 83q15 15 51 35q-75 30 -75 128q0 66 43 107q50 48 148 48q62 0 108 -23q3 55 32 82q21 19 60 19q22 0 44 -5zM249 444q-26 0 -39 -19q-13 -18 -13 -66q0 -49 17 -66
q13 -13 33 -13q26 0 37 23q8 18 8 58q0 46 -12 66q-11 17 -31 17zM183 23q-19 -11 -28 -21q-16 -17 -16 -41q0 -26 26 -39t84 -13q56 0 79 10q28 13 28 45q0 26 -19 39q-15 10 -92 14q-35 1 -62 6zM306 569h-129v152l73 134h56l-57 -134h57v-152z" />
    <glyph glyph-name="Hcircumflex" unicode="&#x124;" horiz-adv-x="597" 
d="M66 686h150v-276h165v276h150v-686h-150v282h-165v-282h-150v686zM91 748l208 150l207 -150h-113l-94 49l-95 -49h-113z" />
    <glyph glyph-name="hcircumflex" unicode="&#x125;" horiz-adv-x="495" 
d="M53 689h142v-233q20 26 36 38q35 26 90 26q59 0 91 -33q18 -19 27 -51t9.5 -48.5t0.5 -60.5v-327h-142v327q0 50 -8 62q-13 19 -43 19t-45 -17q-16 -17 -16 -59v-332h-142v689zM13 731l203 159l202 -159h-110l-92 60l-93 -60h-110z" />
    <glyph glyph-name="Imacron" unicode="&#x12a;" horiz-adv-x="282" 
d="M66 686h150v-686h-150v686zM-4 845h291v-77h-291v77z" />
    <glyph glyph-name="imacron" unicode="&#x12b;" horiz-adv-x="246" 
d="M52 510h142v-510h-142v510zM-18 679h283v-75h-283v75z" />
    <glyph glyph-name="Iogonek" unicode="&#x12e;" horiz-adv-x="282" 
d="M66 686h150v-686h-38l-19 -53q56 7 84 -25q21 -24 21 -57q0 -37 -27 -61q-29 -25 -78 -25q-61 0 -117 37l18 45q18 -12 39 -18q26 -8 45 -8q16 0 24 8t8 20q0 21 -16 32q-13 9 -38 11h-38l35 94h-53v686z" />
    <glyph glyph-name="iogonek" unicode="&#x12f;" horiz-adv-x="249" 
d="M53 510h142v-510h-17q-8 -7 -24 -25q-22 -26 -22 -57q0 -20 12 -33q18 -20 57 -20q14 0 30 5l11 -48q-26 -10 -62 -10q-67 0 -99 28q-29 26 -29 63q0 35 27 64q18 18 44 33h-70v510zM197 552h-145v141h145v-141z" />
    <glyph glyph-name="Idotaccent" unicode="&#x130;" horiz-adv-x="282" 
d="M66 686h150v-686h-150v686zM80 876h121v-140h-121v140z" />
    <glyph glyph-name="dotlessi" unicode="&#x131;" horiz-adv-x="246" 
d="M52 510h142v-510h-142v510z" />
    <glyph glyph-name="Jcircumflex" unicode="&#x134;" horiz-adv-x="334" 
d="M121 686h150v-478q0 -72 -13.5 -118t-52.5 -72q-42 -29 -119 -29q-27 0 -91 11v125q45 -5 56 -5q31 0 43 7q28 16 28 84zM-40 748l208 150l207 -150h-113l-94 49l-95 -49h-113z" />
    <glyph glyph-name="jcircumflex" unicode="&#x135;" horiz-adv-x="246" 
d="M57 510h142v-513q0 -107 -32 -145q-33 -38 -100 -38q-38 0 -76 7v116q8 -1 17 -1q33 0 42 17q7 12 7 45v512zM-79 571l203 159l202 -159h-110l-92 60l-93 -60h-110z" />
    <glyph glyph-name="Kcommaaccent" unicode="&#x136;" horiz-adv-x="543" 
d="M66 686h150v-286l166 286h153l-172 -252l186 -434h-156l-120 316l-57 -83v-233h-150v686zM260 -51h108l-81 -195h-56z" />
    <glyph glyph-name="kcommaaccent" unicode="&#x137;" horiz-adv-x="477" 
d="M53 689h142v-376l144 197h129l-128 -172l141 -338h-153l-81 237l-52 -73v-164h-142v689zM201 -55h104l-81 -192h-52z" />
    <glyph glyph-name="Lacute" unicode="&#x139;" horiz-adv-x="439" 
d="M66 686h150v-558h221v-128h-371v686zM157 792l212 112l33 -99l-215 -67z" />
    <glyph glyph-name="lacute" unicode="&#x13a;" horiz-adv-x="248" 
d="M53 689h142v-689h-142v689zM46 766l172 158l56 -84l-186 -117z" />
    <glyph glyph-name="Lcommaaccent" unicode="&#x13b;" horiz-adv-x="439" 
d="M66 686h150v-558h221v-128h-371v686zM189 -55h108l-81 -195h-56z" />
    <glyph glyph-name="lcommaaccent" unicode="&#x13c;" horiz-adv-x="248" 
d="M53 689h142v-689h-142v689zM87 -55h104l-81 -192h-52z" />
    <glyph glyph-name="Lcaron" unicode="&#x13d;" horiz-adv-x="439" 
d="M66 686h150v-558h221v-128h-371v686zM294 686h108l-81 -202h-56z" />
    <glyph glyph-name="lcaron" unicode="&#x13e;" horiz-adv-x="369" 
d="M53 689h142v-689h-142v689zM264 690h104l-81 -203h-52z" />
    <glyph glyph-name="Lslash" unicode="&#x141;" horiz-adv-x="439" 
d="M65 686h150v-239l113 113v-122l-113 -112v-198h222v-128h-372v223l-58 -58v120l58 60v341z" />
    <glyph glyph-name="lslash" unicode="&#x142;" horiz-adv-x="282" 
d="M70 690h142v-233l62 59v-100l-62 -59v-357h-142v263l-62 -63v100l62 63v327z" />
    <glyph glyph-name="Nacute" unicode="&#x143;" horiz-adv-x="580" 
d="M60 686h166l178 -426v426h116v-686h-134l-210 496v-496h-116v686zM227 792l212 112l33 -99l-215 -67z" />
    <glyph glyph-name="nacute" unicode="&#x144;" horiz-adv-x="495" 
d="M53 510h135v-70q14 35 42 55q33 25 86 25q58 0 92 -31q19 -18 28.5 -43t11 -42.5t1.5 -50.5v-353h-142v348q0 34 -13 47t-37 13q-32 0 -48 -20q-14 -20 -14 -61v-327h-142v510zM199 608l172 158l56 -84l-186 -117z" />
    <glyph glyph-name="Ncommaaccent" unicode="&#x145;" horiz-adv-x="580" 
d="M60 686h166l178 -426v426h116v-686h-134l-210 496v-496h-116v686zM259 -55h108l-81 -195h-56z" />
    <glyph glyph-name="ncommaaccent" unicode="&#x146;" horiz-adv-x="495" 
d="M53 510h135v-70q14 35 42 55q33 25 86 25q58 0 92 -31q19 -18 28.5 -43t11 -42.5t1.5 -50.5v-353h-142v348q0 34 -13 47t-37 13q-32 0 -48 -20q-14 -20 -14 -61v-327h-142v510zM210 -55h104l-81 -192h-52z" />
    <glyph glyph-name="Ncaron" unicode="&#x147;" horiz-adv-x="580" 
d="M60 686h166l178 -426v426h116v-686h-134l-210 496v-496h-116v686zM82 878h113l95 -49l94 49h113l-207 -150z" />
    <glyph glyph-name="ncaron" unicode="&#x148;" horiz-adv-x="495" 
d="M53 510h135v-70q14 35 42 55q33 25 86 25q58 0 92 -31q19 -18 28.5 -43t11 -42.5t1.5 -50.5v-353h-142v348q0 34 -13 47t-37 13q-32 0 -48 -20q-14 -20 -14 -61v-327h-142v510zM45 720h110l93 -60l92 60h110l-202 -158z" />
    <glyph glyph-name="Omacron" unicode="&#x14c;" horiz-adv-x="582" 
d="M291 697q102 0 167 -67q83 -87 83 -287q0 -175 -64.5 -264.5t-185.5 -89.5q-102 0 -167 67q-83 85 -83 287t83 287q65 67 167 67zM291 573q-41 0 -64 -38q-26 -44 -26 -192q0 -151 26 -193q23 -37 64 -37q42 0 65 37q25 42 25 193t-25 192q-22 38 -65 38zM145 845h291
v-77h-291v77z" />
    <glyph glyph-name="omacron" unicode="&#x14d;" horiz-adv-x="474" 
d="M237 520q92 0 143 -54q63 -67 63 -211t-63 -211q-51 -54 -143 -54t-143 54q-63 67 -63 211t63 211q51 54 143 54zM237 420q-24 0 -40 -21q-20 -27 -20 -144t20 -144q16 -21 40 -21t40 21q20 27 20 144t-20 144q-16 21 -40 21zM96 679h283v-75h-283v75z" />
    <glyph glyph-name="Obreve" unicode="&#x14e;" horiz-adv-x="582" 
d="M291 697q102 0 167 -67q83 -87 83 -287q0 -175 -64.5 -264.5t-185.5 -89.5q-102 0 -167 67q-83 85 -83 287t83 287q65 67 167 67zM291 573q-41 0 -64 -38q-26 -44 -26 -192q0 -151 26 -193q23 -37 64 -37q42 0 65 37q25 42 25 193t-25 192q-22 38 -65 38zM119 867h84
q19 -42 88 -42q68 0 87 42h84q-35 -117 -171 -117q-137 0 -172 117z" />
    <glyph glyph-name="obreve" unicode="&#x14f;" horiz-adv-x="474" 
d="M237 520q92 0 143 -54q63 -67 63 -211t-63 -211q-51 -54 -143 -54t-143 54q-63 67 -63 211t63 211q51 54 143 54zM237 420q-24 0 -40 -21q-20 -27 -20 -144t20 -144q16 -21 40 -21t40 21q20 27 20 144t-20 144q-16 21 -40 21zM71 707h80q24 -52 87 -52q29 0 53 13t33 39
h80q-5 -21 -14.5 -40t-28 -40t-50.5 -33.5t-73 -12.5q-78 0 -117 38.5t-50 87.5z" />
    <glyph glyph-name="Ohungarumlaut" unicode="&#x150;" horiz-adv-x="582" 
d="M291 697q102 0 167 -67q83 -87 83 -287q0 -175 -64.5 -264.5t-185.5 -89.5q-102 0 -167 67q-83 85 -83 287t83 287q65 67 167 67zM291 573q-41 0 -64 -38q-26 -44 -26 -192q0 -151 26 -193q23 -37 64 -37q42 0 65 37q25 42 25 193t-25 192q-22 38 -65 38zM305 904l47 -75
l-160 -95l-32 45zM478 903l47 -74l-159 -95l-33 45z" />
    <glyph glyph-name="ohungarumlaut" unicode="&#x151;" horiz-adv-x="474" 
d="M237 520q92 0 143 -54q63 -67 63 -211t-63 -211q-51 -54 -143 -54t-143 54q-63 67 -63 211t63 211q51 54 143 54zM237 420q-24 0 -40 -21q-20 -27 -20 -144t20 -144q16 -21 40 -21t40 21q20 27 20 144t-20 144q-16 21 -40 21zM257 742l58 -62l-145 -116l-38 39zM415 742
l57 -62l-143 -116l-40 39z" />
    <glyph glyph-name="OE" unicode="&#x152;" horiz-adv-x="807" 
d="M798 686v-118h-269v-159h209v-118h-209v-168h269v-123h-407q-64 -11 -87 -11q-79 0 -134 33q-129 77 -129 313q0 225 105 311q63 51 158 51q36 0 94 -11h400zM384 138v409q-27 27 -81 27q-41 0 -67 -36q-37 -51 -37 -206q0 -136 44 -189q25 -30 69 -30q47 0 72 25z" />
    <glyph glyph-name="oe" unicode="&#x153;" horiz-adv-x="741" 
d="M710 231h-271q-2 -84 16 -114q18 -28 56 -28q35 0 53 24q14 17 20 62l126 -8q-12 -74 -54 -119q-55 -59 -143 -59q-59 0 -97 21q-13 7 -46 34q-22 -22 -42 -34q-36 -21 -90 -21q-92 0 -143 53q-64 67 -64 213q0 145 64 212q51 53 143 53q58 0 97 -23q28 -17 41 -36
q50 59 131 59q110 0 165 -93q44 -77 38 -196zM238 422q-25 0 -40 -23q-20 -30 -20 -144q0 -120 19 -145q16 -21 41 -21q26 0 41 21q20 29 20 145q0 110 -20 144q-15 23 -41 23zM440 313h136q3 64 -17 89t-49 25q-35 0 -53 -30q-15 -25 -17 -84z" />
    <glyph glyph-name="Racute" unicode="&#x154;" horiz-adv-x="562" 
d="M66 686h241q108 0 162 -59q51 -56 51 -148q0 -69 -32 -120q-25 -40 -66 -59l126 -300h-165l-91 270h-75v-270h-151v686zM217 574v-192h66q53 0 75 36q14 23 14 60q0 43 -19 68q-22 28 -74 28h-62zM218 792l212 112l33 -99l-215 -67z" />
    <glyph glyph-name="racute" unicode="&#x155;" horiz-adv-x="317" 
d="M53 510h125v-123q15 60 44 93q33 37 80 37q10 0 21 -3v-139q-55 10 -90 -23q-17 -16 -26 -40.5t-10.5 -43t-1.5 -49.5v-219h-142v510zM110 608l172 158l56 -84l-186 -117z" />
    <glyph glyph-name="Rcommaaccent" unicode="&#x156;" horiz-adv-x="562" 
d="M66 686h241q108 0 162 -59q51 -56 51 -148q0 -69 -32 -120q-25 -40 -66 -59l126 -300h-165l-91 270h-75v-270h-151v686zM217 574v-192h66q53 0 75 36q14 23 14 60q0 43 -19 68q-22 28 -74 28h-62zM250 -55h108l-81 -195h-56z" />
    <glyph glyph-name="rcommaaccent" unicode="&#x157;" horiz-adv-x="317" 
d="M53 510h125v-123q15 60 44 93q33 37 80 37q10 0 21 -3v-139q-55 10 -90 -23q-17 -16 -26 -40.5t-10.5 -43t-1.5 -49.5v-219h-142v510zM121 -55h104l-81 -192h-52z" />
    <glyph glyph-name="Rcaron" unicode="&#x158;" horiz-adv-x="562" 
d="M66 686h241q108 0 162 -59q51 -56 51 -148q0 -69 -32 -120q-25 -40 -66 -59l126 -300h-165l-91 270h-75v-270h-151v686zM217 574v-192h66q53 0 75 36q14 23 14 60q0 43 -19 68q-22 28 -74 28h-62zM73 878h113l95 -49l94 49h113l-207 -150z" />
    <glyph glyph-name="rcaron" unicode="&#x159;" horiz-adv-x="317" 
d="M53 510h125v-123q15 60 44 93q33 37 80 37q10 0 21 -3v-139q-55 10 -90 -23q-17 -16 -26 -40.5t-10.5 -43t-1.5 -49.5v-219h-142v510zM-44 720h110l93 -60l92 60h110l-202 -158z" />
    <glyph glyph-name="Sacute" unicode="&#x15a;" 
d="M484 537l-124 -48q-11 36 -30 56q-26 28 -68 28q-25 0 -45 -13q-26 -17 -26 -51q0 -29 31 -50q23 -16 87 -40q86 -32 121 -62q68 -58 68 -149q0 -101 -73 -163q-66 -56 -170 -56q-113 0 -179 73q-42 45 -59 115l131 39q8 -40 28 -64q30 -39 85 -39q38 0 58 16
q27 21 27 55q0 33 -24 54q-16 14 -71 34q-99 35 -142 71q-64 54 -64 142q0 97 62 157q58 55 155 55q99 0 155 -47q52 -43 67 -113zM201 792l212 112l33 -99l-215 -67z" />
    <glyph glyph-name="sacute" unicode="&#x15b;" horiz-adv-x="423" 
d="M389 387l-101 -30q-5 24 -22 44q-21 25 -51 25q-22 0 -34 -12t-12 -31q0 -28 22 -44q13 -9 63 -27q79 -28 104 -50q46 -41 46 -104q0 -66 -40 -111q-53 -58 -153 -58q-96 0 -144 48q-37 36 -47 104l113 18q6 -30 22 -49q23 -27 60 -27q28 0 42 14q13 13 13 34
q0 25 -22 42q-17 13 -59 25q-71 21 -107 54q-46 42 -46 110q0 67 48 111q51 47 132 47q76 0 123 -44q37 -36 50 -89zM137 608l172 158l56 -84l-186 -117z" />
    <glyph glyph-name="Scircumflex" unicode="&#x15c;" 
d="M484 537l-124 -48q-11 36 -30 56q-26 28 -68 28q-25 0 -45 -13q-26 -17 -26 -51q0 -29 31 -50q23 -16 87 -40q86 -32 121 -62q68 -58 68 -149q0 -101 -73 -163q-66 -56 -170 -56q-113 0 -179 73q-42 45 -59 115l131 39q8 -40 28 -64q30 -39 85 -39q38 0 58 16
q27 21 27 55q0 33 -24 54q-16 14 -71 34q-99 35 -142 71q-64 54 -64 142q0 97 62 157q58 55 155 55q99 0 155 -47q52 -43 67 -113zM56 748l208 150l207 -150h-113l-94 49l-95 -49h-113z" />
    <glyph glyph-name="scircumflex" unicode="&#x15d;" horiz-adv-x="423" 
d="M389 387l-101 -30q-5 24 -22 44q-21 25 -51 25q-22 0 -34 -12t-12 -31q0 -28 22 -44q13 -9 63 -27q79 -28 104 -50q46 -41 46 -104q0 -66 -40 -111q-53 -58 -153 -58q-96 0 -144 48q-37 36 -47 104l113 18q6 -30 22 -49q23 -27 60 -27q28 0 42 14q13 13 13 34
q0 25 -22 42q-17 13 -59 25q-71 21 -107 54q-46 42 -46 110q0 67 48 111q51 47 132 47q76 0 123 -44q37 -36 50 -89zM9 571l203 159l202 -159h-110l-92 60l-93 -60h-110z" />
    <glyph glyph-name="Scedilla" unicode="&#x15e;" 
d="M484 537l-124 -48q-11 36 -30 56q-26 28 -68 28q-25 0 -45 -13q-26 -17 -26 -51q0 -29 31 -50q23 -16 87 -40q86 -32 121 -62q68 -58 68 -149q0 -101 -73 -163q-53 -44 -127 -53l-16 -45q56 7 84 -25q21 -24 21 -57q0 -37 -27 -61q-29 -25 -78 -25q-62 0 -117 37l18 45
q18 -12 39 -18q26 -8 45 -8q16 0 24 8t8 20q0 21 -16 32q-13 9 -38 11h-38l31 83q-100 4 -162 73q-41 44 -59 115l131 39q8 -40 28 -64q30 -39 85 -39q38 0 58 16q27 21 27 55q0 33 -24 54q-16 14 -71 34q-99 35 -142 71q-64 54 -64 142q0 97 62 157q58 55 155 55
q99 0 155 -47q52 -43 67 -113z" />
    <glyph glyph-name="Scedilla" unicode="&#xf6c1;" 
d="M484 537l-124 -48q-11 36 -30 56q-26 28 -68 28q-25 0 -45 -13q-26 -17 -26 -51q0 -29 31 -50q23 -16 87 -40q86 -32 121 -62q68 -58 68 -149q0 -101 -73 -163q-53 -44 -127 -53l-16 -45q56 7 84 -25q21 -24 21 -57q0 -37 -27 -61q-29 -25 -78 -25q-62 0 -117 37l18 45
q18 -12 39 -18q26 -8 45 -8q16 0 24 8t8 20q0 21 -16 32q-13 9 -38 11h-38l31 83q-100 4 -162 73q-41 44 -59 115l131 39q8 -40 28 -64q30 -39 85 -39q38 0 58 16q27 21 27 55q0 33 -24 54q-16 14 -71 34q-99 35 -142 71q-64 54 -64 142q0 97 62 157q58 55 155 55
q99 0 155 -47q52 -43 67 -113z" />
    <glyph glyph-name="scedilla" unicode="&#x15f;" horiz-adv-x="423" 
d="M389 387l-101 -30q-5 24 -22 44q-20 25 -49 25q-24 0 -36 -12t-12 -31q0 -28 22 -44q13 -9 63 -27q79 -28 104 -50q46 -41 46 -104q0 -66 -40 -111q-44 -49 -119 -56l-17 -42q48 6 77 -19q25 -23 25 -60q0 -38 -25 -61q-27 -25 -81 -25t-109 36l16 42q44 -26 83 -26
q18 0 26 8q10 7 10 22q0 21 -17 33q-16 12 -48 12q-15 0 -29 -3l30 82q-77 7 -119 47q-37 36 -47 104l113 18q7 -32 22 -49q21 -26 62 -26q26 0 40 13q13 12 13 34q0 25 -22 42q-19 14 -59 25q-71 21 -107 54q-46 42 -46 110q0 67 48 111q51 47 128 47q81 0 127 -44
q37 -34 50 -89z" />
    <glyph glyph-name="scedilla" unicode="&#xf6c2;" horiz-adv-x="423" 
d="M389 387l-101 -30q-5 24 -22 44q-20 25 -49 25q-24 0 -36 -12t-12 -31q0 -28 22 -44q13 -9 63 -27q79 -28 104 -50q46 -41 46 -104q0 -66 -40 -111q-44 -49 -119 -56l-17 -42q48 6 77 -19q25 -23 25 -60q0 -38 -25 -61q-27 -25 -81 -25t-109 36l16 42q44 -26 83 -26
q18 0 26 8q10 7 10 22q0 21 -17 33q-16 12 -48 12q-15 0 -29 -3l30 82q-77 7 -119 47q-37 36 -47 104l113 18q7 -32 22 -49q21 -26 62 -26q26 0 40 13q13 12 13 34q0 25 -22 42q-19 14 -59 25q-71 21 -107 54q-46 42 -46 110q0 67 48 111q51 47 128 47q81 0 127 -44
q37 -34 50 -89z" />
    <glyph glyph-name="Scaron" unicode="&#x160;" 
d="M484 537l-124 -48q-11 36 -30 56q-26 28 -68 28q-25 0 -45 -13q-26 -17 -26 -51q0 -29 31 -50q23 -16 87 -40q86 -32 121 -62q68 -58 68 -149q0 -101 -73 -163q-66 -56 -170 -56q-113 0 -179 73q-42 45 -59 115l131 39q8 -40 28 -64q30 -39 85 -39q38 0 58 16
q27 21 27 55q0 33 -24 54q-16 14 -71 34q-99 35 -142 71q-64 54 -64 142q0 97 62 157q58 55 155 55q99 0 155 -47q52 -43 67 -113zM56 878h113l95 -49l94 49h113l-207 -150z" />
    <glyph glyph-name="scaron" unicode="&#x161;" horiz-adv-x="423" 
d="M389 387l-101 -30q-5 24 -22 44q-21 25 -51 25q-22 0 -34 -12t-12 -31q0 -28 22 -44q13 -9 63 -27q79 -28 104 -50q46 -41 46 -104q0 -66 -40 -111q-53 -58 -153 -58q-96 0 -144 48q-37 36 -47 104l113 18q6 -30 22 -49q23 -27 60 -27q28 0 42 14q13 13 13 34
q0 25 -22 42q-17 13 -59 25q-71 21 -107 54q-46 42 -46 110q0 67 48 111q51 47 132 47q76 0 123 -44q37 -36 50 -89zM9 720h110l93 -60l92 60h110l-202 -158z" />
    <glyph glyph-name="Tcedilla" unicode="&#x162;" horiz-adv-x="423" 
d="M-3 686h429v-128h-141v-558h-42l-19 -53q56 7 84 -25q21 -24 21 -57q0 -37 -27 -61q-29 -25 -78 -25q-62 0 -117 37l18 45q18 -12 39 -18q26 -8 45 -8q16 0 24 8t8 20q0 21 -16 32q-13 9 -38 11h-38l35 94h-49v558h-138v128z" />
    <glyph glyph-name="tcedilla" unicode="&#x163;" horiz-adv-x="322" 
d="M93 660l123 11v-161h95v-112h-95v-223q0 -33 8 -46q13 -23 53 -23q25 0 41 2v-108q-58 -11 -90 -11q-10 0 -26 2l-17 -42q48 6 77 -19q25 -23 25 -60q0 -38 -25 -61q-27 -25 -81 -25t-109 36l16 42q44 -26 83 -26q18 0 26 8q10 7 10 22q0 21 -17 33q-16 12 -48 12
q-16 0 -29 -3l36 96q-75 30 -75 147v247h-57v112h64z" />
    <glyph glyph-name="Tcaron" unicode="&#x164;" horiz-adv-x="403" 
d="M-13 686h429v-128h-141v-558h-150v558h-138v128zM-6 878h113l95 -49l94 49h113l-207 -150z" />
    <glyph glyph-name="tcaron" unicode="&#x165;" horiz-adv-x="404" 
d="M93 660l123 11v-161h95v-112h-95v-223q0 -33 8 -46q13 -23 53 -23q25 0 41 2v-108q-56 -11 -87 -11q-76 0 -115 35q-42 38 -42 127v247h-57v112h64zM299 767h104l-81 -203h-52z" />
    <glyph glyph-name="Umacron" unicode="&#x16a;" horiz-adv-x="597" 
d="M66 686h150v-392v-26v-26t0.5 -22.5t1.5 -22.5t3.5 -18.5t6 -18t8.5 -14.5q25 -33 79 -33q40 0 62 22q28 28 28 100v451h126v-453q0 -147 -83 -205q-55 -39 -146 -39q-95 0 -147 33q-53 34 -71 95t-18 159v410zM153 845h291v-77h-291v77z" />
    <glyph glyph-name="umacron" unicode="&#x16b;" horiz-adv-x="495" 
d="M46 510h142v-355q0 -25 9 -38q12 -17 42 -17q29 0 43 18q18 22 18 94v298h142v-510h-134v70q-17 -34 -40 -53q-33 -28 -86 -28q-59 0 -92 25q-44 34 -44 113v383zM106 679h283v-75h-283v75z" />
    <glyph glyph-name="Ubreve" unicode="&#x16c;" horiz-adv-x="597" 
d="M66 686h150v-392v-26v-26t0.5 -22.5t1.5 -22.5t3.5 -18.5t6 -18t8.5 -14.5q25 -33 79 -33q40 0 62 22q28 28 28 100v451h126v-453q0 -147 -83 -205q-55 -39 -146 -39q-95 0 -147 33q-53 34 -71 95t-18 159v410zM127 867h84q19 -42 88 -42q68 0 87 42h84
q-35 -117 -171 -117q-137 0 -172 117z" />
    <glyph glyph-name="ubreve" unicode="&#x16d;" horiz-adv-x="495" 
d="M46 510h142v-355q0 -25 9 -38q12 -17 42 -17q29 0 43 18q18 22 18 94v298h142v-510h-134v70q-17 -34 -40 -53q-33 -28 -86 -28q-59 0 -92 25q-44 34 -44 113v383zM81 707h80q24 -52 87 -52q29 0 53 13t33 39h80q-5 -21 -14.5 -40t-28 -40t-50.5 -33.5t-73 -12.5
q-78 0 -117 38.5t-50 87.5z" />
    <glyph glyph-name="Uring" unicode="&#x16e;" horiz-adv-x="597" 
d="M66 686h150v-392v-26v-26t0.5 -22.5t1.5 -22.5t3.5 -18.5t6 -18t8.5 -14.5q25 -33 79 -33q40 0 62 22q28 28 28 100v451h126v-453q0 -147 -83 -205q-55 -39 -146 -39q-95 0 -147 33q-53 34 -71 95t-18 159v410zM298 730q-41 0 -71 30q-28 28 -28 70q0 46 29 73t71 27
t71 -29q28 -27 28 -71q0 -42 -28 -70q-30 -30 -72 -30zM298 788q18 0 29 12q11 11 11 30q0 16 -10 28q-11 14 -29 14t-29 -12q-11 -11 -11 -30t14 -32q11 -10 25 -10z" />
    <glyph glyph-name="uring" unicode="&#x16f;" horiz-adv-x="495" 
d="M46 510h142v-355q0 -25 9 -38q12 -17 42 -17q29 0 43 18q18 22 18 94v298h142v-510h-134v70q-17 -34 -40 -53q-33 -28 -86 -28q-59 0 -92 25q-44 34 -44 113v383zM247 560q-36 0 -68 29q-29 26 -29 69q0 40 29 69q28 28 69 28t69 -28t28 -69q0 -40 -26 -68
q-28 -30 -72 -30zM247 617q18 0 28 11q11 11 11 30q0 18 -11 29q-12 12 -27 12q-19 0 -29 -12q-10 -11 -10 -29q0 -19 11 -30t27 -11z" />
    <glyph glyph-name="Uhungarumlaut" unicode="&#x170;" horiz-adv-x="597" 
d="M66 686h150v-392v-26v-26t0.5 -22.5t1.5 -22.5t3.5 -18.5t6 -18t8.5 -14.5q25 -33 79 -33q40 0 62 22q28 28 28 100v451h126v-453q0 -147 -83 -205q-55 -39 -146 -39q-95 0 -147 33q-53 34 -71 95t-18 159v410zM313 904l47 -75l-160 -95l-32 45zM486 903l47 -74l-159 -95
l-33 45z" />
    <glyph glyph-name="uhungarumlaut" unicode="&#x171;" horiz-adv-x="495" 
d="M46 510h142v-355q0 -25 9 -38q12 -17 42 -17q29 0 43 18q18 22 18 94v298h142v-510h-134v70q-17 -34 -40 -53q-33 -28 -86 -28q-59 0 -92 25q-44 34 -44 113v383zM257 745l58 -62l-145 -116l-38 39zM415 745l57 -62l-143 -116l-40 39z" />
    <glyph glyph-name="Uogonek" unicode="&#x172;" horiz-adv-x="598" 
d="M66 686h151l-2 -392q0 -66 4 -98t18 -50q25 -33 79 -33q40 0 62 22q28 28 28 100v451h126v-453q0 -150 -83 -205q-23 -15 -53 -25q-17 -16 -27 -29q-23 -30 -23 -56q0 -25 17 -40q18 -16 55 -16q18 0 30 3l11 -50q-36 -8 -61 -8q-65 0 -96 23q-37 27 -37 71q0 37 28 65
q10 10 29 24q-42 -4 -89 5t-77 27q-56 34 -73 93.5t-17 160.5v410z" />
    <glyph glyph-name="uogonek" unicode="&#x173;" horiz-adv-x="495" 
d="M46 510h142v-355q0 -25 9 -38q12 -17 42 -17q29 0 43 18q18 22 18 94v298h142v-510h-38q-8 -7 -24 -25q-22 -26 -22 -57q0 -20 12 -33q18 -20 57 -20q14 0 30 5l11 -48q-26 -10 -62 -10q-67 0 -99 28q-29 26 -29 63q0 35 27 64q18 18 44 33h-41v70q-17 -34 -40 -53
q-33 -28 -86 -28q-59 0 -92 25q-44 34 -44 113v383z" />
    <glyph glyph-name="Ydieresis" unicode="&#x178;" horiz-adv-x="456" 
d="M-29 686h166l97 -251l103 251h148l-192 -396v-290h-150v290zM200 862v-118h-107v118h107zM381 862v-118h-107v118h107z" />
    <glyph glyph-name="Zacute" unicode="&#x179;" horiz-adv-x="473" 
d="M22 686h440v-107l-285 -455h295v-124h-471v105l288 457h-267v124zM174 792l212 112l33 -99l-215 -67z" />
    <glyph glyph-name="zacute" unicode="&#x17a;" horiz-adv-x="370" 
d="M38 510h318v-92l-189 -318h194v-100h-340v101l186 309h-169v100zM137 608l172 158l56 -84l-186 -117z" />
    <glyph glyph-name="Zdotaccent" unicode="&#x17b;" horiz-adv-x="473" 
d="M22 686h440v-107l-285 -455h295v-124h-471v105l288 457h-267v124zM175 876h121v-140h-121v140z" />
    <glyph glyph-name="zdotaccent" unicode="&#x17c;" horiz-adv-x="370" 
d="M38 510h318v-92l-189 -318h194v-100h-340v101l186 309h-169v100zM125 711h121v-140h-121v140z" />
    <glyph glyph-name="Zcaron" unicode="&#x17d;" horiz-adv-x="473" 
d="M22 686h440v-107l-285 -455h295v-124h-471v105l288 457h-267v124zM29 878h113l95 -49l94 49h113l-207 -150z" />
    <glyph glyph-name="zcaron" unicode="&#x17e;" horiz-adv-x="370" 
d="M38 510h318v-92l-189 -318h194v-100h-340v101l186 309h-169v100zM-17 720h110l93 -60l92 60h110l-202 -158z" />
    <glyph glyph-name="Schwa" unicode="&#x18f;" horiz-adv-x="580" 
d="M38 392h345q0 4 -1 21t-1.5 21.5t-1.5 18.5t-2.5 20l-4 16.5t-6 19t-7.5 16.5q-26 48 -82 48q-44 0 -71 -35q-16 -22 -25 -66l-135 18q11 95 73 151q61 56 160 56q100 0 163 -59q51 -47 74 -128t23 -170q0 -87 -22.5 -163.5t-68.5 -122.5q-65 -65 -178 -65
q-133 0 -193 117q-20 39 -31 106t-11 125q0 28 3 55zM385 274h-212q0 -86 32 -127q26 -34 70 -34q51 0 80 36q30 39 30 125z" />
    <glyph glyph-name="florin" unicode="&#x192;" 
d="M367 495h88l-16 -112h-88l-48 -338q-4 -31 -9.5 -54t-18 -51.5t-31 -46.5t-50 -31t-73.5 -13q-19 0 -61 7l18 113q12 -2 41 -2q24 0 35.5 17.5t19.5 75.5l45 323h-72l15 111h73q7 44 12 69t20.5 58.5t38.5 51.5q38 30 101 30q33 0 77 -12l-16 -112q-22 10 -40 10
q-27 0 -41 -18q-12 -15 -18 -59z" />
    <glyph glyph-name="Icaron" unicode="&#x1cf;" horiz-adv-x="282" 
d="M66 686h150v-686h-150v686zM-66 878h113l95 -49l94 49h113l-207 -150z" />
    <glyph glyph-name="icaron" unicode="&#x1d0;" horiz-adv-x="246" 
d="M52 510h142v-510h-142v510zM-79 720h110l93 -60l92 60h110l-202 -158z" />
    <glyph glyph-name="eturn" unicode="&#x1dd;" horiz-adv-x="476" 
d="M31 279h268q2 91 -15 119t-55 28q-33 0 -52 -24q-16 -20 -19 -67l-127 8q14 75 54 118q54 59 150 59q90 0 144 -55q66 -67 66 -205q0 -140 -64 -210q-56 -60 -146 -60q-111 0 -166 93q-45 76 -38 196zM298 197h-133q-1 -61 18 -88q20 -25 49 -25q32 0 50 29q13 21 16 84z
" />
    <glyph glyph-name="Gcaron" unicode="&#x1e6;" horiz-adv-x="599" 
d="M308 366h238v-366h-64l-19 78q-18 -30 -51 -54q-50 -35 -107 -35q-102 0 -166 59q-49 44 -73.5 121.5t-24.5 164.5q0 107 29 186.5t80 122.5q63 54 158 54q94 0 150 -43q72 -55 88 -192l-136 -23q-5 74 -36 107q-24 27 -60 27q-34 0 -60 -21q-53 -45 -53 -216
q0 -149 45 -194q29 -29 73 -29q42 0 66 31q23 29 25 104h-102v118zM92 878h113l95 -49l94 49h113l-207 -150z" />
    <glyph glyph-name="gcaron" unicode="&#x1e7;" horiz-adv-x="475" 
d="M486 593v-92q-12 4 -32 4q-28 0 -41 -18q-9 -12 -12 -28q37 -37 37 -98q0 -70 -45 -112q-48 -44 -138 -44q-29 0 -67 9q-12 -6 -19 -13q-14 -12 -14 -27q0 -11 5 -18t16.5 -10.5t19.5 -4.5t23 -2q67 -2 115 -8q82 -10 114 -46q31 -35 31 -93q0 -72 -46 -115
q-61 -56 -203 -56q-117 0 -165 36q-43 32 -43 82q0 40 26 66q21 21 56 31q-65 29 -65 83q0 49 36 83q15 15 51 35q-75 30 -75 128q0 66 43 107q50 48 148 48q62 0 108 -23q3 55 32 82q21 19 60 19q22 0 44 -5zM249 444q-26 0 -39 -19q-13 -18 -13 -66q0 -49 17 -66
q13 -13 33 -13q26 0 37 23q8 18 8 58q0 46 -12 66q-11 17 -31 17zM183 23q-19 -11 -28 -21q-16 -17 -16 -41q0 -26 26 -39t84 -13q56 0 79 10q28 13 28 45q0 26 -19 39q-15 10 -92 14q-35 1 -62 6zM35 720h110l93 -60l92 60h110l-202 -158z" />
    <glyph glyph-name="Scommaaccent" unicode="&#x218;" 
d="M484 537l-124 -48q-11 36 -30 56q-26 28 -68 28q-25 0 -45 -13q-26 -17 -26 -51q0 -29 31 -50q23 -16 87 -40q86 -32 121 -62q68 -58 68 -149q0 -101 -73 -163q-66 -56 -170 -56q-113 0 -179 73q-42 45 -59 115l131 39q8 -40 28 -64q30 -39 85 -39q38 0 58 16
q27 21 27 55q0 33 -24 54q-16 14 -71 34q-99 35 -142 71q-64 54 -64 142q0 97 62 157q58 55 155 55q99 0 155 -47q52 -43 67 -113zM233 -55h108l-81 -195h-56z" />
    <glyph glyph-name="scommaaccent" unicode="&#x219;" horiz-adv-x="423" 
d="M389 387l-101 -30q-5 24 -22 44q-21 25 -51 25q-22 0 -34 -12t-12 -31q0 -28 22 -44q13 -9 63 -27q79 -28 104 -50q46 -41 46 -104q0 -66 -40 -111q-53 -58 -153 -58q-96 0 -144 48q-37 36 -47 104l113 18q6 -30 22 -49q23 -27 60 -27q28 0 42 14q13 13 13 34
q0 25 -22 42q-17 13 -59 25q-71 21 -107 54q-46 42 -46 110q0 67 48 111q51 47 132 47q76 0 123 -44q37 -36 50 -89zM174 -55h104l-81 -192h-52z" />
    <glyph glyph-name="Tcommaaccent" unicode="&#x21a;" horiz-adv-x="403" 
d="M-13 686h429v-128h-141v-558h-150v558h-138v128zM171 -55h108l-81 -195h-56z" />
    <glyph glyph-name="tcommaaccent" unicode="&#x21b;" horiz-adv-x="322" 
d="M93 660l123 11v-161h95v-112h-95v-223q0 -33 8 -46q13 -23 53 -23q25 0 41 2v-108q-56 -11 -87 -11q-76 0 -115 35q-42 38 -42 127v247h-57v112h64zM124 -55h104l-81 -192h-52z" />
    <glyph glyph-name="Ecedilla" unicode="&#x228;" horiz-adv-x="493" 
d="M66 686h418v-118h-268v-159h208v-118h-208v-173h268v-118h-180l-19 -53q56 7 84 -25q21 -24 21 -57q0 -37 -27 -61q-29 -25 -78 -25q-61 0 -117 37l18 45q18 -12 39 -18q26 -8 45 -8q16 0 24 8t8 20q0 21 -16 32q-17 12 -76 11l35 94h-179v686z" />
    <glyph glyph-name="ecedilla" unicode="&#x229;" horiz-adv-x="476" 
d="M445 231h-268q-2 -91 15 -119t55 -28q33 0 52 24q16 20 19 67l127 -8q-14 -75 -54 -118q-46 -51 -120 -57l-17 -43q48 6 77 -19q25 -23 25 -60q0 -38 -25 -61q-27 -25 -81 -25t-109 36l16 42q44 -26 83 -26q18 0 26 8q10 7 10 22q0 21 -17 33q-16 12 -48 12q-15 0 -29 -3
l31 83q-71 7 -116 54q-66 67 -66 205q0 140 64 210q56 60 146 60q111 0 166 -93q45 -76 38 -196zM178 313h133q1 61 -18 88q-20 25 -49 25q-32 0 -50 -29q-13 -21 -16 -84z" />
    <glyph glyph-name="schwa" unicode="&#x259;" horiz-adv-x="476" 
d="M31 279h268q2 91 -15 119t-55 28q-33 0 -52 -24q-16 -20 -19 -67l-127 8q14 75 54 118q54 59 150 59q90 0 144 -55q66 -67 66 -205q0 -140 -64 -210q-56 -60 -146 -60q-111 0 -166 93q-45 76 -38 196zM298 197h-133q-1 -61 18 -88q20 -25 49 -25q32 0 50 29q13 21 16 84z
" />
    <glyph glyph-name="afii57929" unicode="&#x2bc;" horiz-adv-x="481" 
d="M308 690h104l-81 -203h-52z" />
    <glyph glyph-name="circumflex" unicode="&#x2c6;" horiz-adv-x="477" 
d="M36 571l203 159l202 -159h-110l-92 60l-93 -60h-110z" />
    <glyph glyph-name="caron" unicode="&#x2c7;" horiz-adv-x="477" 
d="M36 720h110l93 -60l92 60h110l-202 -158z" />
    <glyph glyph-name="breve" unicode="&#x2d8;" horiz-adv-x="477" 
d="M72 707h80q24 -52 87 -52q29 0 53 13t33 39h80q-5 -21 -14.5 -40t-28 -40t-50.5 -33.5t-73 -12.5q-78 0 -117 38.5t-50 87.5z" />
    <glyph glyph-name="dotaccent" unicode="&#x2d9;" horiz-adv-x="481" 
d="M180 711h121v-140h-121v140z" />
    <glyph glyph-name="ring" unicode="&#x2da;" horiz-adv-x="480" 
d="M240 560q-36 0 -68 29q-29 26 -29 69q0 40 29 69q28 28 69 28t69 -28t28 -69q0 -40 -26 -68q-28 -30 -72 -30zM240 617q18 0 28 11q11 11 11 30q0 18 -11 29q-12 12 -27 12q-19 0 -29 -12q-10 -11 -10 -29q0 -19 11 -30t27 -11z" />
    <glyph glyph-name="ogonek" unicode="&#x2db;" horiz-adv-x="480" 
d="M266 0h55q-8 -7 -24 -25q-22 -26 -22 -57q0 -20 12 -33q18 -20 57 -20q14 0 30 5l11 -48q-26 -10 -62 -10q-67 0 -99 28q-29 26 -29 63q0 35 27 64q18 18 44 33z" />
    <glyph glyph-name="tilde" unicode="&#x2dc;" horiz-adv-x="477" 
d="M360 699l44 -33q-16 -25 -34 -42q-38 -35 -78 -35q-28 0 -66 18q-44 19 -61 19q-25 0 -49 -31l-43 33q14 21 39 43q35 29 68 29q25 0 70 -17q49 -20 60 -20q17 0 34 17q1 1 7 8t9 11z" />
    <glyph glyph-name="hungarumlaut" unicode="&#x2dd;" horiz-adv-x="477" 
d="M258 742l58 -62l-145 -116l-38 39zM416 742l57 -62l-143 -116l-40 39z" />
    <glyph glyph-name="accent" unicode="&#x301;" horiz-adv-x="2" 
d="M-246 608l172 158l56 -84l-186 -117z" />
    <glyph glyph-name="accent" unicode="&#xf400;" horiz-adv-x="2" 
d="M-246 608l172 158l56 -84l-186 -117z" />
    <glyph glyph-name="Delta" unicode="&#x394;" horiz-adv-x="665" 
d="M8 0l249 686h150l250 -686h-649zM194 126h275l-136 406z" />
    <glyph glyph-name="Delta" unicode="&#x2206;" horiz-adv-x="665" 
d="M8 0l249 686h150l250 -686h-649zM194 126h275l-136 406z" />
    <glyph glyph-name="Omega" unicode="&#x3a9;" horiz-adv-x="688" 
d="M29 0v126h145q-73 45 -108 103q-40 66 -40 143q0 138 93 234.5t225 96.5q126 0 216 -86q102 -97 102 -245q0 -77 -40 -143q-35 -56 -109 -103h146v-126h-278v117q57 24 97 94q36 62 36 133q0 104 -53 171q-48 60 -117 60t-116 -55q-55 -63 -55 -176q0 -81 41 -144
q40 -63 92 -83v-117h-277z" />
    <glyph glyph-name="Omega" unicode="&#x2126;" horiz-adv-x="688" 
d="M29 0v126h145q-73 45 -108 103q-40 66 -40 143q0 138 93 234.5t225 96.5q126 0 216 -86q102 -97 102 -245q0 -77 -40 -143q-35 -56 -109 -103h146v-126h-278v117q57 24 97 94q36 62 36 133q0 104 -53 171q-48 60 -117 60t-116 -55q-55 -63 -55 -176q0 -81 41 -144
q40 -63 92 -83v-117h-277z" />
    <glyph glyph-name="pi" unicode="&#x3c0;" horiz-adv-x="639" 
d="M95 0v387h-74v108h597v-108h-74v-387h-136v387h-176v-387h-137z" />
    <glyph glyph-name="afii10023" unicode="&#x401;" horiz-adv-x="493" 
d="M238 873v-118h-107v118h107zM419 873v-118h-107v118h107zM66 686h418v-118h-268v-159h208v-118h-208v-173h268v-118h-418v686z" />
    <glyph glyph-name="afii10051" unicode="&#x402;" horiz-adv-x="640" 
d="M-12 686h464v-118h-176v-177q66 26 133 26q99 0 155 -67q46 -58 46 -159q0 -90 -41 -140q-50 -63 -156 -63q-50 0 -89 12l16 116q30 -8 49 -8q39 0 54 23q13 17 13 63q0 45 -15 70q-21 33 -71 33q-48 0 -94 -22v-275h-150v568h-138v118z" />
    <glyph glyph-name="afii10052" unicode="&#x403;" horiz-adv-x="455" 
d="M216 558v-558h-150v686h394v-128h-244zM176 792l212 112l33 -99l-215 -67z" />
    <glyph glyph-name="afii10053" unicode="&#x404;" horiz-adv-x="559" 
d="M397 217l136 -16q-15 -112 -84 -168q-54 -44 -142 -44q-110 0 -175 65q-46 46 -68.5 122.5t-22.5 163.5q0 89 23 170t74 128q64 59 163 59q95 0 156 -56q66 -62 77 -171l-135 -18q-4 55 -26 86q-25 35 -73 35q-52 0 -78 -48q-20 -36 -25 -113h153v-118h-155
q0 -99 30 -143q27 -38 78 -38q42 0 66 26t28 78z" />
    <glyph glyph-name="afii10054" unicode="&#x405;" 
d="M484 537l-124 -48q-11 36 -30 56q-26 28 -68 28q-25 0 -45 -13q-26 -17 -26 -51q0 -29 31 -50q23 -16 87 -40q86 -32 121 -62q68 -58 68 -149q0 -101 -73 -163q-66 -56 -170 -56q-113 0 -179 73q-42 45 -59 115l131 39q8 -40 28 -64q30 -39 85 -39q38 0 58 16
q27 21 27 55q0 33 -24 54q-16 14 -71 34q-99 35 -142 71q-64 54 -64 142q0 97 62 157q58 55 155 55q99 0 155 -47q52 -43 67 -113z" />
    <glyph glyph-name="afii10055" unicode="&#x406;" horiz-adv-x="282" 
d="M66 686h150v-686h-150v686z" />
    <glyph glyph-name="afii10056" unicode="&#x407;" horiz-adv-x="306" 
d="M78 686h150v-686h-150v686zM109 871v-116h-103v116h103zM300 871v-116h-103v116h103z" />
    <glyph glyph-name="afii10057" unicode="&#x408;" horiz-adv-x="334" 
d="M121 686h150v-478q0 -72 -13.5 -118t-52.5 -72q-42 -29 -119 -29q-27 0 -91 11v125q36 -5 60 -5q29 0 39 7q27 16 27 84v475z" />
    <glyph glyph-name="afii10058" unicode="&#x409;" horiz-adv-x="861" 
d="M109 686h399v-250h70q119 0 176 -41q77 -56 77 -183q0 -121 -78 -176q-24 -17 -55.5 -25.5t-52 -9.5t-56.5 -1h-231v558h-119v-21q0 -166 -14 -304q-13 -126 -52 -177q-46 -63 -134 -63q-25 0 -49 7v125q48 -8 74 28q17 24 24 72q5 35 13 196q5 115 7 217zM508 118h66
q41 0 69 17q34 22 34 81q0 60 -31 84q-23 18 -72 18h-66v-200z" />
    <glyph glyph-name="afii10059" unicode="&#x40a;" horiz-adv-x="884" 
d="M66 686h150v-264h165v264h150v-264h68q119 0 176 -41q79 -57 79 -175q0 -116 -78 -170q-24 -17 -56 -25.5t-52 -9.5t-56 -1h-231v298h-165v-298h-150v686zM531 118h66q41 0 69 17q34 22 34 73q0 49 -31 72q-24 18 -72 18h-66v-180z" />
    <glyph glyph-name="afii10060" unicode="&#x40b;" horiz-adv-x="656" 
d="M-13 686h464v-118h-176v-178q61 27 123 27q87 0 139 -52q53 -53 53 -154v-211h-150v190q0 57 -12 76q-20 31 -66 31q-39 0 -87 -22v-275h-150v568h-138v118z" />
    <glyph glyph-name="afii10061" unicode="&#x40c;" horiz-adv-x="546" 
d="M216 686v-280h51q49 0 60 42q3 12 11 85q6 59 15 86q13 39 38 55q27 18 82 18q28 0 47 -6v-112h-8q-8 0 -12.5 -1.5t-11 -11.5t-9.5 -29q-9 -61 -12 -80q-7 -42 -29 -66q-19 -21 -46 -29v-3q55 -8 79 -55q14 -29 21 -90q7 -60 15 -73q10 -16 29 -12v-124q-17 -6 -47 -6
q-85 0 -114 53q-16 30 -26 147q-6 61 -19 77q-18 21 -63 21h-51v-292h-150v686h150zM221 792l212 112l33 -99l-215 -67z" />
    <glyph glyph-name="afii10062" unicode="&#x40e;" horiz-adv-x="499" 
d="M-10 686h168l115 -329h4l98 329h139l-168 -494q-42 -123 -81 -160q-45 -43 -134 -43q-37 0 -75 11v124q27 -6 57 -6q37 0 56 16q23 18 29 50zM318 890h108q-1 -60 -44 -98q-44 -37 -119 -37t-119 37q-43 38 -44 98h108q-2 -25 12 -40q14 -16 43 -16t43 16q14 15 12 40z
" />
    <glyph glyph-name="afii10145" unicode="&#x40f;" horiz-adv-x="582" 
d="M366 686h150v-686h-157v-140h-136v140h-157v686h150v-558h150v558z" />
    <glyph glyph-name="afii10017" unicode="&#x410;" horiz-adv-x="524" 
d="M184 686h152l196 -686h-154l-34 142h-193l-33 -142h-139zM316 260l-69 279l-66 -279h135z" />
    <glyph glyph-name="afii10018" unicode="&#x411;" horiz-adv-x="567" 
d="M66 686h429v-118h-279v-154h64q124 0 180 -40q77 -54 77 -175q0 -110 -75 -163q-24 -17 -57.5 -25.5t-54.5 -9.5t-57 -1h-227v686zM216 112h62q48 0 71 15q34 21 34 81q0 56 -31 78q-22 16 -74 16h-62v-190z" />
    <glyph glyph-name="afii10019" unicode="&#x412;" horiz-adv-x="586" 
d="M66 686h256q93 0 141 -32q66 -46 66 -145q0 -67 -33 -108q-29 -32 -65 -43q42 -11 73 -46q43 -49 43 -123q0 -37 -15 -75.5t-39 -62.5q-52 -51 -163 -51h-264v686zM216 410h49q57 0 82 18q28 20 28 65q0 43 -27 64q-23 17 -72 17h-60v-164zM216 112h74q59 0 80 21
q23 23 23 73q0 55 -31 76q-22 16 -72 16h-74v-186z" />
    <glyph glyph-name="afii10020" unicode="&#x413;" horiz-adv-x="455" 
d="M216 558v-558h-150v686h394v-128h-244z" />
    <glyph glyph-name="afii10021" unicode="&#x414;" horiz-adv-x="603" 
d="M139 686h382v-562h67v-268h-135v144h-312v-144h-135v268h53q27 70 40 117q20 69 31 165q9 86 9 213v67zM371 562h-107l-1 -51q-4 -124 -20 -217q-16 -90 -49 -170h177v438z" />
    <glyph glyph-name="afii10022" unicode="&#x415;" horiz-adv-x="493" 
d="M66 686h418v-118h-268v-159h208v-118h-208v-173h268v-118h-418v686z" />
    <glyph glyph-name="afii10024" unicode="&#x416;" horiz-adv-x="758" 
d="M452 686v-280h31q49 0 58 42q3 13 9 85q6 71 11 86q9 35 38 55q27 18 82 18q28 0 47 -6v-112h-8q-28 0 -33 -43q-7 -71 -8 -79q-7 -45 -27 -66q-19 -20 -50 -29v-3q60 -8 85 -55q13 -25 20 -90q6 -63 12 -73q9 -17 29 -12v-124q-17 -6 -47 -6q-87 0 -114 53
q-15 31 -23 147q-4 61 -18 77q-18 21 -63 21h-31v-292h-146v292h-31q-45 0 -63 -21q-14 -16 -18 -77q-8 -116 -23 -147q-27 -53 -114 -53q-30 0 -47 6v124q20 -5 29 12q6 10 12 73q7 65 20 90q25 47 85 55v3q-31 9 -50 29q-20 21 -27 66q-1 8 -8 79q-5 43 -33 43h-8v112
q19 6 47 6q55 0 82 -18q29 -20 38 -55q5 -15 11 -86q6 -72 9 -85q9 -42 58 -42h31v280h146z" />
    <glyph glyph-name="afii10025" unicode="&#x417;" horiz-adv-x="542" 
d="M190 413h61q49 0 71 24q18 20 18 58q0 37 -20 57q-23 21 -61 21q-41 0 -65 -24q-28 -28 -30 -80l-130 16q13 122 90 174q54 38 148 38q99 0 153 -44q65 -53 65 -145q0 -52 -22 -91q-25 -44 -79 -58v-2q45 -10 76 -45q38 -42 38 -113q0 -100 -60 -155q-58 -54 -180 -54
q-110 0 -165 45q-69 58 -73 178l138 12q0 -37 12 -65q21 -46 84 -46q50 0 72 26q18 23 18 62q0 47 -22 71q-21 22 -69 22h-68v118z" />
    <glyph glyph-name="afii10026" unicode="&#x418;" horiz-adv-x="619" 
d="M66 686h150v-353q0 -60 -4 -85q10 37 22 62l169 327v49h150v-686h-150v355q0 62 4 89q-15 -50 -22 -62l-169 -327v-55h-150v686z" />
    <glyph glyph-name="afii10027" unicode="&#x419;" horiz-adv-x="611" 
d="M360 872h108q0 -64 -44 -102q-41 -37 -119 -37t-119 37q-44 38 -44 102h108q-2 -27 12 -42q14 -16 43 -16t43 16q14 15 12 42zM66 686h146v-353q0 -60 -4 -85q10 37 22 62l169 327v49h146v-686h-146v355q0 62 4 89q-15 -50 -22 -62l-169 -327v-55h-146v686z" />
    <glyph glyph-name="afii10028" unicode="&#x41a;" horiz-adv-x="546" 
d="M216 686v-280h51q49 0 60 42q3 12 11 85q6 59 15 86q13 39 38 55q27 18 82 18q28 0 47 -6v-112h-8q-8 0 -12.5 -1.5t-11 -11.5t-9.5 -29q-9 -61 -12 -80q-7 -42 -29 -66q-19 -21 -46 -29v-3q55 -8 79 -55q14 -29 21 -90q7 -60 15 -73q10 -16 29 -12v-124q-17 -6 -47 -6
q-85 0 -114 53q-16 30 -26 147q-6 61 -19 77q-18 21 -63 21h-51v-292h-150v686h150z" />
    <glyph glyph-name="afii10029" unicode="&#x41b;" horiz-adv-x="574" 
d="M109 686h399v-686h-150v558h-119v-21q0 -166 -14 -304q-13 -126 -52 -177q-46 -63 -134 -63q-25 0 -49 7v125q48 -8 74 28q17 24 24 72q5 35 13 196q5 115 7 217z" />
    <glyph glyph-name="afii10030" unicode="&#x41c;" horiz-adv-x="772" 
d="M66 686h220l98 -424l110 424h212v-686h-140v574l-140 -574h-110l-128 574v-574h-122v686z" />
    <glyph glyph-name="afii10031" unicode="&#x41d;" horiz-adv-x="597" 
d="M66 686h150v-276h165v276h150v-686h-150v282h-165v-282h-150v686z" />
    <glyph glyph-name="afii10032" unicode="&#x41e;" horiz-adv-x="582" 
d="M291 697q102 0 167 -67q83 -87 83 -287q0 -175 -64.5 -264.5t-185.5 -89.5q-102 0 -167 67q-83 85 -83 287t83 287q65 67 167 67zM291 573q-41 0 -64 -38q-26 -44 -26 -192q0 -151 26 -193q23 -37 64 -37q42 0 65 37q25 42 25 193t-25 192q-22 38 -65 38z" />
    <glyph glyph-name="afii10033" unicode="&#x41f;" horiz-adv-x="592" 
d="M376 0v558h-160v-558h-150v686h460v-686h-150z" />
    <glyph glyph-name="afii10034" unicode="&#x420;" horiz-adv-x="525" 
d="M66 686h226q117 0 171 -53q54 -54 54 -161q0 -95 -36 -144q-53 -74 -192 -74h-73v-254h-150v686zM216 575v-203h48q39 0 59 12q38 23 38 90q0 68 -39 90q-16 11 -58 11h-48z" />
    <glyph glyph-name="afii10035" unicode="&#x421;" horiz-adv-x="563" 
d="M399 250l140 -9q-13 -118 -70 -182q-64 -70 -168 -70t-169 65q-91 91 -91 287q0 88 23 169t74 128q63 59 164 59q96 0 155 -56q76 -70 79 -210l-137 -11q-4 91 -35 125q-26 28 -63 28q-35 0 -60 -29q-40 -48 -40 -210q0 -136 31 -183q25 -38 71 -38q41 0 65 35
q26 36 31 102z" />
    <glyph glyph-name="afii10036" unicode="&#x422;" horiz-adv-x="423" 
d="M-3 686h429v-128h-141v-558h-150v558h-138v128z" />
    <glyph glyph-name="afii10037" unicode="&#x423;" horiz-adv-x="499" 
d="M-10 686h168l115 -329h4l98 329h139l-168 -494q-42 -123 -81 -160q-45 -43 -134 -43q-37 0 -75 11v124q27 -6 57 -6q37 0 56 16q23 18 29 50z" />
    <glyph glyph-name="afii10038" unicode="&#x424;" horiz-adv-x="722" 
d="M432 706v-75l19 -1q89 -4 152 -60q82 -71 82 -211q0 -138 -73 -209q-58 -55 -162 -62l-18 -1v-87h-142v87l-18 1q-104 7 -162 62q-73 71 -73 209q0 140 82 211q63 56 152 60l19 1v75h142zM426 526v-334q62 -1 94 46q21 32 21 116q0 92 -28 129q-32 42 -87 43zM296 192
v334q-55 -1 -87 -43q-28 -37 -28 -129q0 -84 21 -116q32 -47 94 -46z" />
    <glyph glyph-name="afii10039" unicode="&#x425;" horiz-adv-x="493" 
d="M5 686h168l82 -178l86 178h144l-162 -310l186 -376h-168l-100 224l-113 -224h-144l189 352z" />
    <glyph glyph-name="afii10040" unicode="&#x426;" horiz-adv-x="603" 
d="M366 686h150v-558h63v-276h-131v148h-382v686h150v-558h150v558z" />
    <glyph glyph-name="afii10041" unicode="&#x427;" horiz-adv-x="564" 
d="M348 0v282q-57 -24 -123 -24q-87 0 -135 50q-45 47 -45 157v221h150v-202q0 -55 14 -74q18 -26 63 -26q44 0 76 19v283h150v-686h-150z" />
    <glyph glyph-name="afii10042" unicode="&#x428;" horiz-adv-x="840" 
d="M347 686h146v-558h135v558h146v-686h-708v686h146v-558h135v558z" />
    <glyph glyph-name="afii10043" unicode="&#x429;" horiz-adv-x="861" 
d="M347 686h146v-558h135v558h146v-558h63v-276h-131v148h-640v686h146v-558h135v558z" />
    <glyph glyph-name="afii10044" unicode="&#x42a;" horiz-adv-x="632" 
d="M274 436h70q119 0 176 -41q77 -56 77 -183q0 -121 -78 -176q-24 -17 -55.5 -25.5t-52 -9.5t-56.5 -1h-227v558h-133v128h279v-250zM274 118h66q41 0 69 17q34 22 34 81q0 60 -31 84q-23 18 -72 18h-66v-200z" />
    <glyph glyph-name="afii10045" unicode="&#x42b;" horiz-adv-x="798" 
d="M590 686h142v-686h-142v686zM208 436h64q119 0 175 -41q76 -56 76 -182q0 -122 -78 -177q-24 -17 -55.5 -25.5t-51.5 -9.5t-55 -1h-217v686h142v-250zM208 118h62q43 0 71 17q34 22 34 81q0 60 -31 84q-23 18 -74 18h-62v-200z" />
    <glyph glyph-name="afii10046" unicode="&#x42c;" horiz-adv-x="565" 
d="M212 436h70q119 0 176 -41q77 -56 77 -183q0 -121 -78 -176q-24 -17 -55.5 -25.5t-52 -9.5t-56.5 -1h-227v686h146v-250zM212 118h66q41 0 69 17q34 22 34 81q0 60 -31 84q-23 18 -72 18h-66v-200z" />
    <glyph glyph-name="afii10047" unicode="&#x42d;" horiz-adv-x="559" 
d="M26 201l136 16q4 -53 26 -78q24 -26 66 -26q54 0 80 38q30 44 30 143h-155v118h153q-5 77 -25 113q-27 48 -81 48q-46 0 -71 -35q-23 -31 -25 -86l-135 18q12 114 73 171q61 56 160 56q100 0 163 -59q51 -47 74 -128t23 -170q0 -87 -22.5 -163.5t-68.5 -122.5
q-65 -65 -175 -65q-97 0 -150 44q-59 50 -76 168z" />
    <glyph glyph-name="afii10048" unicode="&#x42e;" horiz-adv-x="837" 
d="M210 417h103q3 55 22 115.5t53 97.5q61 67 164 67t164 -67q80 -86 80 -287t-80 -287q-61 -67 -164 -67t-164 67q-35 38 -55.5 104t-21.5 127h-101v-287h-144v686h144v-269zM552 573q-41 0 -65 -38q-26 -43 -26 -192q0 -153 26 -193q25 -37 65 -37t64 37q24 40 24 193
q0 149 -24 192q-22 38 -64 38z" />
    <glyph glyph-name="afii10049" unicode="&#x42f;" horiz-adv-x="574" 
d="M508 686v-686h-150v270h-68l-98 -270h-164l127 295q-38 14 -64 46q-43 53 -43 135q0 108 74 165q60 45 150 45h236zM358 574h-68q-41 0 -63 -20q-25 -23 -25 -74q0 -50 24 -74t67 -24h65v192z" />
    <glyph glyph-name="afii10065" unicode="&#x430;" horiz-adv-x="495" 
d="M189 348l-135 13q9 63 48 102q55 57 160 57q73 0 119 -31q21 -14 34 -31t18.5 -41.5t6.5 -44t1 -56.5v-203q0 -84 9 -113h-132q-11 41 -7 78q-14 -30 -38 -52q-40 -37 -101 -37q-59 0 -95 35q-40 38 -40 108q0 61 32 103q34 44 103 62q41 12 127 19v41q0 35 -13 52
q-14 17 -40 17q-30 0 -45 -26q-7 -13 -12 -52zM299 218v26l-19 -3q-65 -11 -84 -43q-13 -22 -13 -54q0 -24 12 -41q15 -20 37 -20q38 0 54 44q13 35 13 91z" />
    <glyph glyph-name="afii10066" unicode="&#x431;" horiz-adv-x="493" 
d="M432 701v-114q-35 -13 -94 -25q-6 -1 -30.5 -6l-43.5 -9q-59 -12 -82 -27q-52 -35 -56 -121l3 -1q18 34 50 56q40 27 90 27q77 0 129 -50q64 -61 64 -195t-65 -196q-53 -50 -148 -50q-96 0 -148 55q-64 68 -64 245q0 227 71 304q29 32 67.5 46.5t91.5 24.5q110 20 165 36
zM249 90q29 0 45 19q22 25 22 130q0 102 -22 128q-18 20 -44 20q-27 0 -44 -19q-23 -27 -23 -129q0 -99 22 -128q18 -21 44 -21z" />
    <glyph glyph-name="afii10067" unicode="&#x432;" horiz-adv-x="493" 
d="M53 510h236q68 0 102 -28q40 -34 40 -97q0 -50 -25 -80q-21 -25 -55 -34v-2q46 -6 73 -38q29 -34 29 -89q0 -71 -45 -109q-39 -33 -95 -33h-260v510zM189 430v-128h39q37 0 52 18q13 17 13 47q0 35 -17 50q-14 13 -46 13h-41zM189 222v-142h53q38 0 53 21q14 19 14 51
q0 36 -20 54q-18 16 -48 16h-52z" />
    <glyph glyph-name="afii10068" unicode="&#x433;" horiz-adv-x="393" 
d="M63 510h326v-112h-184v-398h-142v510z" />
    <glyph glyph-name="afii10069" unicode="&#x434;" horiz-adv-x="485" 
d="M98 510h326v-405h46v-239h-124v134h-217v-134h-124v239h38q36 82 47 183q8 78 8 185v37zM207 405v-19q0 -76 -10 -151q-9 -67 -31 -130h116v300h-75z" />
    <glyph glyph-name="afii10070" unicode="&#x435;" horiz-adv-x="476" 
d="M445 231h-268q-2 -91 15 -119t55 -28q33 0 52 24q16 20 19 67l127 -8q-14 -75 -54 -118q-54 -59 -150 -59q-90 0 -144 55q-66 67 -66 205q0 140 64 210q56 60 146 60q111 0 166 -93q45 -76 38 -196zM178 313h133q1 61 -18 88q-20 25 -49 25q-32 0 -50 -29
q-13 -21 -16 -84z" />
    <glyph glyph-name="afii10072" unicode="&#x436;" horiz-adv-x="660" 
d="M396 510v-196h22q30 0 41 14q6 7 12 46q4 35 10 66q8 36 31 55q28 21 70 21q26 0 45 -6v-90q-2 1 -6.5 1.5t-12 -3t-11.5 -12.5q-4 -8 -8 -32l-5 -35q-4 -34 -24 -51q-14 -12 -37 -18v-2q37 -7 54 -44q8 -17 16 -75q3 -26 9 -34q12 -17 38 -9v-106q-27 -8 -49 -8
q-42 0 -66 15q-39 24 -49 91l-3 23q0 2 -2 21.5t-4 30.5q-2 12 -4.5 19t-12.5 14.5t-28 7.5h-26v-214h-132v214h-26q-18 0 -28 -7.5t-12.5 -14.5t-4.5 -19q-1 -8 -2 -17t-2 -19t-2 -16l-3 -23q-10 -67 -49 -91q-24 -15 -66 -15q-22 0 -49 8v106q26 -8 38 9q6 8 9 34
q8 58 16 75q17 37 54 44v2q-23 6 -37 18q-20 17 -24 51l-5 35q-4 24 -8 32q-4 9 -11.5 12.5t-12 3t-6.5 -1.5v90q19 6 45 6q42 0 70 -21q23 -19 31 -55q6 -31 10 -66q6 -39 12 -46q11 -14 41 -14h22v196h132z" />
    <glyph glyph-name="afii10073" unicode="&#x437;" horiz-adv-x="456" 
d="M147 342l-122 11q3 35 17 65.5t23.5 41.5t17.5 18q46 42 144 42q85 0 126 -30q56 -40 56 -115q0 -44 -22 -71q-21 -26 -57 -35v-2q38 -9 60 -36q26 -33 26 -83q0 -36 -15.5 -70t-42.5 -54q-45 -34 -148 -34q-98 0 -139 39q-22 21 -34.5 57.5t-13.5 70.5l124 11
q-2 -29 9 -49q15 -29 56 -29q26 0 43 17q19 19 19 49q0 31 -16 47q-18 18 -47 18h-41v82h41q32 0 48 20q12 17 12 41q0 28 -16 41q-17 15 -42 15q-36 0 -52 -26q-14 -21 -14 -52z" />
    <glyph glyph-name="afii10074" unicode="&#x438;" horiz-adv-x="504" 
d="M53 510h132v-237q0 -18 -3 -64q6 12 12.5 29t10.5 24l114 217v31h132v-510h-132v246q0 10 3 63q-16 -41 -24 -56l-113 -214v-39h-132v510z" />
    <glyph glyph-name="afii10075" unicode="&#x439;" horiz-adv-x="504" 
d="M310 701h110q2 -61 -37 -103q-44 -46 -131 -46q-89 0 -131 46q-37 40 -37 103h110q-2 -25 10 -44q15 -23 48 -23t48 23q12 19 10 44zM53 510h132v-237q0 -18 -3 -64q6 12 12.5 29t10.5 24l114 217v31h132v-510h-132v246q0 10 3 63q-16 -41 -24 -56l-113 -214v-39h-132
v510z" />
    <glyph glyph-name="afii10076" unicode="&#x43a;" horiz-adv-x="475" 
d="M195 510v-196h48q30 0 41 14q8 9 12 45q5 51 10 69q9 34 31 53q25 21 70 21q23 0 47 -6v-90q-20 6 -31 -14q-6 -12 -8 -32l-4 -35q-3 -31 -26 -52q-15 -14 -35 -17v-2q37 -7 53 -44q8 -21 15 -77q4 -26 9 -32q14 -16 38 -9v-106q-29 -8 -53 -8q-40 0 -66 15
q-41 24 -50 91q-2 15 -4.5 40l-3.5 35t-3 16t-6.5 12.5t-13.5 9.5t-22 3h-48v-214h-142v510h142z" />
    <glyph glyph-name="afii10077" unicode="&#x43b;" horiz-adv-x="488" 
d="M102 510h333v-510h-142v405h-79l-1 -67q-2 -116 -15 -198q-16 -99 -60 -129q-31 -22 -80 -22q-29 0 -53 11v107q52 -8 72 44q16 43 21 183q3 93 3 105z" />
    <glyph glyph-name="afii10078" unicode="&#x43c;" horiz-adv-x="614" 
d="M53 510h168l87 -302l87 302h166v-510h-124v299v39q2 20 2 49l-26 -87l-80 -300h-68l-86 300l-25 87q0 -29 2 -59v-39v-289h-103v510z" />
    <glyph glyph-name="afii10079" unicode="&#x43d;" horiz-adv-x="502" 
d="M195 323h112v187h142v-510h-142v211h-112v-211h-142v510h142v-187z" />
    <glyph glyph-name="afii10080" unicode="&#x43e;" horiz-adv-x="474" 
d="M237 520q92 0 143 -54q63 -67 63 -211t-63 -211q-51 -54 -143 -54t-143 54q-63 67 -63 211t63 211q51 54 143 54zM237 420q-25 0 -40 -22q-20 -29 -20 -143t20 -143q15 -22 40 -22t40 22q20 29 20 143t-20 143q-15 22 -40 22z" />
    <glyph glyph-name="afii10081" unicode="&#x43f;" horiz-adv-x="498" 
d="M53 510h392v-510h-142v398h-108v-398h-142v510z" />
    <glyph glyph-name="afii10082" unicode="&#x440;" horiz-adv-x="497" 
d="M53 510h134v-77q14 40 44 61q31 23 75 23q54 0 92 -35q68 -61 68 -216q0 -161 -60 -225q-44 -48 -114 -48q-32 0 -61 15q-20 10 -36 29v-209h-142v682zM195 324v-152q0 -49 17 -69q14 -16 43 -16q30 0 45 23q20 31 20 153q0 108 -20 137q-16 23 -40 23q-36 0 -53 -33
q-12 -23 -12 -66z" />
    <glyph glyph-name="afii10083" unicode="&#x441;" horiz-adv-x="460" 
d="M435 322l-133 -5q-3 50 -15 68q-15 23 -42 23q-32 0 -49 -30q-19 -33 -19 -124q0 -84 21 -123q17 -29 46 -29q27 0 41 21t17 76l133 -8q-6 -91 -52 -142q-53 -59 -145 -59q-90 0 -145 57q-62 65 -62 206t64 208q56 59 151 59q85 0 134 -53q53 -56 55 -145z" />
    <glyph glyph-name="afii10084" unicode="&#x442;" horiz-adv-x="398" 
d="M270 398v-398h-142v398h-123v112h388v-112h-123z" />
    <glyph glyph-name="afii10085" unicode="&#x443;" horiz-adv-x="383" 
d="M-14 510h150l69 -312l66 312h129l-154 -518q-29 -96 -56 -130q-39 -48 -106 -48q-39 0 -69 10v116q17 -4 43 -4q43 0 62 24q12 14 17 38z" />
    <glyph glyph-name="afii10086" unicode="&#x444;" horiz-adv-x="652" 
d="M393 686v-176q104 3 169 -62q65 -64 65 -188q0 -133 -65 -198q-60 -60 -169 -62v-164h-134v164q-109 2 -169 62q-65 65 -65 199q0 124 65 187q65 65 169 62v176h134zM387 412v-314h11q58 0 80 53q13 35 13 105q0 72 -12 101q-22 55 -81 55h-11zM265 412h-11
q-59 0 -81 -55q-12 -29 -12 -101q0 -70 13 -105q22 -53 80 -53h11v314z" />
    <glyph glyph-name="afii10087" unicode="&#x445;" horiz-adv-x="385" 
d="M-6 510h154l54 -118l66 118h124l-132 -226l151 -284h-154l-74 153l-85 -153h-124l151 261z" />
    <glyph glyph-name="afii10088" unicode="&#x446;" horiz-adv-x="498" 
d="M53 0v510h142v-398h104v398h142v-398h52v-246h-124v134h-316z" />
    <glyph glyph-name="afii10089" unicode="&#x447;" horiz-adv-x="477" 
d="M35 510h142v-158q0 -38 15 -52q14 -13 37 -13q28 0 53 12v211h142v-510h-142v201q-42 -17 -92 -17q-85 0 -122 43q-33 39 -33 124v159z" />
    <glyph glyph-name="afii10090" unicode="&#x448;" horiz-adv-x="710" 
d="M53 0v510h134v-410h101v410h134v-410h101v410h134v-510h-604z" />
    <glyph glyph-name="afii10091" unicode="&#x449;" horiz-adv-x="729" 
d="M53 0v510h134v-410h101v410h134v-410h101v410h134v-410h52v-234h-124v134h-532z" />
    <glyph glyph-name="afii10092" unicode="&#x44a;" horiz-adv-x="525" 
d="M257 510v-187h64q92 0 138 -47q41 -42 41 -113q0 -80 -46 -122q-44 -41 -114 -41h-225v405h-125v105h267zM257 238v-138h33q32 0 50 17q20 20 20 53q0 36 -21 54q-16 14 -47 14h-35z" />
    <glyph glyph-name="afii10093" unicode="&#x44b;" horiz-adv-x="667" 
d="M191 510v-187h66q92 0 138 -47q41 -42 41 -113q0 -80 -46 -122q-44 -41 -114 -41h-223v510h138zM191 238v-138h35q34 0 52 17q20 18 20 52q0 37 -21 55q-17 14 -49 14h-37zM476 510h138v-510h-138v510z" />
    <glyph glyph-name="afii10094" unicode="&#x44c;" horiz-adv-x="463" 
d="M195 510v-187h64q92 0 138 -47q41 -42 41 -113q0 -80 -46 -122q-44 -41 -114 -41h-225v510h142zM195 238v-138h33q32 0 50 17q20 18 20 52q0 37 -20 54q-16 15 -48 15h-35z" />
    <glyph glyph-name="afii10095" unicode="&#x44d;" horiz-adv-x="470" 
d="M161 303h136q0 50 -15 80q-18 37 -63 37q-37 0 -55 -25q-14 -21 -18 -53l-120 13q6 70 54 116q51 49 139 49q101 0 159 -64q61 -68 61 -200q0 -145 -62 -209q-55 -57 -156 -57q-92 0 -138 39q-53 45 -58 126l124 13q0 -28 12 -49q17 -29 55 -29q47 0 66 41q15 31 15 90
h-136v82z" />
    <glyph glyph-name="afii10096" unicode="&#x44e;" horiz-adv-x="689" 
d="M189 319h73q9 93 57 147t139 54q89 0 139 -54q61 -66 61 -211t-61 -211q-50 -54 -139 -54q-91 0 -139 54q-26 29 -41.5 76.5t-17.5 93.5h-71v-214h-136v510h136v-191zM458 420q-29 0 -46 -22q-20 -27 -20 -143t20 -143q17 -22 46 -22t44 22q20 27 20 143t-20 143
q-15 22 -44 22z" />
    <glyph glyph-name="afii10097" unicode="&#x44f;" horiz-adv-x="483" 
d="M430 510v-510h-138v178h-57l-64 -178h-151l92 209q-29 11 -49 38q-30 41 -30 100q0 65 30 106q41 57 129 57h238zM292 416h-48q-37 0 -54 -17t-17 -58q0 -37 17 -53q16 -16 58 -16h44v144z" />
    <glyph glyph-name="afii10071" unicode="&#x451;" horiz-adv-x="476" 
d="M203 695v-118h-107v118h107zM379 695v-118h-107v118h107zM445 231h-268q-2 -91 15 -119t55 -28q33 0 52 24q16 20 19 67l127 -8q-14 -75 -54 -118q-54 -59 -150 -59q-90 0 -144 55q-66 67 -66 205q0 140 64 210q56 60 146 60q111 0 166 -93q45 -76 38 -196zM178 313h133
q1 61 -18 88q-20 25 -49 25q-32 0 -50 -29q-13 -21 -16 -84z" />
    <glyph glyph-name="afii10099" unicode="&#x452;" horiz-adv-x="524" 
d="M81 560h-64v82h64v47h142v-47h160v-82h-160v-110q35 70 125 70q72 0 105 -49q25 -37 25 -147v-292q0 -112 -38 -161q-44 -57 -128 -57q-23 0 -59 7v116q13 -4 29 -4q43 0 50 36q3 20 3 58v295q0 49 -6 62q-11 25 -45 25q-32 0 -48 -22q-5 -7 -8 -15t-4 -19.5t-1.5 -18.5
t0 -22t0.5 -20v-292h-142v560z" />
    <glyph glyph-name="afii10100" unicode="&#x453;" horiz-adv-x="393" 
d="M63 510h326v-112h-184v-398h-142v510zM157 608l172 158l56 -84l-186 -117z" />
    <glyph glyph-name="afii10101" unicode="&#x454;" horiz-adv-x="470" 
d="M309 303v-82h-136q-3 -55 15 -90q19 -41 66 -41q38 0 55 29q12 21 12 49l124 -13q-5 -81 -58 -126q-46 -39 -138 -39q-101 0 -156 57q-62 64 -62 206q0 135 61 203q58 64 159 64q88 0 139 -49q48 -46 54 -116l-120 -13q-4 32 -18 53q-18 25 -55 25q-45 0 -63 -37
q-15 -30 -15 -80h136z" />
    <glyph glyph-name="afii10102" unicode="&#x455;" horiz-adv-x="423" 
d="M389 387l-101 -30q-5 24 -22 44q-21 25 -51 25q-22 0 -34 -12t-12 -31q0 -28 22 -44q13 -9 63 -27q79 -28 104 -50q46 -41 46 -104q0 -66 -40 -111q-53 -58 -153 -58q-96 0 -144 48q-37 36 -47 104l113 18q6 -30 22 -49q23 -27 60 -27q28 0 42 14q13 13 13 34
q0 25 -22 42q-17 13 -59 25q-71 21 -107 54q-46 42 -46 110q0 67 48 111q51 47 132 47q76 0 123 -44q37 -36 50 -89z" />
    <glyph glyph-name="afii10103" unicode="&#x456;" horiz-adv-x="249" 
d="M53 510h142v-510h-142v510zM197 552h-145v141h145v-141z" />
    <glyph glyph-name="afii10104" unicode="&#x457;" horiz-adv-x="270" 
d="M64 510h142v-510h-142v510zM101 693v-116h-99v116h99zM268 693v-116h-99v116h99z" />
    <glyph glyph-name="afii10105" unicode="&#x458;" horiz-adv-x="246" 
d="M57 510h142v-513q0 -107 -32 -145q-33 -38 -100 -38q-38 0 -76 7v116q8 -1 17 -1q33 0 42 17q7 12 7 45v512zM198 552h-142v141h142v-141z" />
    <glyph glyph-name="afii10106" unicode="&#x459;" horiz-adv-x="703" 
d="M102 510h333v-187h64q92 0 138 -47q41 -42 41 -113q0 -80 -46 -122q-44 -41 -114 -41h-225v405h-79l-1 -67q-2 -106 -16 -198q-15 -99 -59 -129q-31 -22 -80 -22q-29 0 -53 11v107q52 -8 72 44q16 43 21 183q3 93 3 105zM435 238v-138h33q30 0 48 17q20 19 20 52
q0 35 -21 54q-17 15 -45 15h-35z" />
    <glyph glyph-name="afii10107" unicode="&#x45a;" horiz-adv-x="716" 
d="M194 323h112v187h142v-187h64q92 0 138 -47q41 -42 41 -113q0 -80 -46 -122q-44 -41 -114 -41h-225v223h-112v-223h-142v510h142v-187zM448 223v-123h33q32 0 48 12q20 16 20 52q0 29 -17 44t-49 15h-35z" />
    <glyph glyph-name="afii10108" unicode="&#x45b;" horiz-adv-x="524" 
d="M82 689h142v-47h160v-82h-160v-104q20 26 36 38q35 26 90 26q59 0 91 -33q18 -19 27 -51t9.5 -48.5t0.5 -60.5v-327h-142v327q0 50 -8 62q-13 19 -43 19t-45 -17q-16 -17 -16 -59v-332h-142v560h-65v82h65v47z" />
    <glyph glyph-name="afii10109" unicode="&#x45c;" horiz-adv-x="475" 
d="M195 510v-196h48q30 0 41 14q8 9 12 45q5 51 10 69q9 34 31 53q25 21 70 21q23 0 47 -6v-90q-20 6 -31 -14q-6 -12 -8 -32l-4 -35q-3 -31 -26 -52q-15 -14 -35 -17v-2q37 -7 53 -44q8 -21 15 -77q4 -26 9 -32q14 -16 38 -9v-106q-29 -8 -53 -8q-40 0 -66 15
q-41 24 -50 91q-2 15 -4.5 40l-3.5 35t-3 16t-6.5 12.5t-13.5 9.5t-22 3h-48v-214h-142v510h142zM184 608l172 158l56 -84l-186 -117z" />
    <glyph glyph-name="afii10110" unicode="&#x45e;" horiz-adv-x="383" 
d="M-14 510h150l69 -312l66 312h129l-154 -518q-29 -96 -56 -130q-39 -48 -106 -48q-39 0 -69 10v116q17 -4 43 -4q43 0 62 24q12 14 17 38zM236 692h107q0 -56 -31 -92q-36 -40 -114 -40t-114 40q-31 36 -31 92h107q0 -24 7 -37q10 -17 31 -17t31 17q7 13 7 37z" />
    <glyph glyph-name="afii10193" unicode="&#x45f;" horiz-adv-x="494" 
d="M53 0v510h142v-398h104v398h142v-510h-128v-130h-132v130h-128z" />
    <glyph glyph-name="afii10146" unicode="&#x462;" horiz-adv-x="614" 
d="M261 416h70q116 0 176 -41q77 -53 77 -163q0 -122 -78 -176q-24 -17 -55.5 -25.5t-52 -9.5t-56.5 -1h-227v492h-119v128h119v86h146v-86h164v-128h-164v-76zM261 118h66q41 0 69 17q34 22 34 81q0 42 -31 64q-25 18 -72 18h-66v-180z" />
    <glyph glyph-name="afii10194" unicode="&#x463;" horiz-adv-x="518" 
d="M250 689v-179h143v-112h-143v-75h64q92 0 138 -47q41 -42 41 -113q0 -80 -46 -122q-44 -41 -114 -41h-225v398h-103v112h103v179h142zM250 238v-138h33q32 0 50 17q20 18 20 52q0 37 -20 54q-16 15 -48 15h-35z" />
    <glyph glyph-name="afii10147" unicode="&#x472;" horiz-adv-x="582" 
d="M291 697q102 0 167 -67q83 -87 83 -287q0 -175 -64.5 -264.5t-185.5 -89.5q-102 0 -167 67q-83 85 -83 287t83 287q65 67 167 67zM291 573q-41 0 -64 -38q-19 -31 -26 -144q18 12 45 12q23 0 52 -11q36 -12 49 -12q23 0 33 20q0 95 -24 135q-22 38 -65 38zM381 312
q-24 -15 -49 -15q-19 0 -56 14q-26 10 -39 10q-22 0 -36 -17q5 -121 26 -154q23 -37 64 -37q42 0 65 37q23 38 25 162z" />
    <glyph glyph-name="afii10195" unicode="&#x473;" horiz-adv-x="474" 
d="M237 520q92 0 143 -54q63 -67 63 -211t-63 -211q-51 -54 -143 -54t-143 54q-63 67 -63 211t63 211q51 54 143 54zM237 420q-25 0 -40 -22q-19 -27 -19 -103q13 11 28 11q4 0 36 -9q24 -8 33 -8q14 0 21 15q-4 71 -19 94q-15 22 -40 22zM297 227q-19 -11 -32 -11
q-9 0 -32 9q-20 9 -31 9q-18 0 -24 -13q0 -82 19 -109q15 -22 40 -22t40 22q19 27 20 115z" />
    <glyph glyph-name="afii10148" unicode="&#x474;" horiz-adv-x="499" 
d="M-15 686h160l104 -522l69 327q19 92 46 132q41 63 116 63q25 0 49 -7v-125q-50 6 -73 -28q-13 -23 -25 -72l-111 -454h-170z" />
    <glyph glyph-name="afii10196" unicode="&#x475;" horiz-adv-x="384" 
d="M-11 510h137l70 -301l35 150q7 31 11.5 47t17.5 41t32 40q27 23 68 23q27 0 53 -11v-107q-22 4 -43 -5.5t-29 -38.5l-96 -348h-112z" />
    <glyph glyph-name="afii10050" unicode="&#x490;" horiz-adv-x="455" 
d="M216 558v-558h-150v686h268v140h126v-268h-244z" />
    <glyph glyph-name="afii10098" unicode="&#x491;" horiz-adv-x="393" 
d="M63 510h194v130h132v-242h-184v-398h-142v510z" />
    <glyph glyph-name="cyrGebar" unicode="&#x492;" horiz-adv-x="524" 
d="M285 558v-168h175v-118h-175v-272h-150v272h-69v118h69v296h394v-128h-244z" />
    <glyph glyph-name="cyrgebar" unicode="&#x493;" horiz-adv-x="445" 
d="M115 510h326v-112h-184v-122h121v-82h-121v-194h-142v194h-52v82h52v234z" />
    <glyph glyph-name="cyrGehook" unicode="&#x494;" horiz-adv-x="580" 
d="M460 686v-128h-244v-167q66 26 133 26q99 0 155 -67q46 -58 46 -159q0 -90 -41 -140q-50 -63 -156 -63q-50 0 -89 12l16 116q30 -8 49 -8q39 0 54 23q13 17 13 63q0 45 -15 70q-21 33 -71 33q-48 0 -94 -22v-275h-150v686h394z" />
    <glyph glyph-name="cyrgehook" unicode="&#x495;" horiz-adv-x="490" 
d="M63 510h326v-112h-184v-138q29 70 117 70q70 0 103 -49q25 -37 25 -147v-106q0 -110 -38 -161q-42 -57 -118 -57q-23 0 -59 7v116q12 -4 29 -4q34 0 40 36q3 30 3 58v109q0 49 -6 62q-13 25 -45 25q-24 0 -38 -22q-9 -14 -11 -30t-2 -65v-102h-142v510z" />
    <glyph glyph-name="cyrZhedesc" unicode="&#x496;" horiz-adv-x="778" 
d="M452 686v-280h31q49 0 58 42q3 13 9 85q6 71 11 86q9 35 38 55q27 18 82 18q28 0 47 -6v-112h-8q-28 0 -33 -43q-7 -71 -8 -79q-7 -45 -27 -66q-19 -20 -50 -29v-3q60 -8 85 -55q13 -24 20 -90q6 -61 12 -73q5 -11 13 -12h86v-268h-135v139q-70 0 -96 52q-15 31 -23 147
q-4 61 -18 77q-18 21 -63 21h-31v-292h-146v292h-31q-45 0 -63 -21q-14 -16 -18 -77q-8 -116 -23 -147q-27 -53 -114 -53q-30 0 -47 6v124q20 -5 29 12q6 10 12 73q7 65 20 90q25 47 85 55v3q-31 9 -50 29q-20 21 -27 66q-1 8 -8 79q-5 43 -33 43h-8v112q19 6 47 6
q55 0 82 -18q29 -20 38 -55q5 -15 11 -86q6 -72 9 -85q9 -42 58 -42h31v280h146z" />
    <glyph glyph-name="cyrzhedesc" unicode="&#x497;" horiz-adv-x="663" 
d="M386 510v-196h22q30 0 41 14q6 7 12 46q4 35 10 66q8 36 31 55q28 21 70 21q26 0 45 -6v-90q-2 1 -6.5 1.5t-12 -3t-11.5 -12.5q-4 -8 -8 -32l-5 -35q-4 -34 -24 -51q-14 -12 -37 -18v-2q37 -7 54 -44q8 -17 16 -75q3 -26 9 -34q8 -10 25 -10h56v-239h-124v134
q-35 10 -55 32q-22 23 -28 66q-2 11 -3.5 29.5t-5.5 45.5q-2 12 -4.5 19t-12.5 14.5t-28 7.5h-26v-214h-132v214h-26q-18 0 -28 -7.5t-12.5 -14.5t-4.5 -19q-1 -8 -2 -17t-2 -19t-2 -16l-3 -23q-10 -67 -49 -91q-24 -15 -66 -15q-22 0 -49 8v106q26 -8 38 9q6 8 9 34
q8 58 16 75q17 37 54 44v2q-22 6 -37 18q-20 17 -24 51l-5 35q-4 24 -8 32q-4 9 -11.5 12.5t-12 3t-6.5 -1.5v90q20 6 45 6q42 0 70 -21q23 -19 31 -55q6 -31 10 -66q6 -39 12 -46q11 -14 41 -14h22v196h132z" />
    <glyph glyph-name="cyrZetail" unicode="&#x498;" horiz-adv-x="542" 
d="M190 413h61q49 0 71 24q18 20 18 58q0 37 -20 57q-23 21 -61 21q-41 0 -65 -24q-28 -28 -30 -80l-130 16q13 122 90 174q54 38 148 38q99 0 153 -44q65 -53 65 -145q0 -52 -22 -91q-25 -44 -79 -58v-2q45 -10 76 -45q38 -42 38 -113q0 -100 -60 -155q-43 -40 -109 -50
v-134h-136v134q-56 6 -100 41q-69 58 -73 178l138 12q0 -37 12 -65q21 -46 84 -46q50 0 72 26q18 23 18 62q0 47 -22 71q-21 22 -69 22h-68v118z" />
    <glyph glyph-name="cyrzetail" unicode="&#x499;" horiz-adv-x="456" 
d="M147 342l-122 11q3 35 17 65.5t23.5 41.5t17.5 18q46 42 144 42q85 0 126 -30q56 -40 56 -115q0 -44 -22 -71q-21 -26 -57 -35v-2q38 -9 60 -36q26 -33 26 -83q0 -36 -15.5 -69.5t-42.5 -54.5q-30 -23 -73 -28v-126h-132v124q-54 9 -82 35q-22 21 -34.5 57.5t-13.5 70.5
l124 11q-2 -28 9 -49q15 -29 56 -29q26 0 43 17q19 18 19 53q0 27 -16 43q-18 18 -47 18h-41v82h41q32 0 48 20q12 15 12 43q0 25 -16 39q-17 15 -42 15q-36 0 -52 -26q-14 -21 -14 -52z" />
    <glyph glyph-name="cyrKadesc" unicode="&#x49a;" horiz-adv-x="576" 
d="M216 686v-280h51q49 0 60 42q3 12 11 85q6 59 15 86q13 39 38 55q27 18 82 18q28 0 47 -6v-112h-8q-8 0 -12.5 -1.5t-11 -11.5t-9.5 -29q-9 -61 -12 -80q-7 -42 -29 -66q-19 -21 -46 -29v-3q55 -8 79 -55q14 -29 21 -90q8 -63 15 -73q5 -8 13 -12h86v-268h-135v139
q-68 0 -96 52q-16 30 -26 147q-6 61 -19 77q-18 21 -63 21h-51v-292h-150v686h150z" />
    <glyph glyph-name="cyrkadesc" unicode="&#x49b;" horiz-adv-x="489" 
d="M195 510v-196h48q30 0 41 14q8 9 12 45q5 51 10 69q9 34 31 53q25 21 70 21q23 0 47 -6v-90q-20 6 -31 -14q-6 -12 -8 -32l-4 -35q-3 -31 -26 -52q-15 -14 -35 -17v-2q37 -7 53 -44q8 -19 15 -77q4 -24 9 -32q6 -10 18 -10h54v-239h-124v130q-35 8 -56 36q-17 23 -23 66
q-2 12 -8 75q-1 10 -3 16t-6.5 12.5t-13.5 9.5t-22 3h-48v-214h-142v510h142z" />
    <glyph glyph-name="cyrKavertbar" unicode="&#x49c;" horiz-adv-x="646" 
d="M216 686v-280h61v180h100v-180q40 4 50 42q3 12 11 85q6 59 15 86q13 39 38 55q27 18 82 18q28 0 47 -6v-112h-8q-8 0 -12.5 -1.5t-11 -11.5t-9.5 -29q-9 -61 -12 -80q-7 -42 -29 -66q-19 -21 -46 -29v-3q55 -8 79 -55q14 -29 21 -90q7 -60 15 -73q10 -16 29 -12v-124
q-17 -6 -47 -6q-85 0 -114 53q-16 30 -26 147q-6 61 -19 77q-18 21 -53 21v-152h-100v152h-61v-292h-150v686h150z" />
    <glyph glyph-name="cyrkavertbar" unicode="&#x49d;" horiz-adv-x="555" 
d="M195 510v-196h50v106h82v-106h1q24 0 36 14q8 9 12 45q5 51 10 69q9 34 31 53q25 21 70 21q23 0 47 -6v-90q-20 6 -31 -14q-6 -12 -8 -32l-4 -35q-3 -31 -26 -52q-15 -14 -35 -17v-2q37 -7 53 -44q8 -21 15 -77q4 -26 9 -32q14 -16 38 -9v-106q-29 -8 -53 -8
q-40 0 -66 15q-41 24 -50 91q-2 15 -4.5 40l-3.5 35q-5 41 -40 41h-1v-104h-82v104h-50v-214h-142v510h142z" />
    <glyph glyph-name="cyrKaback" unicode="&#x4a0;" horiz-adv-x="614" 
d="M284 686v-280h51q49 0 60 42q3 12 11 85q6 59 15 86q13 39 38 55q27 18 82 18q28 0 47 -6v-112h-8q-8 0 -12.5 -1.5t-11 -11.5t-9.5 -29q-9 -61 -12 -80q-7 -42 -29 -66q-19 -21 -46 -29v-3q55 -8 79 -55q14 -29 21 -90q7 -60 15 -73q10 -16 29 -12v-124q-17 -6 -47 -6
q-85 0 -114 53q-16 30 -26 147q-6 61 -19 77q-18 21 -63 21h-51v-292h-150v558h-138v128h288z" />
    <glyph glyph-name="cyrkaback" unicode="&#x4a1;" horiz-adv-x="550" 
d="M128 0v398h-123v112h265v-196h48q30 0 41 14q8 9 12 45q5 51 10 69q9 34 31 53q25 21 70 21q23 0 47 -6v-90q-20 6 -31 -14q-6 -12 -8 -32l-4 -35q-3 -31 -26 -52q-15 -14 -35 -17v-2q37 -7 53 -44q8 -21 15 -77q4 -26 9 -32q14 -16 38 -9v-106q-29 -8 -53 -8
q-41 0 -66 15q-41 24 -50 91q-2 15 -4.5 40l-3.5 35t-3 16t-6.5 12.5t-13.5 9.5t-22 3h-48v-214h-142z" />
    <glyph glyph-name="cyrEndesc" unicode="&#x4a2;" horiz-adv-x="607" 
d="M66 686h150v-276h165v276h150v-562h106v-268h-135v144h-121v282h-165v-282h-150v686z" />
    <glyph glyph-name="cyrendesc" unicode="&#x4a3;" horiz-adv-x="525" 
d="M195 323h112v187h142v-405h96v-239h-124v134h-114v211h-112v-211h-142v510h142v-187z" />
    <glyph glyph-name="cyrEnGe" unicode="&#x4a4;" horiz-adv-x="669" 
d="M66 686h150v-276h165v276h291v-128h-141v-558h-150v282h-165v-282h-150v686z" />
    <glyph glyph-name="cyrenge" unicode="&#x4a5;" horiz-adv-x="578" 
d="M195 323h112v187h265v-112h-123v-398h-142v211h-112v-211h-142v510h142v-187z" />
    <glyph glyph-name="cyrEstail" unicode="&#x4aa;" horiz-adv-x="563" 
d="M399 250l140 -9q-8 -110 -70 -180q-45 -50 -103 -64v-137h-136v138q-59 15 -98 56q-91 91 -91 287q0 88 23 169t74 128q63 59 165 59q94 0 154 -56q76 -70 79 -210l-137 -11q-4 91 -35 125q-27 28 -64 28q-35 0 -59 -29q-40 -48 -40 -210q0 -136 31 -183q25 -38 71 -38
q41 0 65 35q26 36 31 102z" />
    <glyph glyph-name="cyrestail" unicode="&#x4ab;" horiz-adv-x="460" 
d="M435 322l-133 -5q-3 50 -15 68q-15 23 -42 23q-32 0 -49 -30q-19 -33 -19 -124q0 -84 21 -123q17 -29 46 -29q27 0 41 21t17 76l133 -8q-6 -91 -52 -142q-34 -40 -88 -52v-127h-132v132q-56 18 -89 68q-43 64 -43 190q0 133 64 201q56 59 151 59q84 0 134 -53
q53 -56 55 -145z" />
    <glyph glyph-name="cyrstraightU" unicode="&#x4ae;" horiz-adv-x="456" 
d="M-29 686h166l97 -251l103 251h148l-192 -396v-290h-150v290z" />
    <glyph glyph-name="cyrstraightu" unicode="&#x4af;" horiz-adv-x="369" 
d="M-11 510h137l70 -301l71 301h118l-129 -470v-204h-134v203z" />
    <glyph glyph-name="cyrstraightUbar" unicode="&#x4b0;" horiz-adv-x="456" 
d="M-29 686h166l97 -251l103 251h148l-192 -396h122v-118h-122v-172h-150v172h-122v118h122z" />
    <glyph glyph-name="cyrstraightubar" unicode="&#x4b1;" horiz-adv-x="369" 
d="M-11 510h137l70 -301l71 301h118l-129 -471h90v-82h-90v-121h-134v121h-90v82h90z" />
    <glyph glyph-name="cyrHadesc" unicode="&#x4b2;" horiz-adv-x="519" 
d="M5 686h168l82 -178l86 178h144l-162 -310l126 -252h106v-268h-135v144h-79l-100 224l-113 -224h-144l189 352z" />
    <glyph glyph-name="cyrhadesc" unicode="&#x4b3;" horiz-adv-x="435" 
d="M-6 510h154l54 -118l66 118h124l-132 -226l95 -179h106v-239h-124v134h-80l-74 153l-85 -153h-124l151 261z" />
    <glyph glyph-name="cyrChedesc" unicode="&#x4b6;" horiz-adv-x="574" 
d="M348 403v283h150v-562h106v-268h-135v144h-121v282q-57 -24 -123 -24q-87 0 -135 50q-45 47 -45 157v221h150v-202q0 -55 14 -74q18 -26 63 -26q44 0 76 19z" />
    <glyph glyph-name="cyrchedesc" unicode="&#x4b7;" horiz-adv-x="500" 
d="M35 510h142v-158q0 -38 15 -52q14 -13 37 -13q28 0 53 12v211h142v-405h96v-239h-124v134h-114v201q-42 -17 -92 -17q-85 0 -122 43q-33 39 -33 124v159z" />
    <glyph glyph-name="cyrChevertbar" unicode="&#x4b8;" horiz-adv-x="634" 
d="M418 0v282q-28 -10 -60 -15v-127h-100v118q-42 0 -87 13.5t-71 36.5q-55 47 -55 157v221h150v-202q0 -52 23 -74q14 -13 40 -20v196h100v-199q32 3 60 16v283h150v-686h-150z" />
    <glyph glyph-name="cyrchevertbar" unicode="&#x4b9;" horiz-adv-x="537" 
d="M35 510h142v-158q0 -58 42 -59v127h82v-130q23 3 41 9v211h142v-510h-142v201q-10 -3 -41 -10v-81h-82v74q-93 -2 -141 43q-43 40 -43 124v159z" />
    <glyph glyph-name="cyrH" unicode="&#x4ba;" horiz-adv-x="597" 
d="M66 686h150v-296q61 27 123 27q87 0 139 -52q53 -53 53 -154v-211h-150v190q0 57 -12 76q-20 31 -66 31q-39 0 -87 -22v-275h-150v686z" />
    <glyph glyph-name="cyrh" unicode="&#x4bb;" horiz-adv-x="495" 
d="M53 689h142v-233q20 26 36 38q35 26 90 26q59 0 91 -33q18 -19 27 -51t9.5 -48.5t0.5 -60.5v-327h-142v327q0 50 -8 62q-13 19 -43 19t-45 -17q-16 -17 -16 -59v-332h-142v689z" />
    <glyph glyph-name="cyrI" unicode="&#x4c0;" horiz-adv-x="248" 
d="M53 689h142v-689h-142v689z" />
    <glyph glyph-name="cyrKahook" unicode="&#x4c3;" horiz-adv-x="547" 
d="M216 686v-280h51q49 0 60 42q3 12 11 85q6 59 15 86q13 39 38 55q27 18 82 18q28 0 47 -6v-112h-8q-8 0 -12.5 -1.5t-11 -11.5t-9.5 -29q-9 -61 -12 -80q-7 -42 -29 -66q-19 -21 -46 -29v-3q63 -13 98 -72q37 -61 37 -183q0 -108 -41 -168q-50 -73 -148 -73q-44 0 -85 12
l16 116q26 -8 45 -8q32 0 48 33q13 27 13 83q0 53 -8 100q-11 58 -31 77q-22 21 -69 21h-51v-292h-150v686h150z" />
    <glyph glyph-name="cyrkahook" unicode="&#x4c4;" horiz-adv-x="464" 
d="M195 510v-196h48q30 0 41 14q8 9 12 45q5 51 10 69q9 34 31 53q25 21 70 21q23 0 47 -6v-90q-20 6 -31 -14q-6 -12 -8 -32l-4 -35q-3 -31 -26 -52q-15 -14 -35 -17v-2q41 -8 67 -47q29 -42 29 -127v-66q0 -110 -38 -161q-42 -57 -118 -57q-23 0 -59 7v116q12 -4 29 -4
q34 0 40 36q3 30 3 58v99q0 38 -11 62q-15 30 -49 30h-48v-214h-142v510h142z" />
    <glyph glyph-name="cyrEnhook" unicode="&#x4c7;" horiz-adv-x="597" 
d="M66 686h150v-276h165v276h150v-658q0 -72 -13.5 -117.5t-52.5 -72.5q-40 -29 -109 -29q-26 0 -83 11v125q40 -5 48 -5q21 0 33 7q27 17 27 84v251h-165v-282h-150v686z" />
    <glyph glyph-name="cyrenhook" unicode="&#x4c8;" horiz-adv-x="502" 
d="M195 323h112v187h142v-513q0 -107 -32 -145q-33 -38 -100 -38q-38 0 -76 7v116q8 -1 17 -1q33 0 42 17q7 12 7 45v213h-112v-211h-142v510h142v-187z" />
    <glyph glyph-name="cyrAcyrbreve" unicode="&#x4d0;" horiz-adv-x="524" 
d="M184 686h152l196 -686h-154l-34 142h-193l-33 -142h-139zM316 260l-69 279l-66 -279h135zM317 890h108q-1 -60 -44 -98q-44 -37 -119 -37t-119 37q-43 38 -44 98h108q-2 -25 12 -40q14 -16 43 -16t43 16q14 15 12 40z" />
    <glyph glyph-name="cyracyrbreve" unicode="&#x4d1;" horiz-adv-x="495" 
d="M189 348l-135 13q9 63 48 102q55 57 160 57q73 0 119 -31q21 -14 34 -31t18.5 -41.5t6.5 -44t1 -56.5v-203q0 -84 9 -113h-132q-11 41 -7 78q-14 -30 -38 -52q-40 -37 -101 -37q-59 0 -95 35q-40 38 -40 108q0 61 32 103q34 44 103 62q41 12 127 19v41q0 35 -13 52
q-14 17 -40 17q-30 0 -45 -26q-7 -13 -12 -52zM299 218v26l-19 -3q-65 -11 -84 -43q-13 -22 -13 -54q0 -24 12 -41q15 -20 37 -20q38 0 54 44q13 35 13 91zM285 692h107q0 -56 -31 -92q-36 -40 -114 -40t-114 40q-31 36 -31 92h107q0 -24 7 -37q10 -17 31 -17t31 17
q7 13 7 37z" />
    <glyph glyph-name="cyrAdieresis" unicode="&#x4d2;" horiz-adv-x="524" 
d="M184 686h152l196 -686h-154l-34 142h-193l-33 -142h-139zM316 260l-69 279l-66 -279h135zM225 865v-118h-107v118h107zM406 865v-118h-107v118h107z" />
    <glyph glyph-name="cyradieresis" unicode="&#x4d3;" horiz-adv-x="495" 
d="M189 348l-135 13q9 63 48 102q55 57 160 57q73 0 119 -31q21 -14 34 -31t18.5 -41.5t6.5 -44t1 -56.5v-203q0 -84 9 -113h-132q-11 41 -7 78q-14 -30 -38 -52q-40 -37 -101 -37q-59 0 -95 35q-40 38 -40 108q0 61 32 103q34 44 103 62q41 12 127 19v41q0 35 -13 52
q-14 17 -40 17q-30 0 -45 -26q-7 -13 -12 -52zM299 218v26l-19 -3q-65 -11 -84 -43q-13 -22 -13 -54q0 -24 12 -41q15 -20 37 -20q38 0 54 44q13 35 13 91zM212 701v-118h-107v118h107zM388 701v-118h-107v118h107z" />
    <glyph glyph-name="cyrAE" unicode="&#x4d4;" horiz-adv-x="702" 
d="M228 686h465v-118h-254v-159h200v-118h-200v-168h254v-123h-399v159h-150l-55 -159h-131zM297 270v315l-115 -315h115z" />
    <glyph glyph-name="cyrae" unicode="&#x4d5;" horiz-adv-x="723" 
d="M692 231h-264q-1 -87 18 -116q17 -26 49 -26t50 23q19 24 21 61l122 -9q-12 -79 -52 -122q-49 -53 -133 -53q-69 0 -110 32q-29 22 -44 55q-18 -29 -46 -51q-46 -36 -117 -36q-64 0 -102 33q-47 40 -47 106q0 75 41 120q31 34 78 47.5t112 19.5l22 2q5 71 -13 92
q-14 18 -42 18q-33 0 -49 -30q-12 -23 -12 -53l-124 14q9 74 58 118q48 44 135 44q58 0 92 -22q16 -10 32 -30q47 52 126 52q92 0 144 -63q59 -70 55 -226zM428 313h131q-1 59 -16 85q-16 29 -49 29q-26 0 -43 -22q-22 -27 -23 -92zM290 244q-43 -5 -64.5 -14t-34.5 -31
q-11 -19 -11 -54q0 -28 12 -45q12 -16 35 -16q25 0 41 20q22 27 22 93v47z" />
    <glyph glyph-name="cyrIecyrbreve" unicode="&#x4d6;" horiz-adv-x="493" 
d="M66 686h418v-118h-268v-159h208v-118h-208v-173h268v-118h-418v686zM343 890h108q-1 -60 -44 -98q-44 -37 -119 -37t-119 37q-43 38 -44 98h108q-2 -25 12 -40q14 -16 43 -16t43 16q14 15 12 40z" />
    <glyph glyph-name="cyriecyrbreve" unicode="&#x4d7;" horiz-adv-x="476" 
d="M445 231h-268q-2 -91 15 -119t55 -28q33 0 52 24q16 20 19 67l127 -8q-14 -75 -54 -118q-54 -59 -150 -59q-90 0 -144 55q-66 67 -66 205q0 140 64 210q56 60 146 60q111 0 166 -93q45 -76 38 -196zM178 313h133q1 61 -18 88q-20 25 -49 25q-32 0 -50 -29
q-13 -21 -16 -84zM276 692h107q0 -56 -31 -92q-36 -40 -114 -40t-114 40q-31 36 -31 92h107q0 -24 7 -37q10 -17 31 -17t31 17q7 13 7 37z" />
    <glyph glyph-name="cyrinvE" unicode="&#x4d8;" horiz-adv-x="580" 
d="M38 392h345q0 4 -1 21t-1.5 21.5t-1.5 18.5t-2.5 20l-4 16.5t-6 19t-7.5 16.5q-26 48 -82 48q-44 0 -71 -35q-16 -22 -25 -66l-135 18q11 95 73 151q61 56 160 56q100 0 163 -59q51 -47 74 -128t23 -170q0 -87 -22.5 -163.5t-68.5 -122.5q-65 -65 -178 -65
q-133 0 -193 117q-20 39 -31 106t-11 125q0 28 3 55zM385 274h-212q0 -86 32 -127q26 -34 70 -34q51 0 80 36q30 39 30 125z" />
    <glyph glyph-name="cyrinve" unicode="&#x4d9;" horiz-adv-x="476" 
d="M31 279h268q2 91 -15 119t-55 28q-33 0 -52 -24q-16 -20 -19 -67l-127 8q14 75 54 118q54 59 150 59q90 0 144 -55q66 -67 66 -205q0 -140 -64 -210q-56 -60 -146 -60q-111 0 -166 93q-45 76 -38 196zM298 197h-133q-1 -61 18 -88q20 -25 49 -25q32 0 50 29q13 21 16 84z
" />
    <glyph glyph-name="cyrinvEdieresis" unicode="&#x4da;" horiz-adv-x="580" 
d="M38 392h345q0 4 -1 21t-1.5 21.5t-1.5 18.5t-2.5 20l-4 16.5t-6 19t-7.5 16.5q-26 48 -82 48q-44 0 -71 -35q-16 -22 -25 -66l-135 18q11 95 73 151q61 56 160 56q100 0 163 -59q51 -47 74 -128t23 -170q0 -87 -22.5 -163.5t-68.5 -122.5q-65 -65 -178 -65
q-133 0 -193 117q-20 39 -31 106t-11 125q0 28 3 55zM385 274h-212q0 -86 32 -127q26 -34 70 -34q51 0 80 36q30 39 30 125zM245 857v-118h-107v118h107zM426 857v-118h-107v118h107z" />
    <glyph glyph-name="cyrinvedieresis" unicode="&#x4db;" horiz-adv-x="476" 
d="M31 279h268q2 91 -15 119t-55 28q-33 0 -52 -24q-16 -20 -19 -67l-127 8q14 75 54 118q54 59 150 59q90 0 144 -55q66 -67 66 -205q0 -140 -64 -210q-56 -60 -146 -60q-111 0 -166 93q-45 76 -38 196zM298 197h-133q-1 -61 18 -88q20 -25 49 -25q32 0 50 29q13 21 16 84z
M202 708v-118h-107v118h107zM378 708v-118h-107v118h107z" />
    <glyph glyph-name="cyrZhedieresis" unicode="&#x4dc;" horiz-adv-x="758" 
d="M452 686v-280h31q49 0 58 42q3 13 9 85q6 71 11 86q9 35 38 55q27 18 82 18q28 0 47 -6v-112h-8q-28 0 -33 -43q-7 -71 -8 -79q-7 -45 -27 -66q-19 -20 -50 -29v-3q60 -8 85 -55q13 -25 20 -90q6 -63 12 -73q9 -17 29 -12v-124q-17 -6 -47 -6q-87 0 -114 53
q-15 31 -23 147q-4 61 -18 77q-18 21 -63 21h-31v-292h-146v292h-31q-45 0 -63 -21q-14 -16 -18 -77q-8 -116 -23 -147q-27 -53 -114 -53q-30 0 -47 6v124q20 -5 29 12q6 10 12 73q7 65 20 90q25 47 85 55v3q-31 9 -50 29q-20 21 -27 66q-1 8 -8 79q-5 43 -33 43h-8v112
q19 6 47 6q55 0 82 -18q29 -20 38 -55q5 -15 11 -86q6 -72 9 -85q9 -42 58 -42h31v280h146zM342 865v-118h-107v118h107zM523 865v-118h-107v118h107z" />
    <glyph glyph-name="cyrzhedieresis" unicode="&#x4dd;" horiz-adv-x="660" 
d="M396 510v-196h22q30 0 41 14q6 7 12 46q4 35 10 66q8 36 31 55q28 21 70 21q26 0 45 -6v-90q-2 1 -6.5 1.5t-12 -3t-11.5 -12.5q-4 -8 -8 -32l-5 -35q-4 -34 -24 -51q-14 -12 -37 -18v-2q37 -7 54 -44q8 -17 16 -75q3 -26 9 -34q12 -17 38 -9v-106q-27 -8 -49 -8
q-42 0 -66 15q-39 24 -49 91l-3 23q0 2 -2 21.5t-4 30.5q-2 12 -4.5 19t-12.5 14.5t-28 7.5h-26v-214h-132v214h-26q-18 0 -28 -7.5t-12.5 -14.5t-4.5 -19q-1 -8 -2 -17t-2 -19t-2 -16l-3 -23q-10 -67 -49 -91q-24 -15 -66 -15q-22 0 -49 8v106q26 -8 38 9q6 8 9 34
q8 58 16 75q17 37 54 44v2q-23 6 -37 18q-20 17 -24 51l-5 35q-4 24 -8 32q-4 9 -11.5 12.5t-12 3t-6.5 -1.5v90q19 6 45 6q42 0 70 -21q23 -19 31 -55q6 -31 10 -66q6 -39 12 -46q11 -14 41 -14h22v196h132zM297 701v-118h-107v118h107zM473 701v-118h-107v118h107z" />
    <glyph glyph-name="cyrZedieresis" unicode="&#x4de;" horiz-adv-x="542" 
d="M190 413h61q49 0 71 24q18 20 18 58q0 37 -20 57q-23 21 -61 21q-41 0 -65 -24q-28 -28 -30 -80l-130 16q13 122 90 174q54 38 148 38q99 0 153 -44q65 -53 65 -145q0 -52 -22 -91q-25 -44 -79 -58v-2q45 -10 76 -45q38 -42 38 -113q0 -100 -60 -155q-58 -54 -180 -54
q-110 0 -165 45q-69 58 -73 178l138 12q0 -37 12 -65q21 -46 84 -46q50 0 72 26q18 23 18 62q0 47 -22 71q-21 22 -69 22h-68v118zM234 865v-118h-107v118h107zM415 865v-118h-107v118h107z" />
    <glyph glyph-name="cyrzedieresis" unicode="&#x4df;" horiz-adv-x="456" 
d="M147 342l-122 11q3 35 17 65.5t23.5 41.5t17.5 18q46 42 144 42q85 0 126 -30q56 -40 56 -115q0 -44 -22 -71q-21 -26 -57 -35v-2q38 -9 60 -36q26 -33 26 -83q0 -36 -15.5 -70t-42.5 -54q-45 -34 -148 -34q-98 0 -139 39q-22 21 -34.5 57.5t-13.5 70.5l124 11
q-2 -29 9 -49q15 -29 56 -29q26 0 43 17q19 19 19 49q0 31 -16 47q-18 18 -47 18h-41v82h41q32 0 48 20q12 17 12 41q0 28 -16 41q-17 15 -42 15q-36 0 -52 -26q-14 -21 -14 -52zM193 701v-118h-107v118h107zM369 701v-118h-107v118h107z" />
    <glyph glyph-name="cyrImacron" unicode="&#x4e2;" horiz-adv-x="619" 
d="M66 686h150v-353q0 -60 -4 -85q10 37 22 62l169 327v49h150v-686h-150v355q0 62 4 89q-15 -50 -22 -62l-169 -327v-55h-150v686zM164 845h291v-77h-291v77z" />
    <glyph glyph-name="cyrimacron" unicode="&#x4e3;" horiz-adv-x="504" 
d="M53 510h132v-237q0 -18 -3 -64q6 12 12.5 29t10.5 24l114 217v31h132v-510h-132v246q0 10 3 63q-16 -41 -24 -56l-113 -214v-39h-132v510zM110 679h283v-75h-283v75z" />
    <glyph glyph-name="cyrIdieresis" unicode="&#x4e4;" horiz-adv-x="619" 
d="M66 686h150v-353q0 -60 -4 -85q10 37 22 62l169 327v49h150v-686h-150v355q0 62 4 89q-15 -50 -22 -62l-169 -327v-55h-150v686zM272 865v-118h-107v118h107zM453 865v-118h-107v118h107z" />
    <glyph glyph-name="cyridieresis" unicode="&#x4e5;" horiz-adv-x="504" 
d="M53 510h132v-237q0 -18 -3 -64q6 12 12.5 29t10.5 24l114 217v31h132v-510h-132v246q0 10 3 63q-16 -41 -24 -56l-113 -214v-39h-132v510zM216 701v-118h-107v118h107zM392 701v-118h-107v118h107z" />
    <glyph glyph-name="cyrOdieresis" unicode="&#x4e6;" horiz-adv-x="582" 
d="M291 697q102 0 167 -67q83 -87 83 -287q0 -175 -64.5 -264.5t-185.5 -89.5q-102 0 -167 67q-83 85 -83 287t83 287q65 67 167 67zM291 573q-41 0 -64 -38q-26 -44 -26 -192q0 -151 26 -193q23 -37 64 -37q42 0 65 37q25 42 25 193t-25 192q-22 38 -65 38zM254 865v-118
h-107v118h107zM435 865v-118h-107v118h107z" />
    <glyph glyph-name="cyrodieresis" unicode="&#x4e7;" horiz-adv-x="474" 
d="M237 520q92 0 143 -54q63 -67 63 -211t-63 -211q-51 -54 -143 -54t-143 54q-63 67 -63 211t63 211q51 54 143 54zM237 420q-25 0 -40 -22q-20 -29 -20 -143t20 -143q15 -22 40 -22t40 22q20 29 20 143t-20 143q-15 22 -40 22zM202 701v-118h-107v118h107zM378 701v-118
h-107v118h107z" />
    <glyph glyph-name="cyrObar" unicode="&#x4e8;" horiz-adv-x="582" 
d="M291 697q102 0 167 -67q83 -87 83 -287q0 -175 -64.5 -264.5t-185.5 -89.5q-102 0 -167 67q-83 85 -83 287t83 287q65 67 167 67zM202 396h178q0 97 -24 139q-22 38 -65 38q-42 0 -64 -38q-25 -43 -25 -139zM380 288h-178q0 -95 25 -138q23 -37 64 -37q42 0 65 37
q24 38 24 138z" />
    <glyph glyph-name="cyrobar" unicode="&#x4e9;" horiz-adv-x="474" 
d="M237 520q92 0 143 -54q63 -67 63 -211t-63 -211q-51 -54 -143 -54t-143 54q-63 67 -63 211t63 211q51 54 143 54zM178 307h118q-5 69 -19 91q-15 22 -40 22t-40 -22q-14 -22 -19 -91zM296 215h-118q1 -79 19 -103q15 -22 40 -22t40 22q18 24 19 103z" />
    <glyph glyph-name="cyrObardieresis" unicode="&#x4ea;" horiz-adv-x="582" 
d="M291 697q102 0 167 -67q83 -87 83 -287q0 -175 -64.5 -264.5t-185.5 -89.5q-102 0 -167 67q-83 85 -83 287t83 287q65 67 167 67zM202 396h178q0 97 -24 139q-22 38 -65 38q-42 0 -64 -38q-25 -43 -25 -139zM380 288h-178q0 -95 25 -138q23 -37 64 -37q42 0 65 37
q24 38 24 138zM250 856v-118h-107v118h107zM431 856v-118h-107v118h107z" />
    <glyph glyph-name="cyrobardieresis" unicode="&#x4eb;" horiz-adv-x="474" 
d="M237 520q92 0 143 -54q63 -67 63 -211t-63 -211q-51 -54 -143 -54t-143 54q-63 67 -63 211t63 211q51 54 143 54zM178 307h118q-5 69 -19 91q-15 22 -40 22t-40 -22q-14 -22 -19 -91zM296 215h-118q1 -79 19 -103q15 -22 40 -22t40 22q18 24 19 103zM209 693v-118h-107
v118h107zM385 693v-118h-107v118h107z" />
    <glyph glyph-name="cyrUmacron" unicode="&#x4ee;" horiz-adv-x="499" 
d="M-10 686h168l115 -329h4l98 329h139l-168 -494q-42 -123 -81 -160q-45 -43 -134 -43q-37 0 -75 11v124q27 -6 57 -6q37 0 56 16q23 18 29 50zM135 845h291v-77h-291v77z" />
    <glyph glyph-name="cyrumacron" unicode="&#x4ef;" horiz-adv-x="383" 
d="M-14 510h150l69 -312l66 312h129l-154 -518q-29 -96 -56 -130q-39 -48 -106 -48q-39 0 -69 10v116q17 -4 43 -4q43 0 62 24q12 14 17 38zM50 679h283v-75h-283v75z" />
    <glyph glyph-name="cyrUdieresis" unicode="&#x4f0;" horiz-adv-x="499" 
d="M-10 686h168l115 -329h4l98 329h139l-168 -494q-42 -123 -81 -160q-45 -43 -134 -43q-37 0 -75 11v124q27 -6 57 -6q37 0 56 16q23 18 29 50zM239 868v-118h-107v118h107zM420 868v-118h-107v118h107z" />
    <glyph glyph-name="cyrudieresis" unicode="&#x4f1;" horiz-adv-x="383" 
d="M-14 510h150l69 -312l66 312h129l-154 -518q-29 -96 -56 -130q-39 -48 -106 -48q-39 0 -69 10v116q17 -4 43 -4q43 0 62 24q12 14 17 38zM156 701v-118h-107v118h107zM332 701v-118h-107v118h107z" />
    <glyph glyph-name="cyrUdblacute" unicode="&#x4f2;" horiz-adv-x="499" 
d="M-10 686h168l115 -329h4l98 329h139l-168 -494q-42 -123 -81 -160q-45 -43 -134 -43q-37 0 -75 11v124q27 -6 57 -6q37 0 56 16q23 18 29 50zM264 904l47 -75l-160 -95l-32 45zM437 903l47 -74l-159 -95l-33 45z" />
    <glyph glyph-name="cyrudblacute" unicode="&#x4f3;" horiz-adv-x="383" 
d="M-14 510h150l69 -312l66 312h129l-154 -518q-29 -96 -56 -130q-39 -48 -106 -48q-39 0 -69 10v116q17 -4 43 -4q43 0 62 24q12 14 17 38zM211 742l58 -62l-145 -116l-38 39zM369 742l57 -62l-143 -116l-40 39z" />
    <glyph glyph-name="cyrChedieresis" unicode="&#x4f4;" horiz-adv-x="564" 
d="M348 0v282q-57 -24 -123 -24q-87 0 -135 50q-45 47 -45 157v221h150v-202q0 -55 14 -74q18 -26 63 -26q44 0 76 19v283h150v-686h-150zM235 865v-118h-107v118h107zM416 865v-118h-107v118h107z" />
    <glyph glyph-name="cyrchedieresis" unicode="&#x4f5;" horiz-adv-x="477" 
d="M35 510h142v-158q0 -38 15 -52q14 -13 37 -13q28 0 53 12v211h142v-510h-142v201q-42 -17 -92 -17q-85 0 -122 43q-33 39 -33 124v159zM203 701v-118h-107v118h107zM379 701v-118h-107v118h107z" />
    <glyph glyph-name="cyrYerudieresis" unicode="&#x4f8;" horiz-adv-x="798" 
d="M590 686h142v-686h-142v686zM208 436h64q119 0 175 -41q76 -56 76 -182q0 -122 -78 -177q-24 -17 -55.5 -25.5t-51.5 -9.5t-55 -1h-217v686h142v-250zM208 118h62q43 0 71 17q34 22 34 81q0 60 -31 84q-23 18 -74 18h-62v-200zM362 865v-118h-107v118h107zM543 865v-118
h-107v118h107z" />
    <glyph glyph-name="cyryerudieresis" unicode="&#x4f9;" horiz-adv-x="667" 
d="M191 510v-187h66q92 0 138 -47q41 -42 41 -113q0 -80 -46 -122q-44 -41 -114 -41h-223v510h138zM191 238v-138h35q34 0 52 17q20 18 20 52q0 37 -21 55q-17 14 -49 14h-37zM476 510h138v-510h-138v510zM298 701v-118h-107v118h107zM474 701v-118h-107v118h107z" />
    <glyph glyph-name="endash" unicode="&#x2013;" horiz-adv-x="457" 
d="M42 313h373v-105h-373v105z" />
    <glyph glyph-name="emdash" unicode="&#x2014;" horiz-adv-x="686" 
d="M39 313h608v-105h-608v105z" />
    <glyph glyph-name="quoteleft" unicode="&#x2018;" horiz-adv-x="249" 
d="M189 412h-129v152l73 134h56l-57 -134h57v-152z" />
    <glyph glyph-name="quoteright" unicode="&#x2019;" horiz-adv-x="213" 
d="M30 686h129v-152l-74 -134h-55l57 134h-57v152z" />
    <glyph glyph-name="quotesinglbase" unicode="&#x201a;" horiz-adv-x="267" 
d="M63 152h141v-138l-86 -177h-55l66 163h-66v152z" />
    <glyph glyph-name="quotedblleft" unicode="&#x201c;" horiz-adv-x="442" 
d="M373 412h-129v152l73 134h56l-57 -134h57v-152zM197 412h-128v152l73 134h55l-56 -134h56v-152z" />
    <glyph glyph-name="quotedblright" unicode="&#x201d;" horiz-adv-x="442" 
d="M69 686h128v-152l-73 -134h-55l56 134h-56v152zM244 686h129v-152l-74 -134h-55l56 134h-56v152z" />
    <glyph glyph-name="quotedblbase" unicode="&#x201e;" horiz-adv-x="442" 
d="M69 152h128v-152l-73 -134h-55l56 134h-56v152zM244 152h129v-152l-74 -134h-55l56 134h-56v152z" />
    <glyph glyph-name="dagger" unicode="&#x2020;" horiz-adv-x="529" 
d="M196 686h137v-184h142v-119h-142v-555h-137v555h-142v119h142v184z" />
    <glyph glyph-name="daggerdbl" unicode="&#x2021;" horiz-adv-x="529" 
d="M196 686h137v-184h142v-119h-142v-253h142v-118h-142v-184h-137v184h-142v118h142v253h-142v119h142v184z" />
    <glyph glyph-name="bullet" unicode="&#x2022;" horiz-adv-x="535" 
d="M338 265h-141v156h141v-156z" />
    <glyph glyph-name="onedotleader" unicode="&#x2024;" horiz-adv-x="356" 
d="M110 149h136v-149h-136v149z" />
    <glyph glyph-name="twodotleader" unicode="&#x2025;" horiz-adv-x="529" 
d="M65 149h135v-149h-135v149zM328 149h136v-149h-136v149z" />
    <glyph glyph-name="ellipsis" unicode="&#x2026;" horiz-adv-x="791" 
d="M63 152h140v-152h-140v152zM325 152h141v-152h-141v152zM588 152h140v-152h-140v152z" />
    <glyph glyph-name="perthousand" unicode="&#x2030;" horiz-adv-x="1000" 
d="M164 690q14 0 28 -2.5t34.5 -13t35.5 -28t26 -52t11 -80.5q0 -13 -1 -24t-4 -34.5t-12 -41.5t-23 -37t-38.5 -29.5t-56.5 -10.5q-36 0 -62.5 14.5t-40 33.5t-21.5 46.5t-9.5 45.5t-1.5 37q0 54 14 92t36.5 54.5t43 23t41.5 6.5zM164 613q-13 0 -21 -6t-11.5 -20t-4 -23
t-1.5 -29v-21v-23q3 -53 12 -66q9 -12 26 -12q23 0 30.5 25t7.5 76q0 49 -7.5 74t-30.5 25zM466 686h78l-324 -686h-78zM521 350q16 0 31.5 -3t35 -14.5t34 -29.5t24.5 -52t10 -78q0 -32 -6 -60t-20 -55.5t-42 -44t-67 -16.5q-69 0 -103 48.5t-34 127.5q0 54 14.5 92t38 55
t43.5 23.5t41 6.5zM521 273q-12 0 -20.5 -6.5t-12 -19.5t-5 -24t-1.5 -28v-22v-22q0 -17 1.5 -28t5 -24t12 -19.5t20.5 -6.5t20 6.5t11.5 20.5t4 23.5l1.5 27.5v22v22l-1.5 27.5t-4 23.5t-11.5 20.5t-20 6.5zM832 350q15 0 29 -2.5t34.5 -13t35.5 -28t26 -52t11 -81.5
q0 -16 -1 -30t-8 -43.5t-20 -49.5t-41 -36.5t-66 -16.5q-39 0 -67 16.5t-42 44t-20 55.5t-6 60q0 44 10 78t24.5 52t34 29.5t35 14.5t31.5 3zM832 273q-12 0 -19.5 -6.5t-11 -19t-5 -23.5t-1.5 -29v-22v-22q0 -18 1.5 -29t5 -23.5t11 -19t19.5 -6.5q13 0 21 6t11.5 20.5
t4 23t1.5 28.5v22v22q-1 20 -1.5 28.5t-4 23t-11.5 20.5t-21 6z" />
    <glyph glyph-name="guilsinglleft" unicode="&#x2039;" horiz-adv-x="282" 
d="M231 84l-74 -1l-106 181l106 179h74l-63 -179z" />
    <glyph glyph-name="guilsinglright" unicode="&#x203a;" horiz-adv-x="282" 
d="M51 444l74 -1l106 -179l-106 -181h-74l63 181z" />
    <glyph glyph-name="fraction" unicode="&#x2044;" horiz-adv-x="117" 
d="M176 686h89l-324 -686h-89z" />
    <glyph glyph-name="zerosuperior" unicode="&#x2070;" horiz-adv-x="352" 
d="M176 691q21 0 38 -2.5t40 -15t38.5 -33.5t27 -62.5t11.5 -97.5q0 -105 -36 -158.5t-119 -53.5q-41 0 -71 14.5t-45.5 35t-25 51.5t-11.5 55.5t-2 55.5q0 59 12.5 101t28 63t40 32t39.5 13t35 2zM176 612q-14 0 -20.5 -5.5t-11.5 -35t-5 -91.5q0 -60 4.5 -89t11 -36
t21.5 -7q16 0 23 8.5t10 36t3 87.5q0 62 -4.5 91t-10.5 35t-21 6z" />
    <glyph glyph-name="foursuperior" unicode="&#x2074;" horiz-adv-x="352" 
d="M169 691h118v-241h49v-83h-49v-93h-113v93h-158v78zM184 440v156l-91 -156h91z" />
    <glyph glyph-name="fivesuperior" unicode="&#x2075;" horiz-adv-x="352" 
d="M56 686h252l-11 -92h-160l-6 -77q28 32 70 32q57 0 93.5 -31.5t36.5 -90.5q0 -70 -38 -114.5t-118 -44.5q-63 0 -105.5 32t-48.5 87l104 14q6 -28 18 -37t34 -9q43 0 43 58q0 53 -44 53q-39 0 -47 -32l-89 15z" />
    <glyph glyph-name="sixsuperior" unicode="&#x2076;" horiz-adv-x="352" 
d="M333 573l-97 -10q-4 19 -16 34t-32 15q-25 0 -35.5 -25.5t-14.5 -86.5q30 40 67 40q51 0 90 -33t39 -96q0 -72 -42.5 -107.5t-101.5 -35.5q-51 0 -85.5 22.5t-48.5 59.5t-18.5 64t-4.5 55q0 44 7 80.5t23.5 70t48 52.5t75.5 19q63 0 100 -33t46 -85zM184 460
q-41 0 -41 -62q0 -18 5.5 -29.5t15 -15.5t13 -4.5t10.5 -0.5q37 0 37 59q0 53 -40 53z" />
    <glyph glyph-name="sevensuperior" unicode="&#x2077;" horiz-adv-x="352" 
d="M46 686h276v-78q-56 -67 -80 -145t-27 -189h-121q1 98 29.5 167t92.5 151h-179z" />
    <glyph glyph-name="eightsuperior" unicode="&#x2078;" horiz-adv-x="352" 
d="M259 499q36 -20 55 -42.5t19 -57.5q0 -17 -5 -35t-19.5 -42t-49.5 -39t-87 -15q-83 0 -118 34.5t-35 79.5q0 34 17 54t58 41q-62 38 -62 98q0 18 6 35.5t21 37t46 31.5t75 12q39 0 67.5 -10t42 -23t21.5 -30.5t9 -26t1 -15.5q0 -54 -62 -87zM197 528q25 32 25 54
q0 13 -10.5 25t-31.5 12q-16 0 -28.5 -10t-12.5 -26q0 -18 13 -28.5t45 -26.5zM154 446q-34 -25 -34 -59q0 -18 13.5 -30t39.5 -12q29 0 41 12.5t12 27.5q0 16 -19.5 33t-52.5 28z" />
    <glyph glyph-name="ninesuperior" unicode="&#x2079;" horiz-adv-x="352" 
d="M25 379l101 18q8 -49 38 -49q52 0 50 115q-8 -18 -28 -30.5t-41 -12.5q-53 0 -90 35t-37 89q0 59 34 103t113 44q154 0 154 -196q0 -227 -158 -227q-112 0 -136 111zM167 612q-39 0 -39 -58q0 -48 41 -48q39 0 39 54q0 52 -41 52z" />
    <glyph glyph-name="nsuperior" unicode="&#x207f;" horiz-adv-x="333" 
d="M35 585h83v-43q31 49 93 49q27 0 45.5 -8.5t27.5 -18.5t13.5 -29t5 -29t0.5 -30v-201h-107v201q0 12 -0.5 17.5t-6.5 12t-18 6.5q-7 0 -12.5 -2t-8.5 -6.5t-5 -8.5t-2.5 -11t-0.5 -10.5v-10v-7.5v-181h-107v310z" />
    <glyph glyph-name="zeroinferior" unicode="&#x2080;" horiz-adv-x="352" 
d="M176 417q21 0 38 -2.5t40 -15t38.5 -33.5t27 -62.5t11.5 -97.5q0 -105 -36 -158.5t-119 -53.5q-41 0 -71 14.5t-45.5 35t-25 51.5t-11.5 55.5t-2 55.5q0 59 12.5 101t28 63t40 32t39.5 13t35 2zM176 338q-14 0 -20.5 -5.5t-11.5 -35t-5 -91.5q0 -60 4.5 -89t11 -36
t21.5 -7q16 0 23 8.5t10 36t3 87.5q0 62 -4.5 91t-10.5 35t-21 6z" />
    <glyph glyph-name="oneinferior" unicode="&#x2081;" horiz-adv-x="351" 
d="M167 416l85 -1v-334h72v-81h-258v81h73v207q-18 -16 -73 -45v96q40 21 60 35.5t41 41.5z" />
    <glyph glyph-name="twoinferior" unicode="&#x2082;" horiz-adv-x="352" 
d="M121 255l-105 18q2 17 6.5 33t15.5 37.5t26.5 36.5t43.5 26t63 11q42 0 72 -13t45 -33.5t21.5 -40.5t6.5 -41q0 -17 -4.5 -33.5t-9.5 -28.5t-19 -27l-21 -22.5t-28 -22.5t-28.5 -20t-33.5 -21t-32 -20h183l-9 -94h-296v89l34.5 26t37 29l32 27t31.5 29.5t22.5 27.5
t17.5 30.5t5 28.5q0 23 -7.5 33t-26.5 10q-17 0 -28 -14.5t-15 -60.5z" />
    <glyph glyph-name="threeinferior" unicode="&#x2083;" horiz-adv-x="352" 
d="M118 284l-101 17q35 116 151 116q70 0 106 -30t36 -75q0 -71 -67 -95q32 -7 54 -32t22 -62q0 -42 -18 -70.5t-46 -39.5t-47.5 -15t-37.5 -4q-46 0 -79 13.5t-49.5 36t-24 42t-9.5 40.5l102 15q4 -60 50 -60q20 0 31.5 12.5t11.5 33.5q0 15 -5 25t-9.5 14t-16 6.5
t-14.5 2.5h-14h-35v76h35q19 0 31 4t16.5 13t5.5 14.5t1 16.5q0 16 -9 25.5t-23 9.5q-39 0 -48 -50z" />
    <glyph glyph-name="fourinferior" unicode="&#x2084;" horiz-adv-x="352" 
d="M169 417h118v-241h49v-83h-49v-93h-113v93h-158v78zM184 166v156l-91 -156h91z" />
    <glyph glyph-name="fiveinferior" unicode="&#x2085;" horiz-adv-x="352" 
d="M56 412h252l-11 -92h-160l-6 -77q28 32 70 32q57 0 93.5 -31.5t36.5 -90.5q0 -70 -38 -114.5t-118 -44.5q-63 0 -105.5 32t-48.5 87l104 14q6 -28 18 -37t34 -9q43 0 43 58q0 53 -44 53q-39 0 -47 -32l-89 15z" />
    <glyph glyph-name="sixinferior" unicode="&#x2086;" horiz-adv-x="352" 
d="M333 299l-97 -10q-4 19 -16 34t-32 15q-25 0 -35.5 -25.5t-14.5 -86.5q30 40 67 40q51 0 90 -33t39 -96q0 -72 -42.5 -107.5t-101.5 -35.5q-51 0 -85.5 22.5t-48.5 59.5t-18.5 64t-4.5 55q0 44 7 80.5t23.5 70t48 52.5t75.5 19q63 0 100 -33t46 -85zM184 186
q-41 0 -41 -62q0 -18 5.5 -29.5t15 -15.5t13 -4.5t10.5 -0.5q37 0 37 59q0 53 -40 53z" />
    <glyph glyph-name="seveninferior" unicode="&#x2087;" horiz-adv-x="352" 
d="M46 412h276v-78q-56 -67 -80 -145t-27 -189h-121q1 98 29.5 167t92.5 151h-179z" />
    <glyph glyph-name="eightinferior" unicode="&#x2088;" horiz-adv-x="352" 
d="M259 225q36 -20 55 -42.5t19 -57.5q0 -17 -5 -35t-19.5 -42t-49.5 -39t-87 -15q-83 0 -118 34.5t-35 79.5q0 34 17 54t58 41q-62 38 -62 98q0 18 6 35.5t21 37t46 31.5t75 12q39 0 67.5 -10t42 -23t21.5 -30.5t9 -26t1 -15.5q0 -54 -62 -87zM197 254q25 32 25 54
q0 13 -10.5 25t-31.5 12q-16 0 -28.5 -10t-12.5 -26q0 -18 13 -28.5t45 -26.5zM154 172q-34 -25 -34 -59q0 -18 13.5 -30t39.5 -12q29 0 41 12.5t12 27.5q0 16 -19.5 33t-52.5 28z" />
    <glyph glyph-name="nineinferior" unicode="&#x2089;" horiz-adv-x="352" 
d="M25 105l101 18q8 -49 38 -49q52 0 50 115q-8 -18 -28 -30.5t-41 -12.5q-53 0 -90 35t-37 89q0 59 34 103t113 44q154 0 154 -196q0 -227 -158 -227q-112 0 -136 111zM167 338q-39 0 -39 -58q0 -48 41 -48q39 0 39 54q0 52 -41 52z" />
    <glyph glyph-name="colonmonetary" unicode="&#x20a1;" 
d="M343 744h49l-9 -91q123 -56 128 -229l-113 -8q-4 77 -33 116l-39 -405q31 13 47.5 52t19.5 78l115 -8q-16 -201 -187 -230l-8 -77h-48l7 75q-6 0 -39 4l-8 -79h-49l10 93q-150 62 -150 298q0 163 60.5 243t150.5 91l7 77h48l-6 -75q10 0 21 -2q10 -1 19 -1zM283 121
l42 440q-14 5 -40 4l-42 -437q20 -7 40 -7zM202 155l40 402q-42 -19 -60.5 -72t-18.5 -150q0 -42 1.5 -65.5t10.5 -56t27 -58.5z" />
    <glyph glyph-name="Euro" unicode="&#x20ac;" 
d="M537 650l-42 -115q-71 31 -93 38q-45 14 -83 14q-50 0 -69 -35q-17 -31 -17 -85h237l-31 -86h-210q-1 -33 0 -61h187l-31 -86h-154q0 -63 13 -92q19 -42 75 -42q40 0 89 21q63 26 109 74v-135q-30 -25 -71 -43q-61 -27 -132 -27q-145 0 -205 123q-23 48 -33 121h-72
l29 86h37q0 42 1 61h-67l29 86h46q12 97 59 155q60 74 177 74q60 0 137 -20q55 -15 85 -26z" />
    <glyph glyph-name="afii61352" unicode="&#x2116;" horiz-adv-x="913" 
d="M60 686h167l177 -426v426h116v-686h-135l-209 496v-496h-116v686zM600 274h257v-83h-257v83zM728 686q60 0 96 -44q39 -48 39 -132q0 -51 -13.5 -87.5t-35 -54.5t-43 -26t-43.5 -8q-60 0 -96 44q-39 48 -39 132t39 132q36 44 96 44zM728 620q-25 0 -37 -29
q-11 -30 -11 -81t11 -81q12 -29 37 -29t37 29q11 30 11 81t-11 81q-12 29 -37 29z" />
    <glyph glyph-name="published" unicode="&#x2117;" horiz-adv-x="804" 
d="M270 549h136q31 0 46 -1t39.5 -10t41.5 -27q34 -37 34 -96q0 -41 -22 -81q-31 -48 -90 -48h-73v-149h-112v412zM382 473v-112h25q32 0 43 22q8 18 8 36q0 22 -11 37q-12 17 -44 17h-21zM402 -12q-149 0 -254.5 104t-105.5 251t105.5 251.5t254.5 104.5q147 0 253.5 -105
t106.5 -251q0 -147 -106 -251t-254 -104zM402 68q113 0 192 80t79 195t-79 195t-192 80t-192 -80t-79 -195t79 -195t192 -80z" />
    <glyph glyph-name="trademark" unicode="&#x2122;" horiz-adv-x="756" 
d="M14 665h257v-73h-85v-318h-91v318h-81v73zM302 665h134l56 -240l64 240h131v-391h-85v326l-84 -326h-66l-77 326v-326h-73v391z" />
    <glyph glyph-name="onethird" unicode="&#x2153;" horiz-adv-x="827" 
d="M162 690l85 -1v-334h72v-81h-258v81h73v207q-18 -16 -73 -45v96q40 21 60 35.5t41 41.5zM540 686h89l-324 -686h-89zM587 284l-101 17q35 116 151 116q70 0 106 -30t36 -75q0 -71 -67 -95q32 -7 54 -32t22 -62q0 -42 -18 -70.5t-46 -39.5t-47.5 -15t-37.5 -4
q-46 0 -79 13.5t-49.5 36t-24 42t-9.5 40.5l102 15q4 -60 50 -60q20 0 31.5 12.5t11.5 33.5q0 15 -5 25t-9.5 14t-16 6.5t-14.5 2.5h-14h-35v76h35q19 0 31 4t16.5 13t5.5 14.5t1 16.5q0 16 -9 25.5t-23 9.5q-39 0 -48 -50z" />
    <glyph glyph-name="twothirds" unicode="&#x2154;" horiz-adv-x="825" 
d="M121 529l-105 18q2 17 6.5 33t15.5 37.5t26.5 36.5t43.5 26t63 11q42 0 72 -13t45 -33.5t21.5 -40.5t6.5 -41q0 -17 -4.5 -33.5t-9.5 -28.5t-19 -27l-21 -22.5t-28 -22.5t-28.5 -20t-33.5 -21t-32 -20h183l-9 -94h-296v89l34.5 26t37 29l32 27t31.5 29.5t22.5 27.5
t17.5 30.5t5 28.5q0 23 -7.5 33t-26.5 10q-17 0 -28 -14.5t-15 -60.5zM536 686h89l-324 -686h-89zM586 284l-101 17q35 116 151 116q70 0 106 -30t36 -75q0 -71 -67 -95q32 -7 54 -32t22 -62q0 -42 -18 -70.5t-46 -39.5t-47.5 -15t-37.5 -4q-46 0 -79 13.5t-49.5 36t-24 42
t-9.5 40.5l102 15q4 -60 50 -60q20 0 31.5 12.5t11.5 33.5q0 15 -5 25t-9.5 14t-16 6.5t-14.5 2.5h-14h-35v76h35q19 0 31 4t16.5 13t5.5 14.5t1 16.5q0 16 -9 25.5t-23 9.5q-39 0 -48 -50z" />
    <glyph glyph-name="oneeighth" unicode="&#x215b;" horiz-adv-x="825" 
d="M142 690l85 -1v-334h72v-81h-258v81h73v207q-18 -16 -73 -45v96q40 21 60 35.5t41 41.5zM518 686h89l-324 -686h-89zM709 225q36 -20 55 -42.5t19 -57.5q0 -17 -5 -35t-19.5 -42t-49.5 -39t-87 -15q-83 0 -118 34.5t-35 79.5q0 34 17 54t58 41q-62 38 -62 98q0 18 6 35.5
t21 37t46 31.5t75 12q39 0 67.5 -10t42 -23t21.5 -30.5t9 -26t1 -15.5q0 -54 -62 -87zM647 254q25 32 25 54q0 13 -10.5 25t-31.5 12q-16 0 -28.5 -10t-12.5 -26q0 -18 13 -28.5t45 -26.5zM604 172q-34 -25 -34 -59q0 -18 13.5 -30t39.5 -12q29 0 41 12.5t12 27.5
q0 16 -19.5 33t-52.5 28z" />
    <glyph glyph-name="threeeighths" unicode="&#x215c;" horiz-adv-x="825" 
d="M112 558l-101 17q35 116 151 116q70 0 106 -30t36 -75q0 -71 -67 -95q32 -7 54 -32t22 -62q0 -42 -18 -70.5t-46 -39.5t-47.5 -15t-37.5 -4q-46 0 -79 13.5t-49.5 36t-24 42t-9.5 40.5l102 15q4 -60 50 -60q20 0 31.5 12.5t11.5 33.5q0 15 -5 25t-9.5 14t-16 6.5
t-14.5 2.5h-14h-35v76h35q19 0 31 4t16.5 13t5.5 14.5t1 16.5q0 16 -9 25.5t-23 9.5q-39 0 -48 -50zM524 686h89l-324 -686h-89zM726 225q36 -20 55 -42.5t19 -57.5q0 -17 -5 -35t-19.5 -42t-49.5 -39t-87 -15q-83 0 -118 34.5t-35 79.5q0 34 17 54t58 41q-62 38 -62 98
q0 18 6 35.5t21 37t46 31.5t75 12q39 0 67.5 -10t42 -23t21.5 -30.5t9 -26t1 -15.5q0 -54 -62 -87zM664 254q25 32 25 54q0 13 -10.5 25t-31.5 12q-16 0 -28.5 -10t-12.5 -26q0 -18 13 -28.5t45 -26.5zM621 172q-34 -25 -34 -59q0 -18 13.5 -30t39.5 -12q29 0 41 12.5
t12 27.5q0 16 -19.5 33t-52.5 28z" />
    <glyph glyph-name="fiveeighths" unicode="&#x215d;" horiz-adv-x="825" 
d="M56 686h252l-11 -92h-160l-6 -77q28 32 70 32q57 0 93.5 -31.5t36.5 -90.5q0 -70 -38 -114.5t-118 -44.5q-63 0 -105.5 32t-48.5 87l104 14q6 -28 18 -37t34 -9q43 0 43 58q0 53 -44 53q-39 0 -47 -32l-89 15zM530 686h89l-324 -686h-89zM732 225q36 -20 55 -42.5
t19 -57.5q0 -17 -5 -35t-19.5 -42t-49.5 -39t-87 -15q-83 0 -118 34.5t-35 79.5q0 34 17 54t58 41q-62 38 -62 98q0 18 6 35.5t21 37t46 31.5t75 12q39 0 67.5 -10t42 -23t21.5 -30.5t9 -26t1 -15.5q0 -54 -62 -87zM670 254q25 32 25 54q0 13 -10.5 25t-31.5 12
q-16 0 -28.5 -10t-12.5 -26q0 -18 13 -28.5t45 -26.5zM627 172q-34 -25 -34 -59q0 -18 13.5 -30t39.5 -12q29 0 41 12.5t12 27.5q0 16 -19.5 33t-52.5 28z" />
    <glyph glyph-name="seveneighths" unicode="&#x215e;" horiz-adv-x="826" 
d="M46 686h276v-78q-56 -67 -80 -145t-27 -189h-121q1 98 29.5 167t92.5 151h-179zM484 686h89l-324 -686h-89zM685 225q36 -20 55 -42.5t19 -57.5q0 -17 -5 -35t-19.5 -42t-49.5 -39t-87 -15q-83 0 -118 34.5t-35 79.5q0 34 17 54t58 41q-62 38 -62 98q0 18 6 35.5t21 37
t46 31.5t75 12q39 0 67.5 -10t42 -23t21.5 -30.5t9 -26t1 -15.5q0 -54 -62 -87zM623 254q25 32 25 54q0 13 -10.5 25t-31.5 12q-16 0 -28.5 -10t-12.5 -26q0 -18 13 -28.5t45 -26.5zM580 172q-34 -25 -34 -59q0 -18 13.5 -30t39.5 -12q29 0 41 12.5t12 27.5q0 16 -19.5 33
t-52.5 28z" />
    <glyph glyph-name="partialdiff" unicode="&#x2202;" horiz-adv-x="517" 
d="M63 574l17 114q111 -14 171 -39q137 -55 203 -182q42 -82 42 -193q0 -116 -44 -181q-67 -101 -198 -101q-73 0 -130 36q-103 66 -103 210q0 85 58 145q61 64 150 64q78 0 127 -48q-33 65 -66 94q-38 34 -104.5 56t-122.5 25zM258 340q-39 0 -70 -28q-39 -34 -39 -88
q0 -52 34 -86q34 -32 74 -32q50 0 80 37q27 34 27 81q0 56 -29 85q-29 31 -77 31z" />
    <glyph glyph-name="product" unicode="&#x220f;" horiz-adv-x="686" 
d="M20 772h646v-116h-74v-797h74v-117h-271v117h67v797h-238v-797h66v-117h-270v117h75v797h-75v116z" />
    <glyph glyph-name="summation" unicode="&#x2211;" horiz-adv-x="688" 
d="M639 772v-261h-130l-16 127h-295l250 -365l-248 -396h302l9 132h138v-267h-614v154l241 377l-241 345v154h604z" />
    <glyph glyph-name="minus" unicode="&#x2212;" horiz-adv-x="529" 
d="M475 289h-421v108h421v-108z" />
    <glyph glyph-name="division" unicode="&#x2215;" horiz-adv-x="117" 
d="M176 686h89l-324 -686h-89z" />
    <glyph glyph-name="radical" unicode="&#x221a;" horiz-adv-x="686" 
d="M686 851v-121h-174l-190 -730h-168l-64 266h-90v119h173l30 -112q8 -27 13 -69q8 -69 9 -76h8q20 138 70 329l102 394h281z" />
    <glyph glyph-name="infinity" unicode="&#x221e;" horiz-adv-x="687" 
d="M345 283q-21 -27 -44 -47q-58 -48 -122 -48q-75 0 -122 51q-38 42 -38 112q0 74 47 117q48 44 111 44q71 0 127 -53q21 -21 37 -42q25 30 30 35q58 60 137 60q73 0 119 -50q41 -44 41 -113q0 -75 -49 -118.5t-114 -43.5q-73 0 -130 60q-16 18 -30 36zM393 350
q18 -28 40 -48q27 -24 56 -24q36 0 57 22q18 20 18 49q0 36 -23 55q-20 17 -47 17q-35 0 -60 -23t-41 -48zM293 350q-31 40 -45 51q-24 20 -50 20q-36 0 -55 -19q-20 -18 -20 -52q0 -30 19 -51q21 -21 56 -21q29 0 57 26q22 19 38 46z" />
    <glyph glyph-name="integral" unicode="&#x222b;" horiz-adv-x="517" 
d="M51 -247l25 137q23 -10 43 -10q32 0 49 22q13 17 13 50v511v106q2 88 39 136q53 67 150 67q52 0 96 -11l-25 -137q-27 10 -42 10q-34 0 -50 -21q-13 -19 -13 -53v-504q0 -13 0.5 -49.5t0 -49t-2.5 -39.5t-6 -41t-12 -32.5t-20 -33.5q-53 -66 -154 -66q-67 0 -91 8z" />
    <glyph glyph-name="approxequal" unicode="&#x2248;" 
d="M90 361l-75 52q28 65 63 102.5t93 37.5q13 0 28 -3.5t25.5 -7.5t30 -12.5t29.5 -12.5q60 -25 84 -25q38 0 69 54l75 -53q-53 -137 -152 -137q-39 0 -102.5 29.5t-92.5 29.5q-41 0 -75 -54zM90 138l-75 53q54 140 156 140q34 0 113 -35q57 -26 84 -26q21 0 33 10t36 43
l75 -52q-25 -65 -60 -101.5t-92 -36.5q-39 0 -78 17q-8 3 -28.5 12l-28.5 12.5t-21.5 8.5t-22 7t-16.5 2q-22 0 -43.5 -16t-31.5 -38z" />
    <glyph glyph-name="notequal" unicode="&#x2260;" horiz-adv-x="529" 
d="M388 481h87v-109h-137l-28 -58h165v-109h-215l-53 -113l-98 46l31 67h-86v109h137l27 58h-164v109h215l52 113l99 -46z" />
    <glyph glyph-name="lessequal" unicode="&#x2264;" 
d="M486 658v-144l-278 -91l277 -89l1 -143l-445 169v128zM486 164v-136h-445v136h445z" />
    <glyph glyph-name="greaterequal" unicode="&#x2265;" 
d="M41 191l1 143l277 89l-278 91v144l445 -170v-128zM41 29v135h445v-136z" />
    <glyph glyph-name="lozenge" unicode="&#x25ca;" horiz-adv-x="690" 
d="M345 713l268 -370l-268 -369l-268 369zM345 622l-203 -279l203 -278l203 278z" />
    <glyph glyph-name="star" unicode="&#x2606;" horiz-adv-x="833" 
d="M415 730l90 -289h304l-244 -181l92 -290l-242 181l-243 -181l95 290l-244 181h301zM415 576l-57 -181h-196l158 -118l-59 -183l154 115l155 -116l-59 184l158 118h-197z" />
    <glyph glyph-name="Accent" unicode="&#xf401;" horiz-adv-x="2" 
d="M-276 766l172 158l56 -84l-186 -117z" />
    <glyph glyph-name="Breve" unicode="&#xf406;" horiz-adv-x="477" 
d="M67 867h84q19 -42 88 -42q68 0 87 42h84q-35 -117 -171 -117q-137 0 -172 117z" />
    <glyph glyph-name="Cedilla" unicode="&#xf407;" horiz-adv-x="480" 
d="M218 0h59l-19 -53q56 7 84 -25q21 -24 21 -57q0 -37 -27 -61q-29 -25 -78 -25q-62 0 -117 37l18 45q18 -12 39 -18q26 -8 45 -8q16 0 24 8t8 20q0 21 -16 32q-13 9 -38 11h-38z" />
    <glyph glyph-name="Circumflex" unicode="&#xf408;" horiz-adv-x="475" 
d="M30 748l208 150l207 -150h-113l-94 49l-95 -49h-113z" />
    <glyph glyph-name="Commaaccent" unicode="&#xf409;" horiz-adv-x="481" 
d="M210 -55h108l-81 -195h-56z" />
    <glyph glyph-name="Apostrophe" unicode="&#xf40a;" horiz-adv-x="481" 
d="M315 686h108l-81 -202h-56z" />
    <glyph glyph-name="Dotaccent" unicode="&#xf40b;" horiz-adv-x="481" 
d="M179 876h121v-140h-121v140z" />
    <glyph glyph-name="Ring" unicode="&#xf40c;" horiz-adv-x="479" 
d="M239 730q-41 0 -71 30q-28 28 -28 70q0 46 29 73t71 27t71 -29q28 -27 28 -71q0 -42 -28 -70q-30 -30 -72 -30zM239 788q19 0 29 12q11 11 11 30q0 16 -10 28q-11 14 -29 14t-29 -12q-11 -11 -11 -30t14 -32q11 -10 25 -10z" />
    <glyph glyph-name="Tilde" unicode="&#xf40d;" horiz-adv-x="475" 
d="M365 859l47 -34q-15 -28 -42 -49q-39 -30 -76 -30q-32 0 -78 21q-34 17 -53 17t-32 -11q-6 -5 -22 -21l-46 34q17 27 42 47q34 26 77 26q27 0 67 -17q49 -20 64 -20q26 0 52 37z" />
    <glyph glyph-name="Ogonek" unicode="&#xf40e;" horiz-adv-x="479" 
d="M425 0h55q-17 -17 -24 -26q-23 -30 -23 -56q0 -25 17 -40q18 -16 55 -16q18 0 30 3l11 -50q-36 -8 -61 -8q-65 0 -96 23q-37 27 -37 71q0 37 28 65q18 20 45 34z" />
    <glyph glyph-name="Udotaccent" unicode="&#xf47e;" horiz-adv-x="597" 
d="M66 686h150v-392v-26v-26t0.5 -22.5t1.5 -22.5t3.5 -18.5t6 -18t8.5 -14.5q25 -33 79 -33q40 0 62 22q28 28 28 100v451h126v-453q0 -147 -83 -205q-55 -39 -146 -39q-95 0 -147 33q-53 34 -71 95t-18 159v410zM237 876h121v-140h-121v140z" />
    <glyph glyph-name="udotaccent" unicode="&#xf47f;" horiz-adv-x="495" 
d="M46 510h142v-355q0 -25 9 -38q12 -17 42 -17q29 0 43 18q18 22 18 94v298h142v-510h-134v70q-17 -34 -40 -53q-33 -28 -86 -28q-59 0 -92 25q-44 34 -44 113v383zM187 711h121v-140h-121v140z" />
    <glyph glyph-name="Acedilla" unicode="&#xf481;" horiz-adv-x="524" 
d="M184 686h152l196 -686h-154l-34 142h-193l-33 -142h-139zM316 260l-69 279l-66 -279h135zM240 0h59l-19 -53q56 7 84 -25q21 -24 21 -57q0 -37 -27 -61q-29 -25 -78 -25q-62 0 -117 37l18 45q18 -12 39 -18q26 -8 45 -8q16 0 24 8t8 20q0 21 -16 32q-13 9 -38 11h-38z
" />
    <glyph glyph-name="acedilla" unicode="&#xf482;" horiz-adv-x="495" 
d="M189 348l-135 13q9 63 48 102q55 57 160 57q73 0 119 -31q21 -14 34 -31t18.5 -41.5t6.5 -44t1 -56.5v-203q0 -84 9 -113h-132q-11 41 -7 78q-14 -28 -35 -50l-32 -79q48 6 77 -19q25 -23 25 -60q0 -38 -25 -61q-27 -25 -81 -25t-109 36l16 42q52 -26 83 -26q18 0 26 8
q10 10 10 22q0 21 -17 33q-16 12 -48 12q-15 0 -29 -3l32 84q-12 -3 -32 -3q-57 0 -95 35q-40 38 -40 105q0 62 32 106q34 44 103 62q41 12 127 19v41q0 35 -13 52q-14 17 -40 17q-30 0 -45 -26q-7 -13 -12 -52zM299 218v26l-19 -3q-65 -11 -84 -43q-13 -22 -13 -54
q0 -24 12 -41q15 -20 37 -20q38 0 54 44q13 35 13 91z" />
    <glyph glyph-name="Zring" unicode="&#xf483;" horiz-adv-x="473" 
d="M22 686h440v-107l-285 -455h295v-124h-471v105l288 457h-267v124zM236 730q-41 0 -71 30q-28 28 -28 70q0 46 29 73t71 27t71 -29q28 -27 28 -71q0 -42 -28 -70q-30 -30 -72 -30zM236 788q18 0 29 12q11 11 11 30q0 16 -10 28q-11 14 -29 14t-29 -12q-11 -11 -11 -30
t14 -32q11 -10 25 -10z" />
    <glyph glyph-name="zring" unicode="&#xf484;" horiz-adv-x="370" 
d="M38 510h318v-92l-189 -318h194v-100h-340v101l186 309h-169v100zM185 560q-36 0 -68 29q-29 26 -29 69q0 40 29 69q28 28 69 28t69 -28t28 -69q0 -40 -26 -68q-28 -30 -72 -30zM185 617q18 0 28 11q11 11 11 30q0 18 -11 29q-12 12 -27 12q-19 0 -29 -12q-10 -11 -10 -29
q0 -19 11 -30t27 -11z" />
    <glyph glyph-name="Germandbls" unicode="&#xf485;" horiz-adv-x="1054" 
d="M484 537l-124 -48q-11 36 -30 56q-26 28 -68 28q-25 0 -45 -13q-26 -17 -26 -51q0 -29 31 -50q23 -16 87 -40q86 -32 121 -62q68 -58 68 -149q0 -101 -73 -163q-66 -56 -170 -56q-113 0 -179 73q-42 45 -59 115l131 39q8 -40 28 -64q30 -39 85 -39q38 0 58 16
q27 21 27 55q0 33 -24 54q-16 14 -71 34q-99 35 -142 71q-64 54 -64 142q0 97 62 157q58 55 155 55q99 0 155 -47q52 -43 67 -113zM1011 537l-124 -48q-11 36 -30 56q-26 28 -68 28q-25 0 -45 -13q-26 -17 -26 -51q0 -29 31 -50q23 -16 87 -40q86 -32 121 -62
q68 -58 68 -149q0 -101 -73 -163q-66 -56 -170 -56q-113 0 -179 73q-42 45 -59 115l131 39q8 -40 28 -64q30 -39 85 -39q38 0 58 16q27 21 27 55q0 33 -24 54q-16 14 -71 34q-99 35 -142 71q-64 54 -64 142q0 97 62 157q58 55 155 55q99 0 155 -47q52 -43 67 -113z" />
    <glyph glyph-name="cyrTcedilla" unicode="&#xf4c4;" horiz-adv-x="423" 
d="M-3 686h429v-128h-141v-558h-44l-19 -53q56 7 84 -25q21 -24 21 -57q0 -37 -27 -61q-29 -25 -78 -25q-62 0 -117 37l18 45q18 -12 39 -18q26 -8 45 -8q16 0 24 8t8 20q0 21 -16 32q-13 9 -38 11h-38l35 94h-47v558h-138v128z" />
    <glyph glyph-name="cyrtcedilla" unicode="&#xf4c5;" horiz-adv-x="398" 
d="M270 398v-398h-35l-20 -51q48 6 77 -19q25 -23 25 -60q0 -38 -25 -61q-27 -25 -81 -25t-109 36l16 42q44 -26 83 -26q18 0 26 8q10 7 10 22q0 21 -17 33q-16 12 -48 12q-16 0 -29 -3l34 92h-49v398h-123v112h388v-112h-123z" />
    <glyph glyph-name="cyrChehook" unicode="&#xf4c6;" horiz-adv-x="564" 
d="M348 403v283h150v-638q0 -72 -13.5 -118t-52.5 -72q-42 -29 -119 -29q-27 0 -91 11v125q45 -5 56 -5q31 0 43 7q27 16 27 84v231q-57 -24 -123 -24q-87 0 -135 50q-45 47 -45 157v221h150v-202q0 -55 14 -74q18 -26 63 -26q44 0 76 19z" />
    <glyph glyph-name="cyrchehook" unicode="&#xf4c7;" horiz-adv-x="477" 
d="M35 510h142v-158q0 -38 15 -52q14 -13 37 -13q28 0 53 12v211h142v-513q0 -107 -32 -145q-33 -38 -100 -38q-38 0 -76 7v116q8 -1 17 -1q33 0 42 17q7 12 7 45v203q-42 -17 -92 -17q-85 0 -122 43q-33 39 -33 124v159z" />
    <glyph glyph-name="cyrEscedilla" unicode="&#xf4c8;" horiz-adv-x="563" 
d="M399 250l140 -9q-8 -110 -70 -180q-58 -65 -138 -70l-16 -44q56 7 84 -25q21 -24 21 -57q0 -37 -27 -61q-29 -25 -78 -25q-61 0 -117 37l18 45q18 -12 39 -18q26 -8 45 -8q16 0 24 8t8 20q0 21 -16 32q-13 9 -38 11h-38l31 85q-82 6 -139 63q-91 91 -91 287q0 88 23 169
t74 128q63 59 165 59q94 0 154 -56q76 -70 79 -210l-137 -11q-4 91 -35 125q-27 28 -64 28q-35 0 -59 -29q-40 -48 -40 -210q0 -136 31 -183q25 -38 71 -38q41 0 65 35q26 36 31 102z" />
    <glyph glyph-name="cyrescedilla" unicode="&#xf4c9;" horiz-adv-x="460" 
d="M435 322l-133 -5q-3 50 -15 72q-14 23 -40 23q-34 0 -51 -30q-19 -36 -19 -125q0 -86 21 -124q17 -29 46 -29q27 0 41 21q16 21 17 74l133 -8q-7 -92 -52 -142q-44 -49 -115 -57l-17 -43q48 6 77 -19q25 -23 25 -60q0 -38 -25 -61q-27 -25 -81 -25t-109 36l16 42
q44 -26 83 -26q18 0 26 8q10 7 10 22q0 21 -17 33q-16 12 -48 12q-16 0 -29 -3l31 84q-71 7 -117 55q-62 65 -62 199q0 147 64 215q56 59 151 59q85 0 134 -53q53 -56 55 -145z" />
    <glyph glyph-name="cyrUacute" unicode="&#xf4cc;" horiz-adv-x="499" 
d="M-10 686h168l115 -329h4l98 329h139l-168 -494q-42 -123 -81 -160q-45 -43 -134 -43q-37 0 -75 11v124q27 -6 57 -6q37 0 56 16q23 18 29 50zM172 792l212 112l33 -99l-215 -67z" />
    <glyph glyph-name="cyruacute" unicode="&#xf4cd;" horiz-adv-x="383" 
d="M-14 510h150l69 -312l66 312h129l-154 -518q-29 -96 -56 -130q-39 -48 -106 -48q-39 0 -69 10v116q17 -4 43 -4q43 0 62 24q12 14 17 38zM143 608l172 158l56 -84l-186 -117z" />
    <glyph glyph-name="uniF639" unicode="&#xf639;" horiz-adv-x="511" 
d="M255 697q98 0 154 -60q75 -81 75 -294t-75 -294q-56 -60 -154 -60q-97 0 -153 60q-75 81 -75 294t75 294q56 60 153 60zM255 587q-32 0 -48 -27q-22 -36 -22 -217q0 -183 22 -217q17 -26 48 -26q32 0 48 26q23 35 23 217q0 180 -22 217q-17 27 -49 27z" />
    <glyph glyph-name="uniF63A" unicode="&#xf63a;" horiz-adv-x="505" 
d="M165 444l-137 28q8 91 60 152q61 73 167 73q93 0 149 -48q65 -57 65 -156t-86 -196q-62 -70 -202 -163h296l-10 -134h-439v134q116 98 195 182q26 28 42 48t30.5 53t14.5 66q0 42 -13 63q-17 28 -50 28q-38 0 -58 -33q-16 -26 -24 -97z" />
    <glyph glyph-name="uniF63B" unicode="&#xf63b;" horiz-adv-x="504" 
d="M167 496l-132 24q16 65 59 110q63 67 168 67q77 0 129 -35q73 -50 73 -147q0 -63 -33 -105q-26 -33 -69 -50q49 -12 82 -54t33 -107q0 -101 -61 -156q-60 -54 -159 -54q-112 0 -178 66q-47 50 -59 137l133 23q2 -39 19 -66q23 -36 70 -36q39 0 60 25q20 23 20 63
q0 49 -21 72q-25 27 -84 27h-42v111h50q51 0 73 28q16 21 16 67q0 29 -16 50q-18 24 -54 24q-37 0 -57 -29q-10 -12 -20 -55z" />
    <glyph glyph-name="uniF63C" unicode="&#xf63c;" horiz-adv-x="504" 
d="M243 697h165v-419h76v-116h-76v-162h-151v162h-247v116zM269 270v283l-152 -283h152z" />
    <glyph glyph-name="uniF63D" unicode="&#xf63d;" horiz-adv-x="507" 
d="M79 686h366l-15 -134h-242l-9 -155q40 59 119 59q72 0 122 -48q61 -59 61 -177t-65 -182q-62 -60 -165 -60q-109 0 -172 69q-48 53 -55 125l137 23q0 -3 1.5 -13t8 -27.5t16.5 -28.5q22 -24 63 -24q43 0 65 30q20 28 20 78q0 51 -20 79q-24 33 -70 33q-32 0 -53 -20
q-14 -14 -19 -34l-119 24z" />
    <glyph glyph-name="uniF63E" unicode="&#xf63e;" horiz-adv-x="495" 
d="M466 514l-123 -37q-3 47 -24 76q-25 34 -66 34q-38 0 -61 -41q-19 -34 -24 -108q-3 -37 -3 -83q14 29 37 48q37 29 89 29q54 0 97 -30q81 -57 81 -189q0 -112 -68 -172q-61 -52 -144 -52q-101 0 -159 65q-72 80 -72 284q0 54 3 93.5t19.5 93.5t46.5 92q64 80 167 80
q89 0 145 -59q45 -48 59 -124zM252 322q-41 0 -62 -29q-18 -25 -18 -82q0 -64 22 -88q20 -23 57 -23q36 0 55 30q17 26 17 87q0 59 -21 83q-19 22 -50 22z" />
    <glyph glyph-name="uniF63F" unicode="&#xf63f;" horiz-adv-x="457" 
d="M34 686h408v-116q-78 -101 -118 -228q-44 -138 -49 -342h-164q3 205 92 384q49 99 109 168h-290z" />
    <glyph glyph-name="uniF640" unicode="&#xf640;" horiz-adv-x="516" 
d="M383 374q35 -15 63 -50q44 -55 44 -120q0 -93 -58 -151q-63 -64 -182 -64q-110 0 -169 53q-56 50 -56 131q0 70 42 116q24 27 69 49q-29 19 -53 47q-39 47 -39 116q0 38 15.5 76t39.5 62q57 58 164 58q95 0 146 -40q29 -22 46 -58t17 -73q0 -60 -30 -101q-21 -29 -59 -51
zM293 419q26 26 37 47t11 51q0 39 -21 60q-22 22 -56 22q-35 0 -58 -23q-20 -20 -20 -56q0 -22 9 -34.5t27 -25.5q32 -25 71 -41zM224 289q-27 -15 -45 -37q-21 -26 -21 -65q0 -44 27 -69q27 -24 67 -24q46 0 72 24q24 22 24 56q0 69 -124 115z" />
    <glyph glyph-name="uniF641" unicode="&#xf641;" horiz-adv-x="495" 
d="M39 157l132 25q2 -33 19 -56q19 -26 53 -26q31 0 52 23q21 24 28.5 82.5t3.5 110.5q-15 -27 -40 -43q-31 -19 -76 -19q-68 0 -116 41q-32 28 -51 73.5t-19 98.5q0 122 73 184q54 46 143 46q87 0 141 -48q39 -35 59.5 -96t23.5 -102.5t3 -102.5q0 -211 -76 -294
q-61 -65 -157 -65q-85 0 -135 48q-43 40 -61 120zM244 587q-36 0 -57 -32q-17 -26 -17 -84q0 -47 21 -72q19 -23 53 -23q45 0 64 34q14 23 14 73q0 54 -24 81q-20 23 -54 23z" />
    <glyph glyph-name="uniF643" unicode="&#xf643;" 
d="M263 517q24 0 45 -2.5t55.5 -17.5t58.5 -40.5t42.5 -78t18.5 -124.5q0 -25 -2 -48t-14 -66t-33.5 -73.5t-65.5 -54t-105 -23.5t-105 23.5t-65 54t-33 73.5t-14 66t-2 48q0 72 18 124t42 78t58.5 41t55.5 17.5t45 2.5zM263 413q-16 0 -28 -6.5t-18.5 -21.5t-11 -26.5
t-6 -35.5t-1.5 -33.5v-35.5q0 -37 2 -61t8 -49t19.5 -37t35.5 -12q23 0 37.5 12.5t20 39.5t7 48t1.5 59q0 34 -1.5 55.5t-7.5 48.5t-20 41t-37 14z" />
    <glyph glyph-name="uniF644" unicode="&#xf644;" 
d="M228 514h109v-402h98v-112h-343v112h100v226q-30 -34 -101 -78v134q91 55 137 120z" />
    <glyph glyph-name="uniF645" unicode="&#xf645;" 
d="M173 317l-123 27q7 32 20.5 61t37.5 58.5t64 47t90 17.5q98 0 153 -41t55 -108q0 -40 -14 -74t-33.5 -57t-55 -45.5t-62.5 -36t-72 -33.5q-11 -5 -16 -7h259l-11 -126h-415v112q141 87 203 138t62 94q0 25 -14 44.5t-50 19.5q-9 0 -17.5 -3t-21 -11t-23 -28t-16.5 -49z
" />
    <glyph glyph-name="uniF646" unicode="&#xf646;" 
d="M178 318l-126 24q19 73 69.5 124t146.5 51q94 0 151 -44.5t57 -121.5q0 -123 -102 -167q47 -12 81 -50t34 -109q0 -103 -61.5 -155t-156.5 -52q-51 0 -91.5 13.5t-65.5 34t-42.5 48.5t-25 53.5t-9.5 52.5l133 21q5 -59 30 -81.5t56 -22.5q40 0 60.5 27.5t20.5 67.5
q0 15 -2.5 26.5t-11.5 29.5t-33 28t-61 9l-42 -1v111h42q51 0 76 21t25 74q0 38 -19.5 56.5t-45.5 18.5q-67 0 -87 -87z" />
    <glyph glyph-name="uniF647" unicode="&#xf647;" 
d="M260 514h164v-397h76v-117h-76v-172h-148v172h-250v112zM288 110v275l-154 -275h154z" />
    <glyph glyph-name="uniF648" unicode="&#xf648;" 
d="M92 508h361l-16 -127h-236l-9 -160q46 59 113 59q74 0 129 -50.5t55 -156.5q0 -73 -20 -125.5t-54.5 -79t-71.5 -38.5t-79 -12q-92 0 -157 52.5t-70 137.5l134 22q7 -48 30 -70.5t66 -22.5q11 0 21.5 3t25 12.5t23.5 34t9 61.5q0 25 -5.5 47.5t-24.5 42.5t-49 20t-52 -14
t-29 -39l-119 22z" />
    <glyph glyph-name="uniF649" unicode="&#xf649;" 
d="M482 514l-122 -37q-14 110 -90 110q-30 0 -49 -19.5t-26.5 -55.5t-10 -67.5t-3.5 -73.5v-16q42 77 113 77q81 0 136 -53t55 -156q0 -116 -61 -175t-150 -59q-232 0 -232 334q0 99 18 172t43 110.5t59.5 59.5t58.5 27t49 5q94 0 147.5 -54t64.5 -129zM265 322
q-77 0 -77 -121q0 -101 83 -101q19 0 32.5 8.5t20.5 19.5t10.5 29.5t4 30t0.5 29.5q0 35 -7.5 58t-20.5 32.5t-23 12t-23 2.5z" />
    <glyph glyph-name="uniF64A" unicode="&#xf64a;" 
d="M70 508h398v-116q-87 -116 -124.5 -252t-41.5 -312h-161q0 32 2.5 64.5t14.5 95t32 121t59.5 133t92.5 139.5h-284z" />
    <glyph glyph-name="uniF64B" unicode="&#xf64b;" 
d="M389 374q46 -21 76.5 -68.5t30.5 -101.5q0 -35 -11 -69t-35.5 -68.5t-74.5 -56t-119 -21.5q-112 0 -168.5 52t-56.5 132q0 58 26 96t85 69q-92 63 -92 169q0 15 3 33.5t16.5 48t35.5 52t64.5 39.5t99.5 17q52 0 91.5 -13t61 -32t35 -44t17.5 -44.5t4 -37.5
q0 -100 -89 -152zM299 419q48 48 48 102q0 45 -23.5 61.5t-53.5 16.5q-31 0 -54.5 -21.5t-23.5 -57.5q0 -55 107 -101zM230 289q-66 -40 -66 -109q0 -32 22 -59t72 -27q46 0 71 25t25 59q0 64 -124 111z" />
    <glyph glyph-name="uniF64C" unicode="&#xf64c;" 
d="M55 -16l132 25q5 -41 23 -61.5t45 -20.5q36 0 58 32t28.5 78t2.5 103q-37 -62 -116 -62q-78 0 -132.5 56t-54.5 146q0 45 11.5 85.5t36 75.5t68 55.5t100.5 20.5q21 0 38.5 -2t42 -9.5t43.5 -20.5t39.5 -37.5t34 -57.5t22 -83.5t8.5 -112.5q0 -59 -4 -105.5t-18.5 -99.5
t-39 -88.5t-68.5 -59t-104 -23.5q-81 0 -128 41t-68 125zM260 408q-73 0 -73 -112q0 -95 77 -95q74 0 74 107q0 100 -78 100z" />
    <glyph glyph-name="dotlessj" unicode="&#xf6be;" horiz-adv-x="246" 
d="M57 510h142v-513q0 -107 -32 -145q-33 -38 -100 -38q-38 0 -76 7v116q8 -1 17 -1q33 0 42 17q7 12 7 45v512z" />
    <glyph glyph-name="commaaccent" unicode="&#xf6c3;" horiz-adv-x="481" 
d="M203 -55h104l-81 -192h-52z" />
    <glyph glyph-name="Acute" unicode="&#xf6c9;" horiz-adv-x="477" 
d="M176 792l212 112l33 -99l-215 -67z" />
    <glyph glyph-name="Caron" unicode="&#xf6ca;" horiz-adv-x="475" 
d="M30 878h113l95 -49l94 49h113l-207 -150z" />
    <glyph glyph-name="Dieresis" unicode="&#xf6cb;" horiz-adv-x="476" 
d="M201 865v-118h-107v118h107zM382 865v-118h-107v118h107z" />
    <glyph glyph-name="Grave" unicode="&#xf6ce;" horiz-adv-x="477" 
d="M319 792l-30 -54l-215 67l34 99z" />
    <glyph glyph-name="Hungarumlaut" unicode="&#xf6cf;" horiz-adv-x="475" 
d="M252 904l47 -75l-160 -95l-32 45zM425 903l47 -74l-159 -95l-33 45z" />
    <glyph glyph-name="Macron" unicode="&#xf6d0;" horiz-adv-x="477" 
d="M93 845h291v-77h-291v77z" />
    <glyph glyph-name="cyrBreve" unicode="&#xf6d1;" horiz-adv-x="458" 
d="M284 890h108q-1 -60 -44 -98q-44 -37 -119 -37t-119 37q-43 38 -44 98h108q-2 -25 12 -40q14 -16 43 -16t43 16q14 15 12 40z" />
    <glyph glyph-name="cyrbreve" unicode="&#xf6d4;" horiz-adv-x="396" 
d="M236 692h107q0 -56 -31 -92q-36 -40 -114 -40t-114 40q-31 36 -31 92h107q0 -24 7 -37q10 -17 31 -17t31 17q7 13 7 37z" />
    <glyph glyph-name="uniF6DC" unicode="&#xf6dc;" horiz-adv-x="425" 
d="M178 692h114v-580h114v-112h-380v112h116v404q-57 -56 -116 -85v134q90 48 152 127z" />
    <glyph glyph-name="rupiah" unicode="&#xf6dd;" horiz-adv-x="984" 
d="M73 686h185h31.5t38.5 -3.5t45.5 -10.5t41.5 -22t39 -36t24.5 -55.5t10.5 -77.5q0 -132 -93 -181l127 -300h-159l-91 271h-60v-271h-140v686zM213 577v-197h47q88 0 88 110q0 87 -94 87h-41zM558 508h125v-77q37 84 116 84q18 0 35.5 -4.5t39 -20.5t37.5 -42.5t27 -74
t11 -110.5q0 -270 -153 -270q-65 0 -105 44v-209h-133v680zM691 303v-95v-10q0 -23 0.5 -34.5t3.5 -28.5t9 -25t18 -14.5t30 -6.5q19 0 29.5 9.5t18 49t7.5 114.5q0 88 -11.5 124.5t-45.5 36.5q-20 0 -33 -11.5t-18 -33t-6.5 -36.5t-1.5 -39z" />
    <glyph glyph-name="centsuperior" unicode="&#xf6e0;" horiz-adv-x="351" 
d="M150 692h61v-58q91 -18 98 -120l-92 -6q0 54 -36 54q-11 0 -18 -6t-9.5 -20.5t-3 -23t-0.5 -27.5q0 -39 6 -57t28 -18q12 0 19.5 7.5t9.5 17.5t4 28l92 -8q-2 -25 -10.5 -48t-31 -45.5t-56.5 -27.5v-67h-61v67q-46 5 -76.5 45.5t-30.5 101.5q0 132 107 153v58z" />
    <glyph glyph-name="commainferior" unicode="&#xf6e1;" horiz-adv-x="481" 
d="M203 -55h104l-81 -192h-52z" />
    <glyph glyph-name="commasuperior" unicode="&#xf6e2;" horiz-adv-x="195" 
d="M44 390h107v-102l-58 -107h-53l42 93h-38v116z" />
    <glyph glyph-name="dollarsuperior" unicode="&#xf6e4;" horiz-adv-x="352" 
d="M146 729l60 -1v-51q40 -2 71.5 -29.5t40.5 -67.5l-83 -30q-17 54 -55 54q-22 0 -33 -10.5t-11 -23.5q0 -18 14.5 -27.5t44.5 -18.5q4 -1 19.5 -5.5t21 -6.5l19.5 -7t20 -8.5t16.5 -10.5t15.5 -14t11 -16.5t8.5 -21.5t2.5 -26q0 -54 -36.5 -85t-86.5 -37v-63h-60v63
q-44 -1 -79.5 34t-45.5 81l93 21q5 -58 57 -58q28 0 43 6.5t15 28.5q0 14 -14.5 22t-45.5 18q-5 1 -8 2q-27 8 -44 14.5t-37.5 19.5t-31 33t-10.5 47q0 48 27.5 82t80.5 40v52z" />
    <glyph glyph-name="periodsuperior" unicode="&#xf6e8;" horiz-adv-x="195" 
d="M44 390h107v-116h-107v116z" />
    <glyph glyph-name="asuperior" unicode="&#xf6e9;" horiz-adv-x="334" 
d="M136 489l-101 9q7 39 38.5 66t94.5 27q43 0 70.5 -10t39 -30t15 -38t3.5 -47v-117q0 -55 9 -74h-90l-6 44q-37 -49 -88 -49q-98 0 -98 79q0 59 42 92t127 32l1 12q3 38 -29 38q-10 0 -16 -4.5t-8 -10.5t-4 -19zM193 409l-1 6q-8 -2 -20 -4t-18.5 -3.5t-13 -5.5t-9 -12
t-2.5 -21q0 -32 25 -32t33.5 25t5.5 47z" />
    <glyph glyph-name="esuperior" unicode="&#xf6ec;" horiz-adv-x="316" 
d="M298 408h-170q-1 -34 5.5 -50t29.5 -16q16 0 27.5 12.5t9.5 26.5l97 -6q-7 -35 -25 -58.5t-41.5 -32.5t-37.5 -11.5t-28 -2.5q-43 0 -73.5 15t-45.5 40t-21.5 51t-6.5 55q0 70 35.5 115t106.5 45q43 0 72.5 -16.5t43.5 -44.5t19 -57.5t3 -64.5zM123 468h79q2 33 -11 44.5
t-29 11.5q-22 0 -29 -13.5t-10 -42.5z" />
    <glyph glyph-name="lsuperior" unicode="&#xf6ee;" horiz-adv-x="177" 
d="M35 700h107v-425h-107v425z" />
    <glyph glyph-name="msuperior" unicode="&#xf6ef;" horiz-adv-x="477" 
d="M35 585h84v-44q36 50 86 50q52 0 72 -50q27 50 77 50q55 0 74 -27.5t19 -88.5v-200h-103v193v3q0 41 -26 41q-18 0 -22 -12.5t-4 -38.5v-6v-180h-102v194q0 16 -1 23.5t-6 13.5t-15 6q-14 0 -21 -9.5t-8 -19.5t-1 -28v-180h-103v310z" />
    <glyph glyph-name="osuperior" unicode="&#xf6f0;" horiz-adv-x="316" 
d="M158 591q140 0 140 -162q0 -159 -140 -159t-140 161q0 160 140 160zM158 517q-11 0 -15.5 -2.5t-9.5 -22t-5 -61.5q0 -55 6.5 -71.5t23.5 -16.5t23.5 15.5t6.5 72.5q0 56 -6.5 71t-23.5 15z" />
    <glyph glyph-name="rsuperior" unicode="&#xf6f1;" horiz-adv-x="229" 
d="M35 585h85v-75q29 79 79 79q12 0 30 -3v-96q-14 4 -26.5 4t-21 -2t-15 -8.5t-10.5 -11.5t-7 -14t-4.5 -14t-2 -14.5t-0.5 -11v-8.5v-135h-107v310z" />
    <glyph glyph-name="ssuperior" unicode="&#xf6f2;" horiz-adv-x="280" 
d="M263 509l-81 -22q-9 39 -37 39q-22 0 -27 -14v-9q1 -7 2 -10t12.5 -10.5t35.5 -13.5q21 -6 34.5 -11t32 -15t28 -26.5t9.5 -38.5q0 -43 -30 -75.5t-93 -32.5q-71 0 -102 28t-35 66l88 12q8 -43 45 -43q15 0 22.5 8.5t7.5 18.5q0 6 -2.5 10.5t-8 7.5t-9.5 5t-13.5 5
t-13.5 4q-27 9 -41 15t-32 17.5t-26 28.5t-8 40q0 39 31 68.5t89 29.5q42 0 76.5 -20t45.5 -62z" />
    <glyph glyph-name="tsuperior" unicode="&#xf6f3;" horiz-adv-x="211" 
d="M56 670l85 8v-93h63v-80h-63v-101q0 -34 5.5 -42.5t27.5 -8.5q6 0 15.5 0.5t19.5 0.5v-78q-36 -6 -62 -6q-31 0 -52.5 9t-32 20t-16 31.5t-6 31.5t-0.5 33v110h-42v80h51z" />
    <glyph glyph-name="zerooldstyle" unicode="&#xf730;" horiz-adv-x="511" 
d="M255 517q24 0 45 -2.5t55.5 -17.5t58.5 -40.5t42.5 -78t18.5 -124.5q0 -25 -2 -48t-14 -66t-33.5 -73.5t-65.5 -54t-105 -23.5t-105 23.5t-65 54t-33 73.5t-14 66t-2 48q0 72 18 124t42 78t58.5 41t55.5 17.5t45 2.5zM255 413q-16 0 -28 -6.5t-18.5 -21.5t-11 -26.5
t-6 -35.5t-1.5 -33.5v-35.5q0 -37 2 -61t8 -49t19.5 -37t35.5 -12q23 0 37.5 12.5t20 39.5t7 48t1.5 59q0 34 -1.5 55.5t-7.5 48.5t-20 41t-37 14z" />
    <glyph glyph-name="oneoldstyle" unicode="&#xf731;" horiz-adv-x="421" 
d="M197 514h109v-402h98v-112h-343v112h100v226q-30 -34 -101 -78v134q91 55 137 120z" />
    <glyph glyph-name="twooldstyle" unicode="&#xf732;" horiz-adv-x="511" 
d="M166 317l-123 27q7 32 20.5 61t37.5 58.5t64 47t90 17.5q98 0 153 -41t55 -108q0 -40 -14 -74t-33.5 -57t-55 -45.5t-62.5 -36t-72 -33.5q-11 -5 -16 -7h259l-11 -126h-415v112q141 87 203 138t62 94q0 25 -14 44.5t-50 19.5q-9 0 -17.5 -3t-21 -11t-23 -28t-16.5 -49z
" />
    <glyph glyph-name="threeoldstyle" unicode="&#xf733;" horiz-adv-x="491" 
d="M144 318l-126 24q19 73 69.5 124t146.5 51q94 0 151 -44.5t57 -121.5q0 -123 -102 -167q47 -12 81 -50t34 -109q0 -103 -61.5 -155t-156.5 -52q-51 0 -91.5 13.5t-65.5 34t-42.5 48.5t-25 53.5t-9.5 52.5l133 21q5 -59 30 -81.5t56 -22.5q40 0 60.5 27.5t20.5 67.5
q0 15 -2.5 26.5t-11.5 29.5t-33 28t-61 9l-42 -1v111h42q51 0 76 21t25 74q0 38 -19.5 56.5t-45.5 18.5q-67 0 -87 -87z" />
    <glyph glyph-name="fouroldstyle" unicode="&#xf734;" horiz-adv-x="508" 
d="M251 514h164v-397h76v-117h-76v-172h-148v172h-250v112zM279 110v275l-154 -275h154z" />
    <glyph glyph-name="fiveoldstyle" unicode="&#xf735;" horiz-adv-x="509" 
d="M84 508h361l-16 -127h-236l-9 -160q46 59 113 59q74 0 129 -50.5t55 -156.5q0 -73 -20 -125.5t-54.5 -79t-71.5 -38.5t-79 -12q-92 0 -157 52.5t-70 137.5l134 22q7 -48 30 -70.5t66 -22.5q11 0 21.5 3t25 12.5t23.5 34t9 61.5q0 25 -5.5 47.5t-24.5 42.5t-49 20t-52 -14
t-29 -39l-119 22z" />
    <glyph glyph-name="sixoldstyle" unicode="&#xf736;" horiz-adv-x="508" 
d="M479 514l-122 -37q-14 110 -90 110q-30 0 -49 -19.5t-26.5 -55.5t-10 -67.5t-3.5 -73.5v-16q42 77 113 77q81 0 136 -53t55 -156q0 -116 -61 -175t-150 -59q-232 0 -232 334q0 99 18 172t43 110.5t59.5 59.5t58.5 27t49 5q94 0 147.5 -54t64.5 -129zM262 322
q-77 0 -77 -121q0 -101 83 -101q19 0 32.5 8.5t20.5 19.5t10.5 29.5t4 30t0.5 29.5q0 35 -7.5 58t-20.5 32.5t-23 12t-23 2.5z" />
    <glyph glyph-name="sevenoldstyle" unicode="&#xf737;" horiz-adv-x="439" 
d="M28 508h398v-116q-87 -116 -124.5 -252t-41.5 -312h-161q0 32 2.5 64.5t14.5 95t32 121t59.5 133t92.5 139.5h-284z" />
    <glyph glyph-name="eightoldstyle" unicode="&#xf738;" 
d="M389 374q46 -21 76.5 -68.5t30.5 -101.5q0 -35 -11 -69t-35.5 -68.5t-74.5 -56t-119 -21.5q-112 0 -168.5 52t-56.5 132q0 58 26 96t85 69q-92 63 -92 169q0 15 3 33.5t16.5 48t35.5 52t64.5 39.5t99.5 17q52 0 91.5 -13t61 -32t35 -44t17.5 -44.5t4 -37.5
q0 -100 -89 -152zM299 419q48 48 48 102q0 45 -23.5 61.5t-53.5 16.5q-31 0 -54.5 -21.5t-23.5 -57.5q0 -55 107 -101zM230 289q-66 -40 -66 -109q0 -32 22 -59t72 -27q46 0 71 25t25 59q0 64 -124 111z" />
    <glyph glyph-name="nineoldstyle" unicode="&#xf739;" horiz-adv-x="509" 
d="M41 -16l132 25q5 -41 23 -61.5t45 -20.5q36 0 58 32t28.5 78t2.5 103q-37 -62 -116 -62q-78 0 -132.5 56t-54.5 146q0 45 11.5 85.5t36 75.5t68 55.5t100.5 20.5q21 0 38.5 -2t42 -9.5t43.5 -20.5t39.5 -37.5t34 -57.5t22 -83.5t8.5 -112.5q0 -59 -4 -105.5t-18.5 -99.5
t-39 -88.5t-68.5 -59t-104 -23.5q-81 0 -128 41t-68 125zM246 408q-73 0 -73 -112q0 -95 77 -95q74 0 74 107q0 100 -78 100z" />
    <glyph glyph-name="apple" unicode="&#xf8ff;" horiz-adv-x="688" 
d="M495 711q5 -66 -38 -118q-18 -23 -50 -43t-65 -17q0 73 42 121q20 22 51.5 40t59.5 17zM642 470q-82 -56 -82 -142q0 -54 27.5 -95t74.5 -60q-39 -95 -87 -150q-44 -50 -90 -50q-24 0 -60 18q-23 12 -54 12q-44 0 -75 -14q-36 -17 -58 -17q-63 0 -117 83q-87 134 -87 256
q0 97 51.5 163t136.5 66q34 0 71 -13q55 -16 66 -16q19 0 65 19q34 13 69 13q97 0 149 -73z" />
    <glyph glyph-name="dollar.fitted" horiz-adv-x="484" 
d="M203 744l77 -1v-72q58 -4 105 -43q48 -41 64 -103l-107 -44q-15 39 -27 55q-24 35 -70 35q-34 0 -56 -24q-16 -18 -16 -49q0 -29 34 -50q11 -7 24 -13t21.5 -9t25 -8t24.5 -8q84 -29 127 -79q39 -45 39 -113q0 -92 -60 -147q-49 -43 -128 -52v-93h-77v93q-64 5 -109 41
q-63 49 -79 135l120 31q3 -34 23 -61q29 -40 80 -40q50 0 72 22q20 20 20 51q0 39 -39 62q-11 7 -23 11t-35 11t-47 17q-96 38 -127 95q-21 39 -21 85q0 98 63 151q42 36 102 41v73z" />
    <glyph glyph-name="numbersign.fitted" horiz-adv-x="539" 
d="M182 686h88l-29 -199h101l30 199h89l-30 -199h92l-12 -82h-93l-17 -110h93l-12 -84h-93l-32 -211h-89l32 211h-102l-32 -211h-88l31 211h-92l13 84h92l17 110h-92l12 82h92zM228 405l-17 -110h102l17 110h-102z" />
    <glyph glyph-name="hyphenminus" horiz-adv-x="283" 
d="M39 316h205v-111h-205v111z" />
    <glyph glyph-name="yen.fitted" horiz-adv-x="513" 
d="M18 686h146l103 -279l110 279h118l-114 -268h103v-74h-135l-25 -63h160v-74h-160v-207h-137v207h-153v74h153l-25 63h-128v74h97z" />
    <glyph glyph-name="cent.fitted" horiz-adv-x="417" 
d="M182 690h73v-93q51 -5 89 -40q56 -53 60 -143l-118 -8q-3 42 -13 60q-17 32 -55 32q-31 0 -46 -33q-15 -30 -15 -113q0 -89 18 -119q16 -26 49 -26q30 0 48 30q10 17 14 60l118 -11q-8 -88 -57 -138q-37 -39 -92 -46v-109h-73v109q-44 6 -76 27q-36 24 -63 76.5
t-27 139.5q0 160 86 223q37 28 80 29v93z" />
    <glyph glyph-name="florin.fitted" horiz-adv-x="443" 
d="M317 495h88l-16 -112h-88l-48 -338q-4 -31 -9.5 -54t-18 -51.5t-31 -46.5t-50 -31t-73.5 -13q-19 0 -61 7l18 113q12 -2 41 -2q24 0 35.5 17.5t19.5 75.5l45 323h-72l15 111h73q7 44 12 69t20.5 58.5t38.5 51.5q38 30 101 30q33 0 77 -12l-16 -112q-22 10 -40 10
q-27 0 -41 -18q-12 -15 -18 -59z" />
    <glyph glyph-name="Euro.fitted" horiz-adv-x="578" 
d="M551 650l-42 -115q-71 31 -93 38q-46 14 -83 14q-50 0 -69 -35q-17 -31 -17 -85h237l-31 -86h-210q-1 -33 0 -61h187l-31 -86h-154q0 -63 13 -92q19 -42 75 -42q40 0 89 21q63 26 109 74v-135q-30 -25 -71 -43q-61 -27 -132 -27q-145 0 -205 123q-23 48 -33 121h-72
l29 86h37q0 42 1 61h-67l29 86h46q12 97 59 155q60 74 177 74q60 0 137 -20q55 -15 85 -26z" />
    <glyph glyph-name="sterling.fitted" horiz-adv-x="582" 
d="M289 419h115v-104h-101q9 -89 -27 -145q-17 -28 -49 -53h76q69 0 101 25q35 27 47 78l111 -42q-7 -51 -34.5 -92.5t-63.5 -60.5q-45 -25 -161 -25h-284v117h51q39 0 58 13q38 27 38 132q0 39 -2 53h-79v104h61q-6 40 -6 78q0 97 49 148q50 52 138 52q80 0 125 -40
q36 -34 49 -91l-109 -51q-5 25 -17 43q-18 29 -47 29q-24 0 -36 -19q-10 -15 -10 -60q0 -20 3 -45t4 -44z" />
    <glyph glyph-name="nbspace" horiz-adv-x="233" 
 />
    <glyph glyph-name="dotlessi1" horiz-adv-x="246" 
d="M52 510h142v-510h-142v510z" />
    <glyph glyph-name="mu1" horiz-adv-x="495" 
d="M300 510h142v-510h-134v70q-5 -34 -18 -55q-16 -26 -46 -26t-46 26q-12 19 -18 55v-242h-134v682h142v-321q0 -51 13 -69q14 -20 43 -20t43 20q13 19 13 88v302z" />
    <glyph glyph-name="colonmonetary.fitted" horiz-adv-x="512" 
d="M327 744h49l-9 -91q123 -56 128 -229l-113 -8q-4 77 -33 116l-39 -405q31 13 47.5 52t19.5 78l115 -8q-16 -201 -187 -230l-8 -77h-48l7 75q-6 0 -39 4l-8 -79h-49l10 93q-150 62 -150 298q0 163 60.5 243t150.5 91l7 77h48l-6 -75q10 0 21 -2q10 -1 19 -1zM267 121
l42 440q-14 5 -40 4l-42 -437q20 -7 40 -7zM186 155l40 402q-42 -19 -60.5 -72t-18.5 -150q0 -42 1.5 -65.5t10.5 -56t27 -58.5z" />
    </font>
</defs>
</svg>
